<svg width="1848" height="604" viewBox="0 0 1848 604" fill="none" xmlns="http://www.w3.org/2000/svg">
<rect width="1848" height="604" fill="#F9F9F9"/>
<rect x="82.4923" y="195.492" width="363.491" height="212.687" rx="16.8087" fill="url(#paint0_linear_111_577)"/>
<rect x="82.4923" y="195.492" width="363.491" height="212.687" rx="16.8087" stroke="#C8C8C8" stroke-width="0.984662"/>
<g clip-path="url(#clip0_111_577)">
<path d="M254.392 296.19V275.512" stroke="url(#paint1_linear_111_577)" stroke-width="2.95399" stroke-linecap="round" stroke-linejoin="round"/>
<path d="M254.392 290.282C262.269 283.46 268.177 297.105 276.054 290.282V275.512C268.177 282.335 262.269 268.69 254.392 275.512" stroke="url(#paint2_linear_111_577)" stroke-width="2.95399" stroke-linecap="round" stroke-linejoin="round"/>
</g>
<path d="M155.06 312.068H157.578V330.052H155.06V312.068ZM161.874 316.947C162.428 316.808 163.163 316.661 164.08 316.506C164.997 316.35 166.052 316.272 167.246 316.272C168.319 316.272 169.21 316.428 169.919 316.739C170.628 317.033 171.191 317.457 171.606 318.011C172.038 318.547 172.341 319.196 172.514 319.957C172.687 320.718 172.774 321.557 172.774 322.474V330.052H170.36V322.993C170.36 322.163 170.3 321.454 170.179 320.865C170.075 320.277 169.893 319.801 169.634 319.438C169.374 319.075 169.028 318.815 168.596 318.659C168.163 318.486 167.627 318.4 166.987 318.4C166.727 318.4 166.459 318.409 166.182 318.426C165.905 318.443 165.637 318.469 165.378 318.504C165.135 318.521 164.91 318.547 164.703 318.582C164.513 318.616 164.374 318.642 164.288 318.659V330.052H161.874V316.947ZM179.189 330.052H176.776V316.557H179.189V330.052ZM177.97 314.118C177.537 314.118 177.165 313.98 176.854 313.703C176.56 313.409 176.413 313.019 176.413 312.535C176.413 312.05 176.56 311.67 176.854 311.393C177.165 311.099 177.537 310.952 177.97 310.952C178.402 310.952 178.766 311.099 179.06 311.393C179.371 311.67 179.527 312.05 179.527 312.535C179.527 313.019 179.371 313.409 179.06 313.703C178.766 313.98 178.402 314.118 177.97 314.118ZM185.598 316.557H190.71V318.582H185.598V324.81C185.598 325.485 185.65 326.047 185.753 326.497C185.857 326.929 186.013 327.275 186.221 327.535C186.428 327.777 186.688 327.95 186.999 328.054C187.311 328.158 187.674 328.21 188.089 328.21C188.816 328.21 189.395 328.132 189.828 327.976C190.278 327.803 190.589 327.682 190.762 327.613L191.229 329.611C190.987 329.732 190.563 329.879 189.958 330.052C189.352 330.243 188.66 330.338 187.881 330.338C186.964 330.338 186.203 330.225 185.598 330C185.009 329.758 184.534 329.403 184.17 328.936C183.807 328.469 183.548 327.898 183.392 327.224C183.253 326.531 183.184 325.736 183.184 324.836V312.794L185.598 312.379V316.557ZM196.195 330.052H193.781V316.557H196.195V330.052ZM194.975 314.118C194.543 314.118 194.171 313.98 193.859 313.703C193.565 313.409 193.418 313.019 193.418 312.535C193.418 312.05 193.565 311.67 193.859 311.393C194.171 311.099 194.543 310.952 194.975 310.952C195.408 310.952 195.771 311.099 196.065 311.393C196.377 311.67 196.532 312.05 196.532 312.535C196.532 313.019 196.377 313.409 196.065 313.703C195.771 313.98 195.408 314.118 194.975 314.118ZM204.913 328.313C205.484 328.313 205.985 328.305 206.418 328.288C206.868 328.253 207.24 328.201 207.534 328.132V324.109C207.361 324.023 207.075 323.954 206.678 323.902C206.297 323.833 205.83 323.798 205.276 323.798C204.913 323.798 204.524 323.824 204.108 323.876C203.71 323.928 203.338 324.04 202.992 324.213C202.664 324.369 202.387 324.594 202.162 324.888C201.937 325.165 201.825 325.537 201.825 326.004C201.825 326.869 202.101 327.474 202.655 327.82C203.209 328.149 203.961 328.313 204.913 328.313ZM204.705 316.22C205.674 316.22 206.487 316.35 207.145 316.609C207.819 316.852 208.356 317.206 208.754 317.673C209.169 318.123 209.463 318.668 209.636 319.308C209.809 319.931 209.896 320.623 209.896 321.384V329.819C209.688 329.853 209.394 329.905 209.013 329.974C208.65 330.026 208.235 330.078 207.767 330.13C207.3 330.182 206.79 330.225 206.236 330.26C205.7 330.312 205.164 330.338 204.627 330.338C203.866 330.338 203.165 330.26 202.525 330.104C201.885 329.948 201.331 329.706 200.864 329.378C200.397 329.031 200.034 328.582 199.774 328.028C199.515 327.474 199.385 326.808 199.385 326.03C199.385 325.286 199.532 324.646 199.826 324.109C200.138 323.573 200.553 323.14 201.072 322.812C201.591 322.483 202.197 322.241 202.889 322.085C203.581 321.929 204.307 321.852 205.069 321.852C205.311 321.852 205.562 321.869 205.821 321.903C206.081 321.921 206.323 321.955 206.548 322.007C206.79 322.042 206.998 322.076 207.171 322.111C207.344 322.146 207.465 322.172 207.534 322.189V321.514C207.534 321.116 207.491 320.727 207.404 320.346C207.318 319.948 207.162 319.602 206.937 319.308C206.712 318.997 206.401 318.755 206.003 318.582C205.622 318.391 205.12 318.296 204.498 318.296C203.702 318.296 203.001 318.357 202.395 318.478C201.807 318.582 201.366 318.694 201.072 318.815L200.787 316.817C201.098 316.679 201.617 316.549 202.344 316.428C203.07 316.289 203.857 316.22 204.705 316.22ZM217.952 330.312C216.465 330.277 215.409 329.957 214.786 329.352C214.164 328.746 213.852 327.803 213.852 326.523V310.329L216.266 309.914V326.134C216.266 326.531 216.3 326.86 216.369 327.12C216.439 327.379 216.551 327.587 216.707 327.743C216.862 327.898 217.07 328.019 217.33 328.106C217.589 328.175 217.909 328.236 218.29 328.288L217.952 330.312ZM234.896 330.442C233.633 330.442 232.482 330.234 231.444 329.819C230.406 329.403 229.515 328.798 228.771 328.002C228.027 327.206 227.448 326.229 227.032 325.07C226.635 323.893 226.436 322.552 226.436 321.047C226.436 319.542 226.661 318.21 227.11 317.05C227.577 315.874 228.2 314.888 228.979 314.092C229.757 313.296 230.666 312.691 231.704 312.275C232.742 311.86 233.849 311.653 235.026 311.653C235.77 311.653 236.436 311.704 237.024 311.808C237.629 311.912 238.148 312.033 238.581 312.172C239.031 312.31 239.394 312.448 239.671 312.587C239.948 312.725 240.138 312.829 240.242 312.898L239.515 314.974C239.359 314.871 239.135 314.758 238.84 314.637C238.546 314.516 238.209 314.395 237.828 314.274C237.465 314.153 237.058 314.057 236.609 313.988C236.176 313.902 235.735 313.858 235.285 313.858C234.334 313.858 233.477 314.023 232.716 314.352C231.955 314.68 231.306 315.156 230.77 315.779C230.233 316.402 229.818 317.163 229.524 318.063C229.247 318.945 229.109 319.94 229.109 321.047C229.109 322.12 229.23 323.097 229.472 323.98C229.731 324.862 230.112 325.623 230.614 326.263C231.116 326.886 231.738 327.371 232.482 327.717C233.244 328.063 234.126 328.236 235.129 328.236C236.289 328.236 237.249 328.115 238.01 327.872C238.771 327.63 239.342 327.414 239.723 327.224L240.372 329.3C240.25 329.386 240.034 329.499 239.723 329.637C239.411 329.758 239.022 329.879 238.555 330C238.088 330.121 237.543 330.225 236.92 330.312C236.297 330.398 235.622 330.442 234.896 330.442ZM254.631 323.305C254.631 324.377 254.475 325.346 254.164 326.211C253.853 327.076 253.411 327.82 252.841 328.443C252.287 329.066 251.621 329.551 250.842 329.897C250.064 330.225 249.216 330.39 248.299 330.39C247.382 330.39 246.534 330.225 245.756 329.897C244.977 329.551 244.302 329.066 243.732 328.443C243.178 327.82 242.745 327.076 242.434 326.211C242.123 325.346 241.967 324.377 241.967 323.305C241.967 322.249 242.123 321.289 242.434 320.424C242.745 319.542 243.178 318.789 243.732 318.166C244.302 317.544 244.977 317.068 245.756 316.739C246.534 316.393 247.382 316.22 248.299 316.22C249.216 316.22 250.064 316.393 250.842 316.739C251.621 317.068 252.287 317.544 252.841 318.166C253.411 318.789 253.853 319.542 254.164 320.424C254.475 321.289 254.631 322.249 254.631 323.305ZM252.114 323.305C252.114 321.782 251.768 320.58 251.076 319.698C250.401 318.798 249.475 318.348 248.299 318.348C247.123 318.348 246.188 318.798 245.496 319.698C244.821 320.58 244.484 321.782 244.484 323.305C244.484 324.827 244.821 326.038 245.496 326.938C246.188 327.82 247.123 328.262 248.299 328.262C249.475 328.262 250.401 327.82 251.076 326.938C251.768 326.038 252.114 324.827 252.114 323.305ZM258.027 316.947C258.58 316.808 259.316 316.661 260.233 316.506C261.15 316.35 262.205 316.272 263.399 316.272C264.471 316.272 265.362 316.428 266.072 316.739C266.781 317.033 267.343 317.457 267.759 318.011C268.191 318.547 268.494 319.196 268.667 319.957C268.84 320.718 268.926 321.557 268.926 322.474V330.052H266.513V322.993C266.513 322.163 266.452 321.454 266.331 320.865C266.228 320.277 266.046 319.801 265.786 319.438C265.527 319.075 265.181 318.815 264.748 318.659C264.316 318.486 263.779 318.4 263.139 318.4C262.88 318.4 262.612 318.409 262.335 318.426C262.058 318.443 261.79 318.469 261.53 318.504C261.288 318.521 261.063 318.547 260.856 318.582C260.665 318.616 260.527 318.642 260.44 318.659V330.052H258.027V316.947ZM276.069 328.313C277.055 328.313 277.782 328.184 278.249 327.924C278.733 327.665 278.975 327.249 278.975 326.679C278.975 326.09 278.742 325.623 278.275 325.277C277.808 324.931 277.038 324.542 275.965 324.109C275.446 323.902 274.944 323.694 274.46 323.486C273.993 323.262 273.586 323.002 273.24 322.708C272.894 322.414 272.617 322.059 272.41 321.644C272.202 321.229 272.098 320.718 272.098 320.113C272.098 318.919 272.539 317.976 273.422 317.284C274.304 316.575 275.507 316.22 277.029 316.22C277.41 316.22 277.79 316.246 278.171 316.298C278.552 316.333 278.906 316.384 279.235 316.454C279.564 316.506 279.849 316.566 280.091 316.635C280.351 316.704 280.55 316.765 280.688 316.817L280.247 318.893C279.988 318.755 279.581 318.616 279.027 318.478C278.474 318.322 277.808 318.244 277.029 318.244C276.354 318.244 275.766 318.383 275.264 318.659C274.763 318.919 274.512 319.334 274.512 319.905C274.512 320.199 274.564 320.459 274.667 320.684C274.789 320.909 274.962 321.116 275.186 321.307C275.429 321.48 275.723 321.644 276.069 321.8C276.415 321.955 276.83 322.12 277.315 322.293C277.955 322.535 278.526 322.777 279.027 323.019C279.529 323.244 279.953 323.512 280.299 323.824C280.662 324.135 280.939 324.516 281.129 324.966C281.32 325.398 281.415 325.935 281.415 326.575C281.415 327.82 280.948 328.763 280.013 329.403C279.097 330.044 277.782 330.364 276.069 330.364C274.875 330.364 273.941 330.26 273.266 330.052C272.591 329.862 272.133 329.715 271.891 329.611L272.332 327.535C272.609 327.639 273.05 327.794 273.655 328.002C274.261 328.21 275.065 328.313 276.069 328.313ZM295.255 329.663C294.701 329.801 293.966 329.948 293.049 330.104C292.149 330.26 291.102 330.338 289.909 330.338C288.87 330.338 287.997 330.191 287.287 329.897C286.578 329.585 286.007 329.153 285.575 328.599C285.142 328.045 284.831 327.397 284.64 326.653C284.45 325.891 284.355 325.052 284.355 324.135V316.557H286.768V323.616C286.768 325.26 287.028 326.436 287.547 327.146C288.066 327.855 288.94 328.21 290.168 328.21C290.428 328.21 290.696 328.201 290.973 328.184C291.249 328.166 291.509 328.149 291.751 328.132C291.993 328.097 292.21 328.071 292.4 328.054C292.608 328.019 292.755 327.985 292.841 327.95V316.557H295.255V329.663ZM303.461 330.312C301.973 330.277 300.918 329.957 300.295 329.352C299.672 328.746 299.361 327.803 299.361 326.523V310.329L301.774 309.914V326.134C301.774 326.531 301.809 326.86 301.878 327.12C301.947 327.379 302.06 327.587 302.215 327.743C302.371 327.898 302.579 328.019 302.838 328.106C303.098 328.175 303.418 328.236 303.798 328.288L303.461 330.312ZM308.766 316.557H313.879V318.582H308.766V324.81C308.766 325.485 308.818 326.047 308.922 326.497C309.026 326.929 309.182 327.275 309.389 327.535C309.597 327.777 309.856 327.95 310.168 328.054C310.479 328.158 310.843 328.21 311.258 328.21C311.984 328.21 312.564 328.132 312.997 327.976C313.446 327.803 313.758 327.682 313.931 327.613L314.398 329.611C314.156 329.732 313.732 329.879 313.126 330.052C312.521 330.243 311.829 330.338 311.05 330.338C310.133 330.338 309.372 330.225 308.766 330C308.178 329.758 307.702 329.403 307.339 328.936C306.976 328.469 306.716 327.898 306.561 327.224C306.422 326.531 306.353 325.736 306.353 324.836V312.794L308.766 312.379V316.557ZM321.518 328.313C322.089 328.313 322.59 328.305 323.023 328.288C323.473 328.253 323.845 328.201 324.139 328.132V324.109C323.966 324.023 323.68 323.954 323.282 323.902C322.902 323.833 322.435 323.798 321.881 323.798C321.518 323.798 321.128 323.824 320.713 323.876C320.315 323.928 319.943 324.04 319.597 324.213C319.268 324.369 318.992 324.594 318.767 324.888C318.542 325.165 318.429 325.537 318.429 326.004C318.429 326.869 318.706 327.474 319.26 327.82C319.813 328.149 320.566 328.313 321.518 328.313ZM321.31 316.22C322.279 316.22 323.092 316.35 323.749 316.609C324.424 316.852 324.96 317.206 325.358 317.673C325.774 318.123 326.068 318.668 326.241 319.308C326.414 319.931 326.5 320.623 326.5 321.384V329.819C326.293 329.853 325.999 329.905 325.618 329.974C325.255 330.026 324.839 330.078 324.372 330.13C323.905 330.182 323.395 330.225 322.841 330.26C322.305 330.312 321.768 330.338 321.232 330.338C320.471 330.338 319.77 330.26 319.13 330.104C318.49 329.948 317.936 329.706 317.469 329.378C317.002 329.031 316.639 328.582 316.379 328.028C316.12 327.474 315.99 326.808 315.99 326.03C315.99 325.286 316.137 324.646 316.431 324.109C316.742 323.573 317.158 323.14 317.677 322.812C318.196 322.483 318.801 322.241 319.493 322.085C320.185 321.929 320.912 321.852 321.673 321.852C321.916 321.852 322.166 321.869 322.426 321.903C322.685 321.921 322.928 321.955 323.153 322.007C323.395 322.042 323.602 322.076 323.775 322.111C323.948 322.146 324.069 322.172 324.139 322.189V321.514C324.139 321.116 324.095 320.727 324.009 320.346C323.922 319.948 323.767 319.602 323.542 319.308C323.317 318.997 323.005 318.755 322.608 318.582C322.227 318.391 321.725 318.296 321.102 318.296C320.307 318.296 319.606 318.357 319 318.478C318.412 318.582 317.971 318.694 317.677 318.815L317.391 316.817C317.703 316.679 318.222 316.549 318.948 316.428C319.675 316.289 320.462 316.22 321.31 316.22ZM332.767 316.557H337.879V318.582H332.767V324.81C332.767 325.485 332.818 326.047 332.922 326.497C333.026 326.929 333.182 327.275 333.389 327.535C333.597 327.777 333.857 327.95 334.168 328.054C334.479 328.158 334.843 328.21 335.258 328.21C335.985 328.21 336.564 328.132 336.997 327.976C337.447 327.803 337.758 327.682 337.931 327.613L338.398 329.611C338.156 329.732 337.732 329.879 337.126 330.052C336.521 330.243 335.829 330.338 335.05 330.338C334.133 330.338 333.372 330.225 332.767 330C332.178 329.758 331.703 329.403 331.339 328.936C330.976 328.469 330.716 327.898 330.561 327.224C330.422 326.531 330.353 325.736 330.353 324.836V312.794L332.767 312.379V316.557ZM343.364 330.052H340.95V316.557H343.364V330.052ZM342.144 314.118C341.712 314.118 341.34 313.98 341.028 313.703C340.734 313.409 340.587 313.019 340.587 312.535C340.587 312.05 340.734 311.67 341.028 311.393C341.34 311.099 341.712 310.952 342.144 310.952C342.577 310.952 342.94 311.099 343.234 311.393C343.545 311.67 343.701 312.05 343.701 312.535C343.701 313.019 343.545 313.409 343.234 313.703C342.94 313.98 342.577 314.118 342.144 314.118ZM359.426 323.305C359.426 324.377 359.27 325.346 358.959 326.211C358.647 327.076 358.206 327.82 357.635 328.443C357.082 329.066 356.416 329.551 355.637 329.897C354.858 330.225 354.011 330.39 353.094 330.39C352.177 330.39 351.329 330.225 350.551 329.897C349.772 329.551 349.097 329.066 348.526 328.443C347.973 327.82 347.54 327.076 347.229 326.211C346.917 325.346 346.762 324.377 346.762 323.305C346.762 322.249 346.917 321.289 347.229 320.424C347.54 319.542 347.973 318.789 348.526 318.166C349.097 317.544 349.772 317.068 350.551 316.739C351.329 316.393 352.177 316.22 353.094 316.22C354.011 316.22 354.858 316.393 355.637 316.739C356.416 317.068 357.082 317.544 357.635 318.166C358.206 318.789 358.647 319.542 358.959 320.424C359.27 321.289 359.426 322.249 359.426 323.305ZM356.909 323.305C356.909 321.782 356.563 320.58 355.871 319.698C355.196 318.798 354.27 318.348 353.094 318.348C351.917 318.348 350.983 318.798 350.291 319.698C349.616 320.58 349.279 321.782 349.279 323.305C349.279 324.827 349.616 326.038 350.291 326.938C350.983 327.82 351.917 328.262 353.094 328.262C354.27 328.262 355.196 327.82 355.871 326.938C356.563 326.038 356.909 324.827 356.909 323.305ZM362.822 316.947C363.375 316.808 364.111 316.661 365.027 316.506C365.944 316.35 367 316.272 368.194 316.272C369.266 316.272 370.157 316.428 370.867 316.739C371.576 317.033 372.138 317.457 372.553 318.011C372.986 318.547 373.289 319.196 373.462 319.957C373.635 320.718 373.721 321.557 373.721 322.474V330.052H371.308V322.993C371.308 322.163 371.247 321.454 371.126 320.865C371.022 320.277 370.841 319.801 370.581 319.438C370.322 319.075 369.976 318.815 369.543 318.659C369.111 318.486 368.574 318.4 367.934 318.4C367.675 318.4 367.406 318.409 367.13 318.426C366.853 318.443 366.585 318.469 366.325 318.504C366.083 318.521 365.858 318.547 365.65 318.582C365.46 318.616 365.322 318.642 365.235 318.659V330.052H362.822V316.947Z" fill="#23232A"/>
<rect x="522.636" y="195.492" width="363.491" height="212.687" rx="16.8087" fill="url(#paint3_linear_111_577)"/>
<rect x="522.636" y="195.492" width="363.491" height="212.687" rx="16.8087" stroke="#C8C8C8" stroke-width="0.984662"/>
<g clip-path="url(#clip1_111_577)">
<path d="M697.967 277.453L704.382 275.374L710.797 277.453" stroke="url(#paint4_linear_111_577)" stroke-width="3" stroke-linecap="round" stroke-linejoin="round"/>
<path d="M693.178 276.176L689.988 282.559C689.869 282.796 689.85 283.07 689.933 283.322C690.017 283.573 690.197 283.781 690.434 283.9L693.882 285.624L697.967 277.453L694.52 275.73C694.403 275.671 694.275 275.636 694.144 275.627C694.013 275.617 693.881 275.634 693.757 275.675C693.632 275.717 693.517 275.782 693.417 275.868C693.318 275.954 693.237 276.059 693.178 276.176Z" stroke="url(#paint5_linear_111_577)" stroke-width="3" stroke-linecap="round" stroke-linejoin="round"/>
<path d="M714.882 285.624L718.329 283.9C718.566 283.781 718.746 283.573 718.83 283.322C718.914 283.07 718.894 282.796 718.776 282.559L715.586 276.176C715.527 276.059 715.445 275.954 715.346 275.868C715.247 275.782 715.132 275.717 715.007 275.675C714.882 275.634 714.751 275.617 714.62 275.627C714.488 275.636 714.361 275.671 714.243 275.73L710.797 277.453L714.882 285.624Z" stroke="url(#paint6_linear_111_577)" stroke-width="3" stroke-linecap="round" stroke-linejoin="round"/>
<path d="M710.552 277.374H706.382L700.674 282.91C700.568 283.016 700.487 283.145 700.438 283.286C700.388 283.428 700.371 283.579 700.387 283.728C700.404 283.877 700.454 284.021 700.533 284.148C700.613 284.275 700.72 284.383 700.847 284.463C703.036 285.862 706.007 285.765 708.382 283.374L712.882 287.624L714.882 285.624" stroke="url(#paint7_linear_111_577)" stroke-width="3" stroke-linecap="round" stroke-linejoin="round"/>
<path d="M712.882 287.624L708.132 292.374L700.382 290.374L693.882 285.624" stroke="url(#paint8_linear_111_577)" stroke-width="3" stroke-linecap="round" stroke-linejoin="round"/>
<path d="M701.748 295.374L698.423 294.515L695.382 292.294" stroke="url(#paint9_linear_111_577)" stroke-width="3" stroke-linecap="round" stroke-linejoin="round"/>
</g>
<path d="M610.457 321.292C610.457 319.752 610.682 318.394 611.132 317.218C611.599 316.041 612.221 315.064 613 314.285C613.796 313.489 614.713 312.892 615.751 312.495C616.806 312.097 617.922 311.898 619.099 311.898C620.258 311.898 621.348 312.097 622.369 312.495C623.407 312.892 624.315 313.489 625.093 314.285C625.872 315.064 626.486 316.041 626.936 317.218C627.403 318.394 627.637 319.752 627.637 321.292C627.637 322.832 627.403 324.19 626.936 325.367C626.486 326.543 625.872 327.529 625.093 328.325C624.315 329.104 623.407 329.692 622.369 330.09C621.348 330.488 620.258 330.687 619.099 330.687C617.922 330.687 616.806 330.488 615.751 330.09C614.713 329.692 613.796 329.104 613 328.325C612.221 327.529 611.599 326.543 611.132 325.367C610.682 324.19 610.457 322.832 610.457 321.292ZM613.104 321.292C613.104 322.382 613.242 323.377 613.519 324.277C613.796 325.159 614.185 325.912 614.687 326.534C615.206 327.157 615.829 327.642 616.555 327.988C617.299 328.316 618.13 328.481 619.047 328.481C619.964 328.481 620.786 328.316 621.512 327.988C622.239 327.642 622.853 327.157 623.355 326.534C623.874 325.912 624.272 325.159 624.548 324.277C624.825 323.377 624.964 322.382 624.964 321.292C624.964 320.202 624.825 319.216 624.548 318.334C624.272 317.434 623.874 316.673 623.355 316.05C622.853 315.427 622.239 314.951 621.512 314.623C620.786 314.277 619.964 314.104 619.047 314.104C618.13 314.104 617.299 314.277 616.555 314.623C615.829 314.951 615.206 315.427 614.687 316.05C614.185 316.673 613.796 317.434 613.519 318.334C613.242 319.216 613.104 320.202 613.104 321.292ZM631.226 317.192C631.78 317.053 632.515 316.906 633.432 316.751C634.349 316.595 635.405 316.517 636.598 316.517C637.671 316.517 638.562 316.673 639.271 316.984C639.981 317.278 640.543 317.702 640.958 318.256C641.391 318.792 641.694 319.441 641.867 320.202C642.04 320.963 642.126 321.803 642.126 322.719V330.297H639.713V323.239C639.713 322.408 639.652 321.699 639.531 321.11C639.427 320.522 639.245 320.046 638.986 319.683C638.726 319.32 638.38 319.06 637.948 318.905C637.515 318.732 636.979 318.645 636.339 318.645C636.079 318.645 635.811 318.654 635.534 318.671C635.258 318.688 634.989 318.714 634.73 318.749C634.488 318.766 634.263 318.792 634.055 318.827C633.865 318.861 633.726 318.887 633.64 318.905V330.297H631.226V317.192ZM648.542 317.399C648.836 317.209 649.277 317.01 649.865 316.803C650.471 316.595 651.163 316.491 651.941 316.491C652.91 316.491 653.767 316.664 654.511 317.01C655.272 317.356 655.912 317.841 656.431 318.463C656.95 319.086 657.339 319.83 657.599 320.695C657.876 321.56 658.014 322.512 658.014 323.55C658.014 324.64 657.85 325.626 657.521 326.508C657.21 327.373 656.76 328.109 656.172 328.714C655.583 329.32 654.874 329.787 654.043 330.116C653.213 330.444 652.279 330.609 651.241 330.609C650.116 330.609 649.121 330.531 648.256 330.375C647.391 330.22 646.682 330.064 646.128 329.908V310.574L648.542 310.159V317.399ZM648.542 328.195C648.784 328.264 649.121 328.334 649.554 328.403C650.004 328.455 650.557 328.481 651.215 328.481C652.512 328.481 653.55 328.057 654.329 327.209C655.108 326.344 655.497 325.124 655.497 323.55C655.497 322.858 655.428 322.209 655.289 321.604C655.151 320.998 654.926 320.479 654.614 320.046C654.303 319.597 653.896 319.251 653.395 319.008C652.91 318.749 652.322 318.619 651.63 318.619C650.973 318.619 650.367 318.732 649.813 318.957C649.26 319.181 648.836 319.415 648.542 319.657V328.195ZM673.322 323.55C673.322 324.623 673.166 325.591 672.855 326.457C672.544 327.322 672.102 328.066 671.531 328.688C670.978 329.311 670.312 329.796 669.533 330.142C668.755 330.47 667.907 330.635 666.99 330.635C666.073 330.635 665.225 330.47 664.447 330.142C663.668 329.796 662.993 329.311 662.422 328.688C661.869 328.066 661.436 327.322 661.125 326.457C660.813 325.591 660.658 324.623 660.658 323.55C660.658 322.495 660.813 321.534 661.125 320.669C661.436 319.787 661.869 319.034 662.422 318.412C662.993 317.789 663.668 317.313 664.447 316.984C665.225 316.638 666.073 316.465 666.99 316.465C667.907 316.465 668.755 316.638 669.533 316.984C670.312 317.313 670.978 317.789 671.531 318.412C672.102 319.034 672.544 319.787 672.855 320.669C673.166 321.534 673.322 322.495 673.322 323.55ZM670.805 323.55C670.805 322.027 670.459 320.825 669.767 319.943C669.092 319.043 668.166 318.593 666.99 318.593C665.813 318.593 664.879 319.043 664.187 319.943C663.512 320.825 663.175 322.027 663.175 323.55C663.175 325.072 663.512 326.284 664.187 327.183C664.879 328.066 665.813 328.507 666.99 328.507C668.166 328.507 669.092 328.066 669.767 327.183C670.459 326.284 670.805 325.072 670.805 323.55ZM681.285 328.559C681.856 328.559 682.358 328.55 682.79 328.533C683.24 328.498 683.612 328.446 683.906 328.377V324.354C683.733 324.268 683.448 324.199 683.05 324.147C682.669 324.078 682.202 324.043 681.648 324.043C681.285 324.043 680.896 324.069 680.481 324.121C680.083 324.173 679.711 324.285 679.365 324.458C679.036 324.614 678.759 324.839 678.534 325.133C678.309 325.41 678.197 325.782 678.197 326.249C678.197 327.114 678.474 327.72 679.027 328.066C679.581 328.394 680.334 328.559 681.285 328.559ZM681.078 316.465C682.046 316.465 682.86 316.595 683.517 316.854C684.192 317.097 684.728 317.451 685.126 317.918C685.541 318.368 685.835 318.913 686.008 319.553C686.181 320.176 686.268 320.868 686.268 321.63V330.064C686.06 330.098 685.766 330.15 685.386 330.22C685.022 330.271 684.607 330.323 684.14 330.375C683.673 330.427 683.162 330.47 682.609 330.505C682.072 330.557 681.536 330.583 681 330.583C680.238 330.583 679.538 330.505 678.898 330.349C678.257 330.194 677.704 329.951 677.237 329.623C676.77 329.277 676.406 328.827 676.147 328.273C675.887 327.72 675.757 327.053 675.757 326.275C675.757 325.531 675.905 324.891 676.199 324.354C676.51 323.818 676.925 323.386 677.444 323.057C677.963 322.728 678.569 322.486 679.261 322.33C679.953 322.175 680.68 322.097 681.441 322.097C681.683 322.097 681.934 322.114 682.193 322.149C682.453 322.166 682.695 322.2 682.92 322.252C683.162 322.287 683.37 322.322 683.543 322.356C683.716 322.391 683.837 322.417 683.906 322.434V321.759C683.906 321.361 683.863 320.972 683.777 320.591C683.69 320.194 683.534 319.848 683.309 319.553C683.084 319.242 682.773 319 682.375 318.827C681.995 318.636 681.493 318.541 680.87 318.541C680.074 318.541 679.373 318.602 678.768 318.723C678.18 318.827 677.738 318.939 677.444 319.06L677.159 317.062C677.47 316.924 677.989 316.794 678.716 316.673C679.443 316.534 680.23 316.465 681.078 316.465ZM695.259 316.517C695.467 316.517 695.7 316.534 695.96 316.569C696.237 316.586 696.505 316.621 696.764 316.673C697.024 316.707 697.257 316.751 697.465 316.803C697.69 316.837 697.854 316.872 697.958 316.906L697.543 319.008C697.353 318.939 697.032 318.861 696.583 318.775C696.15 318.671 695.588 318.619 694.896 318.619C694.446 318.619 693.996 318.671 693.546 318.775C693.114 318.861 692.828 318.922 692.69 318.957V330.297H690.276V317.373C690.847 317.166 691.557 316.976 692.404 316.803C693.252 316.612 694.204 316.517 695.259 316.517ZM709.007 319.657C708.713 319.415 708.289 319.181 707.735 318.957C707.181 318.732 706.576 318.619 705.919 318.619C705.226 318.619 704.63 318.749 704.128 319.008C703.643 319.251 703.245 319.597 702.934 320.046C702.623 320.479 702.398 320.998 702.259 321.604C702.121 322.209 702.052 322.858 702.052 323.55C702.052 325.124 702.441 326.344 703.22 327.209C703.998 328.057 705.036 328.481 706.334 328.481C706.991 328.481 707.536 328.455 707.969 328.403C708.419 328.334 708.765 328.264 709.007 328.195V319.657ZM709.007 310.574L711.42 310.159V329.908C710.867 330.064 710.157 330.22 709.292 330.375C708.427 330.531 707.432 330.609 706.308 330.609C705.27 330.609 704.335 330.444 703.505 330.116C702.675 329.787 701.965 329.32 701.377 328.714C700.789 328.109 700.33 327.373 700.002 326.508C699.69 325.626 699.534 324.64 699.534 323.55C699.534 322.512 699.664 321.56 699.924 320.695C700.2 319.83 700.598 319.086 701.117 318.463C701.636 317.841 702.268 317.356 703.012 317.01C703.773 316.664 704.638 316.491 705.607 316.491C706.386 316.491 707.069 316.595 707.657 316.803C708.263 317.01 708.713 317.209 709.007 317.399V310.574ZM717.983 330.297H715.569V316.803H717.983V330.297ZM716.763 314.363C716.33 314.363 715.958 314.225 715.647 313.948C715.353 313.654 715.206 313.264 715.206 312.78C715.206 312.296 715.353 311.915 715.647 311.638C715.958 311.344 716.33 311.197 716.763 311.197C717.195 311.197 717.559 311.344 717.853 311.638C718.164 311.915 718.32 312.296 718.32 312.78C718.32 313.264 718.164 313.654 717.853 313.948C717.559 314.225 717.195 314.363 716.763 314.363ZM722.133 317.192C722.687 317.053 723.422 316.906 724.339 316.751C725.256 316.595 726.311 316.517 727.505 316.517C728.578 316.517 729.469 316.673 730.178 316.984C730.887 317.278 731.45 317.702 731.865 318.256C732.297 318.792 732.6 319.441 732.773 320.202C732.946 320.963 733.033 321.803 733.033 322.719V330.297H730.619V323.239C730.619 322.408 730.559 321.699 730.437 321.11C730.334 320.522 730.152 320.046 729.893 319.683C729.633 319.32 729.287 319.06 728.854 318.905C728.422 318.732 727.886 318.645 727.245 318.645C726.986 318.645 726.718 318.654 726.441 318.671C726.164 318.688 725.896 318.714 725.636 318.749C725.394 318.766 725.169 318.792 724.962 318.827C724.771 318.861 724.633 318.887 724.546 318.905V330.297H722.133V317.192ZM745.495 328.948C745.287 329.086 744.881 329.268 744.275 329.493C743.687 329.7 742.995 329.804 742.199 329.804C741.386 329.804 740.616 329.675 739.89 329.415C739.18 329.155 738.557 328.758 738.021 328.221C737.485 327.668 737.061 326.984 736.749 326.171C736.438 325.358 736.282 324.389 736.282 323.264C736.282 322.278 736.429 321.379 736.723 320.566C737.018 319.735 737.441 319.026 737.995 318.437C738.566 317.832 739.258 317.365 740.071 317.036C740.884 316.69 741.801 316.517 742.822 316.517C743.947 316.517 744.924 316.604 745.755 316.777C746.602 316.932 747.312 317.079 747.883 317.218V329.259C747.883 331.335 747.346 332.841 746.274 333.775C745.201 334.709 743.575 335.176 741.395 335.176C740.547 335.176 739.742 335.107 738.981 334.969C738.237 334.83 737.589 334.666 737.035 334.476L737.476 332.373C737.96 332.564 738.549 332.728 739.241 332.867C739.95 333.022 740.685 333.1 741.447 333.1C742.883 333.1 743.912 332.815 744.535 332.244C745.175 331.673 745.495 330.764 745.495 329.519V328.948ZM745.469 318.931C745.227 318.861 744.898 318.801 744.483 318.749C744.085 318.68 743.54 318.645 742.848 318.645C741.55 318.645 740.547 319.069 739.838 319.917C739.146 320.764 738.8 321.889 738.8 323.29C738.8 324.069 738.895 324.735 739.085 325.289C739.293 325.842 739.561 326.301 739.89 326.664C740.236 327.027 740.625 327.296 741.057 327.469C741.507 327.642 741.966 327.728 742.433 327.728C743.073 327.728 743.661 327.642 744.198 327.469C744.734 327.278 745.158 327.062 745.469 326.82V318.931ZM765.934 330.687C764.671 330.687 763.52 330.479 762.482 330.064C761.444 329.649 760.553 329.043 759.809 328.247C759.065 327.451 758.486 326.474 758.07 325.315C757.673 324.138 757.474 322.797 757.474 321.292C757.474 319.787 757.698 318.455 758.148 317.296C758.615 316.119 759.238 315.133 760.017 314.337C760.795 313.541 761.704 312.936 762.742 312.521C763.78 312.105 764.887 311.898 766.064 311.898C766.808 311.898 767.474 311.95 768.062 312.053C768.667 312.157 769.186 312.278 769.619 312.417C770.069 312.555 770.432 312.694 770.709 312.832C770.986 312.97 771.176 313.074 771.28 313.143L770.553 315.219C770.397 315.116 770.173 315.003 769.878 314.882C769.584 314.761 769.247 314.64 768.866 314.519C768.503 314.398 768.096 314.303 767.647 314.233C767.214 314.147 766.773 314.104 766.323 314.104C765.372 314.104 764.515 314.268 763.754 314.597C762.993 314.925 762.344 315.401 761.807 316.024C761.271 316.647 760.856 317.408 760.562 318.308C760.285 319.19 760.147 320.185 760.147 321.292C760.147 322.365 760.268 323.342 760.51 324.225C760.769 325.107 761.15 325.868 761.652 326.508C762.154 327.131 762.776 327.616 763.52 327.962C764.282 328.308 765.164 328.481 766.167 328.481C767.327 328.481 768.287 328.36 769.048 328.117C769.809 327.875 770.38 327.659 770.761 327.469L771.41 329.545C771.288 329.631 771.072 329.744 770.761 329.882C770.449 330.003 770.06 330.124 769.593 330.245C769.126 330.367 768.581 330.47 767.958 330.557C767.335 330.643 766.66 330.687 765.934 330.687ZM778.705 328.559C779.276 328.559 779.778 328.55 780.21 328.533C780.66 328.498 781.032 328.446 781.326 328.377V324.354C781.153 324.268 780.868 324.199 780.47 324.147C780.089 324.078 779.622 324.043 779.068 324.043C778.705 324.043 778.316 324.069 777.901 324.121C777.503 324.173 777.131 324.285 776.785 324.458C776.456 324.614 776.179 324.839 775.954 325.133C775.729 325.41 775.617 325.782 775.617 326.249C775.617 327.114 775.894 327.72 776.447 328.066C777.001 328.394 777.753 328.559 778.705 328.559ZM778.497 316.465C779.466 316.465 780.279 316.595 780.937 316.854C781.612 317.097 782.148 317.451 782.546 317.918C782.961 318.368 783.255 318.913 783.428 319.553C783.601 320.176 783.688 320.868 783.688 321.63V330.064C783.48 330.098 783.186 330.15 782.805 330.22C782.442 330.271 782.027 330.323 781.56 330.375C781.093 330.427 780.582 330.47 780.029 330.505C779.492 330.557 778.956 330.583 778.42 330.583C777.658 330.583 776.958 330.505 776.317 330.349C775.677 330.194 775.124 329.951 774.657 329.623C774.189 329.277 773.826 328.827 773.567 328.273C773.307 327.72 773.177 327.053 773.177 326.275C773.177 325.531 773.324 324.891 773.619 324.354C773.93 323.818 774.345 323.386 774.864 323.057C775.383 322.728 775.989 322.486 776.681 322.33C777.373 322.175 778.1 322.097 778.861 322.097C779.103 322.097 779.354 322.114 779.613 322.149C779.873 322.166 780.115 322.2 780.34 322.252C780.582 322.287 780.79 322.322 780.963 322.356C781.136 322.391 781.257 322.417 781.326 322.434V321.759C781.326 321.361 781.283 320.972 781.196 320.591C781.11 320.194 780.954 319.848 780.729 319.553C780.504 319.242 780.193 319 779.795 318.827C779.414 318.636 778.913 318.541 778.29 318.541C777.494 318.541 776.793 318.602 776.188 318.723C775.599 318.827 775.158 318.939 774.864 319.06L774.579 317.062C774.89 316.924 775.409 316.794 776.136 316.673C776.862 316.534 777.65 316.465 778.497 316.465ZM791.745 330.557C790.257 330.522 789.201 330.202 788.579 329.597C787.956 328.991 787.644 328.048 787.644 326.768V310.574L790.058 310.159V326.379C790.058 326.777 790.092 327.105 790.162 327.365C790.231 327.624 790.343 327.832 790.499 327.988C790.655 328.143 790.862 328.264 791.122 328.351C791.381 328.42 791.701 328.481 792.082 328.533L791.745 330.557ZM798.841 330.557C797.353 330.522 796.298 330.202 795.675 329.597C795.052 328.991 794.74 328.048 794.74 326.768V310.574L797.154 310.159V326.379C797.154 326.777 797.189 327.105 797.258 327.365C797.327 327.624 797.439 327.832 797.595 327.988C797.751 328.143 797.958 328.264 798.218 328.351C798.478 328.42 798.798 328.481 799.178 328.533L798.841 330.557Z" fill="#23232A"/>
<rect x="961.796" y="195.492" width="363.491" height="212.687" rx="16.8087" fill="url(#paint10_linear_111_577)"/>
<rect x="961.796" y="195.492" width="363.491" height="212.687" rx="16.8087" stroke="#C8C8C8" stroke-width="0.984662"/>
<g clip-path="url(#clip2_111_577)">
<path d="M1152.54 296.374H1134.54C1134.28 296.374 1134.02 296.269 1133.83 296.081C1133.65 295.894 1133.54 295.639 1133.54 295.374V273.374C1133.54 273.109 1133.65 272.854 1133.83 272.667C1134.02 272.479 1134.28 272.374 1134.54 272.374H1146.54L1153.54 279.374V295.374C1153.54 295.639 1153.44 295.894 1153.25 296.081C1153.06 296.269 1152.81 296.374 1152.54 296.374Z" stroke="url(#paint11_linear_111_577)" stroke-width="3" stroke-linecap="round" stroke-linejoin="round"/>
<path d="M1146.04 272.374V279.874H1153.54" stroke="url(#paint12_linear_111_577)" stroke-width="3" stroke-linecap="round" stroke-linejoin="round"/>
<path d="M1139.54 284.874H1147.54" stroke="url(#paint13_linear_111_577)" stroke-width="3" stroke-linecap="round" stroke-linejoin="round"/>
<path d="M1139.54 289.874H1147.54" stroke="url(#paint14_linear_111_577)" stroke-width="3" stroke-linecap="round" stroke-linejoin="round"/>
</g>
<path d="M1045.72 330.297V312.313H1056.57V314.467H1048.24V319.891H1055.63V322.019H1048.24V330.297H1045.72ZM1071.06 323.55C1071.06 324.623 1070.9 325.591 1070.59 326.457C1070.28 327.322 1069.84 328.066 1069.27 328.688C1068.71 329.311 1068.05 329.796 1067.27 330.142C1066.49 330.47 1065.64 330.635 1064.73 330.635C1063.81 330.635 1062.96 330.47 1062.18 330.142C1061.4 329.796 1060.73 329.311 1060.16 328.688C1059.6 328.066 1059.17 327.322 1058.86 326.457C1058.55 325.591 1058.39 324.623 1058.39 323.55C1058.39 322.495 1058.55 321.534 1058.86 320.669C1059.17 319.787 1059.6 319.034 1060.16 318.412C1060.73 317.789 1061.4 317.313 1062.18 316.984C1062.96 316.638 1063.81 316.465 1064.73 316.465C1065.64 316.465 1066.49 316.638 1067.27 316.984C1068.05 317.313 1068.71 317.789 1069.27 318.412C1069.84 319.034 1070.28 319.787 1070.59 320.669C1070.9 321.534 1071.06 322.495 1071.06 323.55ZM1068.54 323.55C1068.54 322.027 1068.19 320.825 1067.5 319.943C1066.83 319.043 1065.9 318.593 1064.73 318.593C1063.55 318.593 1062.62 319.043 1061.92 319.943C1061.25 320.825 1060.91 322.027 1060.91 323.55C1060.91 325.072 1061.25 326.284 1061.92 327.183C1062.62 328.066 1063.55 328.507 1064.73 328.507C1065.9 328.507 1066.83 328.066 1067.5 327.183C1068.19 326.284 1068.54 325.072 1068.54 323.55ZM1079.44 316.517C1079.64 316.517 1079.88 316.534 1080.14 316.569C1080.41 316.586 1080.68 316.621 1080.94 316.673C1081.2 316.707 1081.43 316.751 1081.64 316.803C1081.87 316.837 1082.03 316.872 1082.14 316.906L1081.72 319.008C1081.53 318.939 1081.21 318.861 1080.76 318.775C1080.33 318.671 1079.77 318.619 1079.07 318.619C1078.62 318.619 1078.17 318.671 1077.72 318.775C1077.29 318.861 1077.01 318.922 1076.87 318.957V330.297H1074.45V317.373C1075.02 317.166 1075.73 316.976 1076.58 316.803C1077.43 316.612 1078.38 316.517 1079.44 316.517ZM1084.46 317.192C1085.02 317.053 1085.74 316.906 1086.64 316.751C1087.56 316.595 1088.62 316.517 1089.81 316.517C1090.68 316.517 1091.4 316.638 1091.99 316.88C1092.58 317.105 1093.07 317.443 1093.47 317.892C1093.59 317.806 1093.78 317.685 1094.04 317.529C1094.3 317.373 1094.62 317.226 1095 317.088C1095.38 316.932 1095.81 316.803 1096.27 316.699C1096.74 316.578 1097.24 316.517 1097.78 316.517C1098.82 316.517 1099.66 316.673 1100.32 316.984C1100.98 317.278 1101.49 317.702 1101.85 318.256C1102.23 318.809 1102.48 319.467 1102.6 320.228C1102.74 320.989 1102.81 321.82 1102.81 322.719V330.297H1100.4V323.239C1100.4 322.443 1100.36 321.759 1100.27 321.188C1100.2 320.617 1100.05 320.142 1099.83 319.761C1099.62 319.38 1099.33 319.104 1098.95 318.931C1098.58 318.74 1098.11 318.645 1097.52 318.645C1096.7 318.645 1096.03 318.758 1095.49 318.982C1094.97 319.19 1094.62 319.38 1094.43 319.553C1094.57 320.003 1094.67 320.496 1094.74 321.033C1094.81 321.569 1094.84 322.131 1094.84 322.719V330.297H1092.43V323.239C1092.43 322.443 1092.39 321.759 1092.3 321.188C1092.22 320.617 1092.06 320.142 1091.83 319.761C1091.63 319.38 1091.33 319.104 1090.95 318.931C1090.59 318.74 1090.12 318.645 1089.55 318.645C1089.31 318.645 1089.05 318.654 1088.77 318.671C1088.5 318.688 1088.23 318.714 1087.97 318.749C1087.73 318.766 1087.5 318.792 1087.29 318.827C1087.09 318.861 1086.95 318.887 1086.88 318.905V330.297H1084.46V317.192ZM1117.16 328.507C1119.79 328.507 1121.1 327.607 1121.1 325.808C1121.1 325.254 1120.98 324.787 1120.74 324.406C1120.51 324.008 1120.2 323.671 1119.8 323.394C1119.41 323.1 1118.95 322.849 1118.43 322.642C1117.93 322.434 1117.39 322.226 1116.82 322.019C1116.16 321.794 1115.54 321.543 1114.95 321.266C1114.36 320.972 1113.85 320.635 1113.42 320.254C1112.99 319.856 1112.64 319.389 1112.38 318.853C1112.14 318.316 1112.02 317.668 1112.02 316.906C1112.02 315.332 1112.56 314.104 1113.63 313.221C1114.7 312.339 1116.18 311.898 1118.07 311.898C1119.16 311.898 1120.14 312.019 1121.02 312.261C1121.92 312.486 1122.58 312.737 1123 313.014L1122.19 315.064C1121.83 314.839 1121.28 314.623 1120.56 314.415C1119.85 314.19 1119.02 314.078 1118.07 314.078C1117.58 314.078 1117.13 314.13 1116.72 314.233C1116.3 314.337 1115.94 314.493 1115.63 314.7C1115.31 314.908 1115.06 315.176 1114.87 315.505C1114.7 315.816 1114.61 316.188 1114.61 316.621C1114.61 317.105 1114.71 317.512 1114.9 317.841C1115.09 318.169 1115.36 318.463 1115.7 318.723C1116.05 318.965 1116.45 319.19 1116.9 319.398C1117.37 319.605 1117.88 319.813 1118.43 320.021C1119.21 320.332 1119.92 320.643 1120.56 320.955C1121.21 321.266 1121.78 321.638 1122.24 322.071C1122.73 322.503 1123.1 323.022 1123.36 323.628C1123.62 324.216 1123.75 324.934 1123.75 325.782C1123.75 327.356 1123.17 328.567 1122.01 329.415C1120.87 330.263 1119.25 330.687 1117.16 330.687C1116.45 330.687 1115.79 330.635 1115.19 330.531C1114.6 330.444 1114.07 330.341 1113.6 330.22C1113.13 330.081 1112.73 329.943 1112.38 329.804C1112.05 329.649 1111.79 329.519 1111.6 329.415L1112.36 327.339C1112.75 327.564 1113.36 327.815 1114.17 328.091C1114.99 328.368 1115.98 328.507 1117.16 328.507ZM1137.38 329.908C1136.83 330.046 1136.09 330.194 1135.17 330.349C1134.27 330.505 1133.23 330.583 1132.03 330.583C1131 330.583 1130.12 330.436 1129.41 330.142C1128.7 329.83 1128.13 329.398 1127.7 328.844C1127.27 328.29 1126.96 327.642 1126.77 326.898C1126.58 326.136 1126.48 325.297 1126.48 324.38V316.803H1128.89V323.861C1128.89 325.505 1129.15 326.681 1129.67 327.391C1130.19 328.1 1131.06 328.455 1132.29 328.455C1132.55 328.455 1132.82 328.446 1133.1 328.429C1133.37 328.412 1133.63 328.394 1133.88 328.377C1134.12 328.342 1134.33 328.316 1134.52 328.299C1134.73 328.264 1134.88 328.23 1134.97 328.195V316.803H1137.38V329.908ZM1143.95 317.399C1144.25 317.209 1144.69 317.01 1145.27 316.803C1145.88 316.595 1146.57 316.491 1147.35 316.491C1148.32 316.491 1149.18 316.664 1149.92 317.01C1150.68 317.356 1151.32 317.841 1151.84 318.463C1152.36 319.086 1152.75 319.83 1153.01 320.695C1153.28 321.56 1153.42 322.512 1153.42 323.55C1153.42 324.64 1153.26 325.626 1152.93 326.508C1152.62 327.373 1152.17 328.109 1151.58 328.714C1150.99 329.32 1150.28 329.787 1149.45 330.116C1148.62 330.444 1147.69 330.609 1146.65 330.609C1145.53 330.609 1144.53 330.531 1143.67 330.375C1142.8 330.22 1142.09 330.064 1141.54 329.908V310.574L1143.95 310.159V317.399ZM1143.95 328.195C1144.19 328.264 1144.53 328.334 1144.96 328.403C1145.41 328.455 1145.97 328.481 1146.62 328.481C1147.92 328.481 1148.96 328.057 1149.74 327.209C1150.52 326.344 1150.91 325.124 1150.91 323.55C1150.91 322.858 1150.84 322.209 1150.7 321.604C1150.56 320.998 1150.34 320.479 1150.02 320.046C1149.71 319.597 1149.31 319.251 1148.8 319.008C1148.32 318.749 1147.73 318.619 1147.04 318.619C1146.38 318.619 1145.78 318.732 1145.22 318.957C1144.67 319.181 1144.25 319.415 1143.95 319.657V328.195ZM1156.82 317.192C1157.37 317.053 1158.1 316.906 1159 316.751C1159.92 316.595 1160.97 316.517 1162.17 316.517C1163.03 316.517 1163.76 316.638 1164.35 316.88C1164.93 317.105 1165.43 317.443 1165.82 317.892C1165.95 317.806 1166.14 317.685 1166.4 317.529C1166.66 317.373 1166.98 317.226 1167.36 317.088C1167.74 316.932 1168.16 316.803 1168.63 316.699C1169.09 316.578 1169.6 316.517 1170.13 316.517C1171.17 316.517 1172.02 316.673 1172.68 316.984C1173.33 317.278 1173.84 317.702 1174.21 318.256C1174.59 318.809 1174.84 319.467 1174.96 320.228C1175.1 320.989 1175.17 321.82 1175.17 322.719V330.297H1172.75V323.239C1172.75 322.443 1172.71 321.759 1172.62 321.188C1172.55 320.617 1172.41 320.142 1172.18 319.761C1171.98 319.38 1171.68 319.104 1171.3 318.931C1170.94 318.74 1170.46 318.645 1169.87 318.645C1169.06 318.645 1168.39 318.758 1167.85 318.982C1167.33 319.19 1166.98 319.38 1166.78 319.553C1166.92 320.003 1167.03 320.496 1167.1 321.033C1167.17 321.569 1167.2 322.131 1167.2 322.719V330.297H1164.79V323.239C1164.79 322.443 1164.74 321.759 1164.66 321.188C1164.57 320.617 1164.41 320.142 1164.19 319.761C1163.98 319.38 1163.69 319.104 1163.31 318.931C1162.94 318.74 1162.48 318.645 1161.91 318.645C1161.66 318.645 1161.4 318.654 1161.13 318.671C1160.85 318.688 1160.58 318.714 1160.32 318.749C1160.08 318.766 1159.86 318.792 1159.65 318.827C1159.44 318.861 1159.3 318.887 1159.23 318.905V330.297H1156.82V317.192ZM1181.59 330.297H1179.17V316.803H1181.59V330.297ZM1180.37 314.363C1179.93 314.363 1179.56 314.225 1179.25 313.948C1178.96 313.654 1178.81 313.264 1178.81 312.78C1178.81 312.296 1178.96 311.915 1179.25 311.638C1179.56 311.344 1179.93 311.197 1180.37 311.197C1180.8 311.197 1181.16 311.344 1181.46 311.638C1181.77 311.915 1181.92 312.296 1181.92 312.78C1181.92 313.264 1181.77 313.654 1181.46 313.948C1181.16 314.225 1180.8 314.363 1180.37 314.363ZM1188.88 328.559C1189.86 328.559 1190.59 328.429 1191.06 328.169C1191.54 327.91 1191.78 327.495 1191.78 326.924C1191.78 326.335 1191.55 325.868 1191.08 325.522C1190.62 325.176 1189.85 324.787 1188.77 324.354C1188.25 324.147 1187.75 323.939 1187.27 323.732C1186.8 323.507 1186.39 323.247 1186.05 322.953C1185.7 322.659 1185.42 322.304 1185.22 321.889C1185.01 321.474 1184.91 320.963 1184.91 320.358C1184.91 319.164 1185.35 318.221 1186.23 317.529C1187.11 316.82 1188.31 316.465 1189.84 316.465C1190.22 316.465 1190.6 316.491 1190.98 316.543C1191.36 316.578 1191.71 316.63 1192.04 316.699C1192.37 316.751 1192.66 316.811 1192.9 316.88C1193.16 316.95 1193.36 317.01 1193.5 317.062L1193.05 319.138C1192.8 319 1192.39 318.861 1191.83 318.723C1191.28 318.567 1190.62 318.489 1189.84 318.489C1189.16 318.489 1188.57 318.628 1188.07 318.905C1187.57 319.164 1187.32 319.579 1187.32 320.15C1187.32 320.444 1187.37 320.704 1187.48 320.929C1187.6 321.154 1187.77 321.361 1187.99 321.552C1188.24 321.725 1188.53 321.889 1188.88 322.045C1189.22 322.2 1189.64 322.365 1190.12 322.538C1190.76 322.78 1191.33 323.022 1191.83 323.264C1192.34 323.489 1192.76 323.758 1193.11 324.069C1193.47 324.38 1193.75 324.761 1193.94 325.211C1194.13 325.643 1194.22 326.18 1194.22 326.82C1194.22 328.066 1193.76 329.008 1192.82 329.649C1191.9 330.289 1190.59 330.609 1188.88 330.609C1187.68 330.609 1186.75 330.505 1186.07 330.297C1185.4 330.107 1184.94 329.96 1184.7 329.856L1185.14 327.78C1185.42 327.884 1185.86 328.04 1186.46 328.247C1187.07 328.455 1187.87 328.559 1188.88 328.559ZM1200.46 328.559C1201.44 328.559 1202.17 328.429 1202.64 328.169C1203.12 327.91 1203.36 327.495 1203.36 326.924C1203.36 326.335 1203.13 325.868 1202.66 325.522C1202.2 325.176 1201.43 324.787 1200.35 324.354C1199.84 324.147 1199.33 323.939 1198.85 323.732C1198.38 323.507 1197.98 323.247 1197.63 322.953C1197.28 322.659 1197.01 322.304 1196.8 321.889C1196.59 321.474 1196.49 320.963 1196.49 320.358C1196.49 319.164 1196.93 318.221 1197.81 317.529C1198.69 316.82 1199.9 316.465 1201.42 316.465C1201.8 316.465 1202.18 316.491 1202.56 316.543C1202.94 316.578 1203.3 316.63 1203.62 316.699C1203.95 316.751 1204.24 316.811 1204.48 316.88C1204.74 316.95 1204.94 317.01 1205.08 317.062L1204.64 319.138C1204.38 319 1203.97 318.861 1203.42 318.723C1202.86 318.567 1202.2 318.489 1201.42 318.489C1200.74 318.489 1200.16 318.628 1199.65 318.905C1199.15 319.164 1198.9 319.579 1198.9 320.15C1198.9 320.444 1198.95 320.704 1199.06 320.929C1199.18 321.154 1199.35 321.361 1199.58 321.552C1199.82 321.725 1200.11 321.889 1200.46 322.045C1200.8 322.2 1201.22 322.365 1201.7 322.538C1202.34 322.78 1202.92 323.022 1203.42 323.264C1203.92 323.489 1204.34 323.758 1204.69 324.069C1205.05 324.38 1205.33 324.761 1205.52 325.211C1205.71 325.643 1205.8 326.18 1205.8 326.82C1205.8 328.066 1205.34 329.008 1204.4 329.649C1203.49 330.289 1202.17 330.609 1200.46 330.609C1199.26 330.609 1198.33 330.505 1197.66 330.297C1196.98 330.107 1196.52 329.96 1196.28 329.856L1196.72 327.78C1197 327.884 1197.44 328.04 1198.04 328.247C1198.65 328.455 1199.45 328.559 1200.46 328.559ZM1211.31 330.297H1208.9V316.803H1211.31V330.297ZM1210.09 314.363C1209.66 314.363 1209.29 314.225 1208.98 313.948C1208.68 313.654 1208.54 313.264 1208.54 312.78C1208.54 312.296 1208.68 311.915 1208.98 311.638C1209.29 311.344 1209.66 311.197 1210.09 311.197C1210.53 311.197 1210.89 311.344 1211.18 311.638C1211.5 311.915 1211.65 312.296 1211.65 312.78C1211.65 313.264 1211.5 313.654 1211.18 313.948C1210.89 314.225 1210.53 314.363 1210.09 314.363ZM1227.38 323.55C1227.38 324.623 1227.22 325.591 1226.91 326.457C1226.6 327.322 1226.16 328.066 1225.59 328.688C1225.03 329.311 1224.37 329.796 1223.59 330.142C1222.81 330.47 1221.96 330.635 1221.04 330.635C1220.13 330.635 1219.28 330.47 1218.5 330.142C1217.72 329.796 1217.05 329.311 1216.48 328.688C1215.92 328.066 1215.49 327.322 1215.18 326.457C1214.87 325.591 1214.71 324.623 1214.71 323.55C1214.71 322.495 1214.87 321.534 1215.18 320.669C1215.49 319.787 1215.92 319.034 1216.48 318.412C1217.05 317.789 1217.72 317.313 1218.5 316.984C1219.28 316.638 1220.13 316.465 1221.04 316.465C1221.96 316.465 1222.81 316.638 1223.59 316.984C1224.37 317.313 1225.03 317.789 1225.59 318.412C1226.16 319.034 1226.6 319.787 1226.91 320.669C1227.22 321.534 1227.38 322.495 1227.38 323.55ZM1224.86 323.55C1224.86 322.027 1224.51 320.825 1223.82 319.943C1223.15 319.043 1222.22 318.593 1221.04 318.593C1219.87 318.593 1218.93 319.043 1218.24 319.943C1217.57 320.825 1217.23 322.027 1217.23 323.55C1217.23 325.072 1217.57 326.284 1218.24 327.183C1218.93 328.066 1219.87 328.507 1221.04 328.507C1222.22 328.507 1223.15 328.066 1223.82 327.183C1224.51 326.284 1224.86 325.072 1224.86 323.55ZM1230.77 317.192C1231.33 317.053 1232.06 316.906 1232.98 316.751C1233.89 316.595 1234.95 316.517 1236.14 316.517C1237.22 316.517 1238.11 316.673 1238.82 316.984C1239.53 317.278 1240.09 317.702 1240.5 318.256C1240.94 318.792 1241.24 319.441 1241.41 320.202C1241.58 320.963 1241.67 321.803 1241.67 322.719V330.297H1239.26V323.239C1239.26 322.408 1239.2 321.699 1239.08 321.11C1238.97 320.522 1238.79 320.046 1238.53 319.683C1238.27 319.32 1237.93 319.06 1237.49 318.905C1237.06 318.732 1236.52 318.645 1235.88 318.645C1235.62 318.645 1235.36 318.654 1235.08 318.671C1234.8 318.688 1234.53 318.714 1234.27 318.749C1234.03 318.766 1233.81 318.792 1233.6 318.827C1233.41 318.861 1233.27 318.887 1233.18 318.905V330.297H1230.77V317.192Z" fill="#23232A"/>
<path d="M459.125 300.359C458.038 300.359 457.156 301.24 457.156 302.328C457.156 303.416 458.038 304.297 459.125 304.297V300.359ZM510.736 303.721C511.505 302.952 511.505 301.705 510.736 300.936L498.203 288.403C497.434 287.634 496.187 287.634 495.418 288.403C494.649 289.172 494.649 290.419 495.418 291.188L506.558 302.328L495.418 313.468C494.649 314.237 494.649 315.484 495.418 316.253C496.187 317.022 497.434 317.022 498.203 316.253L510.736 303.721ZM459.125 304.297H509.343V300.359H459.125V304.297Z" fill="#838383"/>
<path d="M899.27 300.359C898.182 300.359 897.3 301.24 897.3 302.328C897.3 303.416 898.182 304.297 899.27 304.297V300.359ZM950.88 303.721C951.649 302.952 951.649 301.705 950.88 300.936L938.347 288.403C937.578 287.634 936.331 287.634 935.562 288.403C934.793 289.172 934.793 290.419 935.562 291.188L946.702 302.328L935.562 313.468C934.793 314.237 934.793 315.484 935.562 316.253C936.331 317.022 937.578 317.022 938.347 316.253L950.88 303.721ZM899.27 304.297H949.487V300.359H899.27V304.297Z" fill="#838383"/>
<rect x="1401.02" y="195.492" width="363.491" height="212.687" rx="16.8087" fill="url(#paint15_linear_111_577)"/>
<rect x="1401.02" y="195.492" width="363.491" height="212.687" rx="16.8087" stroke="#C8C8C8" stroke-width="0.984662"/>
<g clip-path="url(#clip3_111_577)">
<path d="M1593.87 294.374H1571.68C1571.44 294.373 1571.21 294.276 1571.03 294.103C1570.86 293.93 1570.76 293.696 1570.76 293.452V278.374H1593.76C1594.03 278.374 1594.28 278.479 1594.47 278.667C1594.66 278.854 1594.76 279.109 1594.76 279.374V293.485C1594.76 293.721 1594.67 293.947 1594.5 294.114C1594.34 294.28 1594.11 294.374 1593.87 294.374Z" stroke="url(#paint16_linear_111_577)" stroke-width="3" stroke-linecap="round" stroke-linejoin="round"/>
<path d="M1570.76 278.374V274.874C1570.76 274.609 1570.87 274.354 1571.06 274.167C1571.24 273.979 1571.5 273.874 1571.76 273.874H1578.31C1578.46 273.874 1578.6 273.904 1578.72 273.962C1578.85 274.02 1578.97 274.104 1579.06 274.21L1582.76 278.374" stroke="url(#paint17_linear_111_577)" stroke-width="3" stroke-linecap="round" stroke-linejoin="round"/>
</g>
<path d="M1482.61 330.297C1482.32 329.519 1482.04 328.758 1481.78 328.014C1481.52 327.252 1481.25 326.482 1480.97 325.704H1472.83L1471.19 330.297H1468.57C1469.26 328.394 1469.91 326.638 1470.52 325.029C1471.12 323.403 1471.71 321.863 1472.28 320.41C1472.87 318.957 1473.45 317.572 1474.02 316.258C1474.59 314.925 1475.19 313.61 1475.81 312.313H1478.12C1478.74 313.61 1479.34 314.925 1479.91 316.258C1480.48 317.572 1481.05 318.957 1481.62 320.41C1482.21 321.863 1482.81 323.403 1483.41 325.029C1484.02 326.638 1484.67 328.394 1485.36 330.297H1482.61ZM1480.25 323.628C1479.69 322.123 1479.14 320.669 1478.59 319.268C1478.05 317.849 1477.49 316.491 1476.9 315.194C1476.29 316.491 1475.72 317.849 1475.16 319.268C1474.63 320.669 1474.09 322.123 1473.55 323.628H1480.25ZM1496.04 319.657C1495.74 319.415 1495.32 319.181 1494.77 318.957C1494.21 318.732 1493.61 318.619 1492.95 318.619C1492.26 318.619 1491.66 318.749 1491.16 319.008C1490.67 319.251 1490.28 319.597 1489.96 320.046C1489.65 320.479 1489.43 320.998 1489.29 321.604C1489.15 322.209 1489.08 322.858 1489.08 323.55C1489.08 325.124 1489.47 326.344 1490.25 327.209C1491.03 328.057 1492.07 328.481 1493.36 328.481C1494.02 328.481 1494.57 328.455 1495 328.403C1495.45 328.334 1495.79 328.264 1496.04 328.195V319.657ZM1496.04 310.574L1498.45 310.159V329.908C1497.9 330.064 1497.19 330.22 1496.32 330.375C1495.46 330.531 1494.46 330.609 1493.34 330.609C1492.3 330.609 1491.37 330.444 1490.54 330.116C1489.7 329.787 1489 329.32 1488.41 328.714C1487.82 328.109 1487.36 327.373 1487.03 326.508C1486.72 325.626 1486.56 324.64 1486.56 323.55C1486.56 322.512 1486.69 321.56 1486.95 320.695C1487.23 319.83 1487.63 319.086 1488.15 318.463C1488.67 317.841 1489.3 317.356 1490.04 317.01C1490.8 316.664 1491.67 316.491 1492.64 316.491C1493.42 316.491 1494.1 316.595 1494.69 316.803C1495.29 317.01 1495.74 317.209 1496.04 317.399V310.574ZM1520.78 330.297C1520.48 329.519 1520.21 328.758 1519.95 328.014C1519.69 327.252 1519.42 326.482 1519.14 325.704H1510.99L1509.36 330.297H1506.74C1507.43 328.394 1508.08 326.638 1508.68 325.029C1509.29 323.403 1509.88 321.863 1510.45 320.41C1511.04 318.957 1511.62 317.572 1512.19 316.258C1512.76 314.925 1513.35 313.61 1513.98 312.313H1516.29C1516.91 313.61 1517.51 314.925 1518.08 316.258C1518.65 317.572 1519.22 318.957 1519.79 320.41C1520.38 321.863 1520.98 323.403 1521.58 325.029C1522.19 326.638 1522.84 328.394 1523.53 330.297H1520.78ZM1518.42 323.628C1517.86 322.123 1517.31 320.669 1516.75 319.268C1516.22 317.849 1515.66 316.491 1515.07 315.194C1514.46 316.491 1513.88 317.849 1513.33 319.268C1512.79 320.669 1512.26 322.123 1511.72 323.628H1518.42ZM1529.28 328.559C1530.27 328.559 1531 328.429 1531.46 328.169C1531.95 327.91 1532.19 327.495 1532.19 326.924C1532.19 326.335 1531.96 325.868 1531.49 325.522C1531.02 325.176 1530.25 324.787 1529.18 324.354C1528.66 324.147 1528.16 323.939 1527.67 323.732C1527.21 323.507 1526.8 323.247 1526.45 322.953C1526.11 322.659 1525.83 322.304 1525.62 321.889C1525.42 321.474 1525.31 320.963 1525.31 320.358C1525.31 319.164 1525.75 318.221 1526.64 317.529C1527.52 316.82 1528.72 316.465 1530.24 316.465C1530.62 316.465 1531 316.491 1531.39 316.543C1531.77 316.578 1532.12 316.63 1532.45 316.699C1532.78 316.751 1533.06 316.811 1533.31 316.88C1533.57 316.95 1533.76 317.01 1533.9 317.062L1533.46 319.138C1533.2 319 1532.8 318.861 1532.24 318.723C1531.69 318.567 1531.02 318.489 1530.24 318.489C1529.57 318.489 1528.98 318.628 1528.48 318.905C1527.98 319.164 1527.73 319.579 1527.73 320.15C1527.73 320.444 1527.78 320.704 1527.88 320.929C1528 321.154 1528.18 321.361 1528.4 321.552C1528.64 321.725 1528.94 321.889 1529.28 322.045C1529.63 322.2 1530.04 322.365 1530.53 322.538C1531.17 322.78 1531.74 323.022 1532.24 323.264C1532.74 323.489 1533.17 323.758 1533.51 324.069C1533.88 324.38 1534.15 324.761 1534.34 325.211C1534.53 325.643 1534.63 326.18 1534.63 326.82C1534.63 328.066 1534.16 329.008 1533.23 329.649C1532.31 330.289 1531 330.609 1529.28 330.609C1528.09 330.609 1527.16 330.505 1526.48 330.297C1525.81 330.107 1525.35 329.96 1525.11 329.856L1525.55 327.78C1525.82 327.884 1526.26 328.04 1526.87 328.247C1527.48 328.455 1528.28 328.559 1529.28 328.559ZM1540.87 328.559C1541.85 328.559 1542.58 328.429 1543.05 328.169C1543.53 327.91 1543.77 327.495 1543.77 326.924C1543.77 326.335 1543.54 325.868 1543.07 325.522C1542.6 325.176 1541.83 324.787 1540.76 324.354C1540.24 324.147 1539.74 323.939 1539.26 323.732C1538.79 323.507 1538.38 323.247 1538.04 322.953C1537.69 322.659 1537.41 322.304 1537.21 321.889C1537 321.474 1536.89 320.963 1536.89 320.358C1536.89 319.164 1537.34 318.221 1538.22 317.529C1539.1 316.82 1540.3 316.465 1541.83 316.465C1542.21 316.465 1542.59 316.491 1542.97 316.543C1543.35 316.578 1543.7 316.63 1544.03 316.699C1544.36 316.751 1544.65 316.811 1544.89 316.88C1545.15 316.95 1545.35 317.01 1545.48 317.062L1545.04 319.138C1544.78 319 1544.38 318.861 1543.82 318.723C1543.27 318.567 1542.6 318.489 1541.83 318.489C1541.15 318.489 1540.56 318.628 1540.06 318.905C1539.56 319.164 1539.31 319.579 1539.31 320.15C1539.31 320.444 1539.36 320.704 1539.46 320.929C1539.59 321.154 1539.76 321.361 1539.98 321.552C1540.23 321.725 1540.52 321.889 1540.87 322.045C1541.21 322.2 1541.63 322.365 1542.11 322.538C1542.75 322.78 1543.32 323.022 1543.82 323.264C1544.33 323.489 1544.75 323.758 1545.1 324.069C1545.46 324.38 1545.74 324.761 1545.93 325.211C1546.12 325.643 1546.21 326.18 1546.21 326.82C1546.21 328.066 1545.74 329.008 1544.81 329.649C1543.89 330.289 1542.58 330.609 1540.87 330.609C1539.67 330.609 1538.74 330.505 1538.06 330.297C1537.39 330.107 1536.93 329.96 1536.69 329.856L1537.13 327.78C1537.41 327.884 1537.85 328.04 1538.45 328.247C1539.06 328.455 1539.86 328.559 1540.87 328.559ZM1548.55 323.576C1548.55 322.382 1548.73 321.344 1549.07 320.462C1549.42 319.562 1549.88 318.818 1550.45 318.23C1551.02 317.642 1551.68 317.2 1552.42 316.906C1553.17 316.612 1553.93 316.465 1554.71 316.465C1556.52 316.465 1557.91 317.036 1558.88 318.178C1559.85 319.303 1560.34 321.024 1560.34 323.342C1560.34 323.446 1560.34 323.585 1560.34 323.758C1560.34 323.913 1560.33 324.06 1560.31 324.199H1551.07C1551.18 325.6 1551.58 326.664 1552.29 327.391C1553 328.117 1554.11 328.481 1555.61 328.481C1556.46 328.481 1557.17 328.412 1557.74 328.273C1558.33 328.117 1558.77 327.97 1559.06 327.832L1559.4 329.856C1559.11 330.012 1558.59 330.176 1557.85 330.349C1557.12 330.522 1556.29 330.609 1555.35 330.609C1554.18 330.609 1553.16 330.436 1552.29 330.09C1551.44 329.726 1550.74 329.233 1550.19 328.611C1549.64 327.988 1549.22 327.252 1548.94 326.405C1548.68 325.54 1548.55 324.597 1548.55 323.576ZM1557.82 322.252C1557.84 321.162 1557.56 320.271 1556.99 319.579C1556.44 318.87 1555.67 318.515 1554.68 318.515C1554.13 318.515 1553.63 318.628 1553.2 318.853C1552.78 319.06 1552.43 319.337 1552.14 319.683C1551.84 320.029 1551.61 320.427 1551.44 320.877C1551.28 321.327 1551.18 321.785 1551.12 322.252H1557.82ZM1566.06 316.803H1571.17V318.827H1566.06V325.055C1566.06 325.73 1566.11 326.292 1566.22 326.742C1566.32 327.175 1566.48 327.521 1566.68 327.78C1566.89 328.022 1567.15 328.195 1567.46 328.299C1567.77 328.403 1568.14 328.455 1568.55 328.455C1569.28 328.455 1569.86 328.377 1570.29 328.221C1570.74 328.048 1571.05 327.927 1571.23 327.858L1571.69 329.856C1571.45 329.977 1571.03 330.124 1570.42 330.297C1569.82 330.488 1569.12 330.583 1568.35 330.583C1567.43 330.583 1566.67 330.47 1566.06 330.245C1565.47 330.003 1565 329.649 1564.63 329.181C1564.27 328.714 1564.01 328.143 1563.86 327.469C1563.72 326.777 1563.65 325.981 1563.65 325.081V313.04L1566.06 312.624V316.803ZM1588.14 330.687C1586.88 330.687 1585.73 330.479 1584.69 330.064C1583.65 329.649 1582.76 329.043 1582.02 328.247C1581.27 327.451 1580.69 326.474 1580.28 325.315C1579.88 324.138 1579.68 322.797 1579.68 321.292C1579.68 319.787 1579.91 318.455 1580.36 317.296C1580.82 316.119 1581.45 315.133 1582.22 314.337C1583 313.541 1583.91 312.936 1584.95 312.521C1585.99 312.105 1587.09 311.898 1588.27 311.898C1589.01 311.898 1589.68 311.95 1590.27 312.053C1590.87 312.157 1591.39 312.278 1591.83 312.417C1592.28 312.555 1592.64 312.694 1592.92 312.832C1593.19 312.97 1593.38 313.074 1593.49 313.143L1592.76 315.219C1592.6 315.116 1592.38 315.003 1592.09 314.882C1591.79 314.761 1591.45 314.64 1591.07 314.519C1590.71 314.398 1590.3 314.303 1589.85 314.233C1589.42 314.147 1588.98 314.104 1588.53 314.104C1587.58 314.104 1586.72 314.268 1585.96 314.597C1585.2 314.925 1584.55 315.401 1584.01 316.024C1583.48 316.647 1583.06 317.408 1582.77 318.308C1582.49 319.19 1582.35 320.185 1582.35 321.292C1582.35 322.365 1582.47 323.342 1582.72 324.225C1582.98 325.107 1583.36 325.868 1583.86 326.508C1584.36 327.131 1584.98 327.616 1585.73 327.962C1586.49 328.308 1587.37 328.481 1588.37 328.481C1589.53 328.481 1590.49 328.36 1591.25 328.117C1592.02 327.875 1592.59 327.659 1592.97 327.469L1593.62 329.545C1593.5 329.631 1593.28 329.744 1592.97 329.882C1592.66 330.003 1592.27 330.124 1591.8 330.245C1591.33 330.367 1590.79 330.47 1590.16 330.557C1589.54 330.643 1588.87 330.687 1588.14 330.687ZM1607.88 323.55C1607.88 324.623 1607.72 325.591 1607.41 326.457C1607.1 327.322 1606.66 328.066 1606.09 328.688C1605.53 329.311 1604.87 329.796 1604.09 330.142C1603.31 330.47 1602.46 330.635 1601.54 330.635C1600.63 330.635 1599.78 330.47 1599 330.142C1598.22 329.796 1597.55 329.311 1596.98 328.688C1596.42 328.066 1595.99 327.322 1595.68 326.457C1595.37 325.591 1595.21 324.623 1595.21 323.55C1595.21 322.495 1595.37 321.534 1595.68 320.669C1595.99 319.787 1596.42 319.034 1596.98 318.412C1597.55 317.789 1598.22 317.313 1599 316.984C1599.78 316.638 1600.63 316.465 1601.54 316.465C1602.46 316.465 1603.31 316.638 1604.09 316.984C1604.87 317.313 1605.53 317.789 1606.09 318.412C1606.66 319.034 1607.1 319.787 1607.41 320.669C1607.72 321.534 1607.88 322.495 1607.88 323.55ZM1605.36 323.55C1605.36 322.027 1605.01 320.825 1604.32 319.943C1603.65 319.043 1602.72 318.593 1601.54 318.593C1600.37 318.593 1599.43 319.043 1598.74 319.943C1598.07 320.825 1597.73 322.027 1597.73 323.55C1597.73 325.072 1598.07 326.284 1598.74 327.183C1599.43 328.066 1600.37 328.507 1601.54 328.507C1602.72 328.507 1603.65 328.066 1604.32 327.183C1605.01 326.284 1605.36 325.072 1605.36 323.55ZM1615.32 330.557C1613.83 330.522 1612.78 330.202 1612.15 329.597C1611.53 328.991 1611.22 328.048 1611.22 326.768V310.574L1613.63 310.159V326.379C1613.63 326.777 1613.67 327.105 1613.74 327.365C1613.81 327.624 1613.92 327.832 1614.07 327.988C1614.23 328.143 1614.44 328.264 1614.7 328.351C1614.96 328.42 1615.28 328.481 1615.66 328.533L1615.32 330.557ZM1622.42 330.557C1620.93 330.522 1619.87 330.202 1619.25 329.597C1618.63 328.991 1618.32 328.048 1618.32 326.768V310.574L1620.73 310.159V326.379C1620.73 326.777 1620.76 327.105 1620.83 327.365C1620.9 327.624 1621.01 327.832 1621.17 327.988C1621.33 328.143 1621.53 328.264 1621.79 328.351C1622.05 328.42 1622.37 328.481 1622.75 328.533L1622.42 330.557ZM1624.71 323.576C1624.71 322.382 1624.88 321.344 1625.23 320.462C1625.58 319.562 1626.03 318.818 1626.61 318.23C1627.18 317.642 1627.83 317.2 1628.58 316.906C1629.32 316.612 1630.08 316.465 1630.86 316.465C1632.68 316.465 1634.07 317.036 1635.04 318.178C1636.01 319.303 1636.49 321.024 1636.49 323.342C1636.49 323.446 1636.49 323.585 1636.49 323.758C1636.49 323.913 1636.48 324.06 1636.47 324.199H1627.23C1627.33 325.6 1627.74 326.664 1628.45 327.391C1629.16 328.117 1630.26 328.481 1631.77 328.481C1632.62 328.481 1633.33 328.412 1633.9 328.273C1634.49 328.117 1634.93 327.97 1635.22 327.832L1635.56 329.856C1635.26 330.012 1634.75 330.176 1634 330.349C1633.28 330.522 1632.44 330.609 1631.51 330.609C1630.33 330.609 1629.31 330.436 1628.45 330.09C1627.6 329.726 1626.9 329.233 1626.35 328.611C1625.79 327.988 1625.38 327.252 1625.1 326.405C1624.84 325.54 1624.71 324.597 1624.71 323.576ZM1633.98 322.252C1633.99 321.162 1633.72 320.271 1633.15 319.579C1632.59 318.87 1631.82 318.515 1630.84 318.515C1630.28 318.515 1629.79 318.628 1629.36 318.853C1628.94 319.06 1628.59 319.337 1628.29 319.683C1628 320.029 1627.76 320.427 1627.59 320.877C1627.44 321.327 1627.33 321.785 1627.28 322.252H1633.98ZM1645.83 330.609C1644.74 330.609 1643.78 330.436 1642.94 330.09C1642.13 329.744 1641.44 329.259 1640.87 328.636C1640.31 328.014 1639.9 327.278 1639.62 326.431C1639.35 325.566 1639.21 324.614 1639.21 323.576C1639.21 322.538 1639.35 321.586 1639.65 320.721C1639.96 319.856 1640.39 319.112 1640.95 318.489C1641.5 317.849 1642.17 317.356 1642.97 317.01C1643.78 316.647 1644.68 316.465 1645.67 316.465C1646.28 316.465 1646.88 316.517 1647.49 316.621C1648.09 316.725 1648.67 316.889 1649.23 317.114L1648.68 319.164C1648.32 318.991 1647.89 318.853 1647.41 318.749C1646.94 318.645 1646.44 318.593 1645.9 318.593C1644.55 318.593 1643.52 319.017 1642.79 319.865C1642.08 320.713 1641.72 321.95 1641.72 323.576C1641.72 324.303 1641.8 324.969 1641.96 325.574C1642.13 326.18 1642.39 326.699 1642.74 327.131C1643.1 327.564 1643.56 327.901 1644.11 328.143C1644.67 328.368 1645.34 328.481 1646.14 328.481C1646.78 328.481 1647.36 328.42 1647.88 328.299C1648.39 328.178 1648.8 328.048 1649.1 327.91L1649.43 329.934C1649.29 330.021 1649.1 330.107 1648.84 330.194C1648.58 330.263 1648.28 330.323 1647.95 330.375C1647.62 330.444 1647.27 330.496 1646.89 330.531C1646.53 330.583 1646.17 330.609 1645.83 330.609ZM1654.28 316.803H1659.39V318.827H1654.28V325.055C1654.28 325.73 1654.33 326.292 1654.44 326.742C1654.54 327.175 1654.7 327.521 1654.9 327.78C1655.11 328.022 1655.37 328.195 1655.68 328.299C1655.99 328.403 1656.36 328.455 1656.77 328.455C1657.5 328.455 1658.08 328.377 1658.51 328.221C1658.96 328.048 1659.27 327.927 1659.45 327.858L1659.91 329.856C1659.67 329.977 1659.25 330.124 1658.64 330.297C1658.04 330.488 1657.34 330.583 1656.57 330.583C1655.65 330.583 1654.89 330.47 1654.28 330.245C1653.69 330.003 1653.22 329.649 1652.85 329.181C1652.49 328.714 1652.23 328.143 1652.08 327.469C1651.94 326.777 1651.87 325.981 1651.87 325.081V313.04L1654.28 312.624V316.803ZM1664.88 330.297H1662.47V316.803H1664.88V330.297ZM1663.66 314.363C1663.23 314.363 1662.85 314.225 1662.54 313.948C1662.25 313.654 1662.1 313.264 1662.1 312.78C1662.1 312.296 1662.25 311.915 1662.54 311.638C1662.85 311.344 1663.23 311.197 1663.66 311.197C1664.09 311.197 1664.45 311.344 1664.75 311.638C1665.06 311.915 1665.22 312.296 1665.22 312.78C1665.22 313.264 1665.06 313.654 1664.75 313.948C1664.45 314.225 1664.09 314.363 1663.66 314.363ZM1680.94 323.55C1680.94 324.623 1680.79 325.591 1680.47 326.457C1680.16 327.322 1679.72 328.066 1679.15 328.688C1678.6 329.311 1677.93 329.796 1677.15 330.142C1676.37 330.47 1675.53 330.635 1674.61 330.635C1673.69 330.635 1672.84 330.47 1672.07 330.142C1671.29 329.796 1670.61 329.311 1670.04 328.688C1669.49 328.066 1669.06 327.322 1668.74 326.457C1668.43 325.591 1668.28 324.623 1668.28 323.55C1668.28 322.495 1668.43 321.534 1668.74 320.669C1669.06 319.787 1669.49 319.034 1670.04 318.412C1670.61 317.789 1671.29 317.313 1672.07 316.984C1672.84 316.638 1673.69 316.465 1674.61 316.465C1675.53 316.465 1676.37 316.638 1677.15 316.984C1677.93 317.313 1678.6 317.789 1679.15 318.412C1679.72 319.034 1680.16 319.787 1680.47 320.669C1680.79 321.534 1680.94 322.495 1680.94 323.55ZM1678.42 323.55C1678.42 322.027 1678.08 320.825 1677.39 319.943C1676.71 319.043 1675.79 318.593 1674.61 318.593C1673.43 318.593 1672.5 319.043 1671.81 319.943C1671.13 320.825 1670.79 322.027 1670.79 323.55C1670.79 325.072 1671.13 326.284 1671.81 327.183C1672.5 328.066 1673.43 328.507 1674.61 328.507C1675.79 328.507 1676.71 328.066 1677.39 327.183C1678.08 326.284 1678.42 325.072 1678.42 323.55ZM1684.34 317.192C1684.89 317.053 1685.63 316.906 1686.54 316.751C1687.46 316.595 1688.51 316.517 1689.71 316.517C1690.78 316.517 1691.67 316.673 1692.38 316.984C1693.09 317.278 1693.65 317.702 1694.07 318.256C1694.5 318.792 1694.8 319.441 1694.98 320.202C1695.15 320.963 1695.24 321.803 1695.24 322.719V330.297H1692.82V323.239C1692.82 322.408 1692.76 321.699 1692.64 321.11C1692.54 320.522 1692.36 320.046 1692.1 319.683C1691.84 319.32 1691.49 319.06 1691.06 318.905C1690.63 318.732 1690.09 318.645 1689.45 318.645C1689.19 318.645 1688.92 318.654 1688.64 318.671C1688.37 318.688 1688.1 318.714 1687.84 318.749C1687.6 318.766 1687.37 318.792 1687.17 318.827C1686.97 318.861 1686.84 318.887 1686.75 318.905V330.297H1684.34V317.192Z" fill="#23232A"/>
<path d="M1338.49 300.359C1337.4 300.359 1336.52 301.24 1336.52 302.328C1336.52 303.416 1337.4 304.297 1338.49 304.297V300.359ZM1390.1 303.721C1390.87 302.952 1390.87 301.705 1390.1 300.936L1377.57 288.403C1376.8 287.634 1375.55 287.634 1374.78 288.403C1374.01 289.172 1374.01 290.419 1374.78 291.188L1385.92 302.328L1374.78 313.468C1374.01 314.237 1374.01 315.484 1374.78 316.253C1375.55 317.022 1376.8 317.022 1377.57 316.253L1390.1 303.721ZM1338.49 304.297H1388.71V300.359H1338.49V304.297Z" fill="#838383"/>
<defs>
<linearGradient id="paint0_linear_111_577" x1="264.238" y1="195" x2="264.238" y2="408.672" gradientUnits="userSpaceOnUse">
<stop stop-color="#E3E3E3"/>
<stop offset="1" stop-color="#F9F9F9"/>
</linearGradient>
<linearGradient id="paint1_linear_111_577" x1="255.276" y1="279.191" x2="253.865" y2="279.26" gradientUnits="userSpaceOnUse">
<stop stop-color="#FF6048"/>
<stop offset="1" stop-color="#FF9802"/>
</linearGradient>
<linearGradient id="paint2_linear_111_577" x1="273.552" y1="276.872" x2="260.462" y2="292.029" gradientUnits="userSpaceOnUse">
<stop stop-color="#FF6048"/>
<stop offset="1" stop-color="#FF9802"/>
</linearGradient>
<linearGradient id="paint3_linear_111_577" x1="704.382" y1="195" x2="704.382" y2="408.672" gradientUnits="userSpaceOnUse">
<stop stop-color="#E3E3E3"/>
<stop offset="1" stop-color="#F9F9F9"/>
</linearGradient>
<linearGradient id="paint4_linear_111_577" x1="709.315" y1="275.744" x2="708.851" y2="278.609" gradientUnits="userSpaceOnUse">
<stop stop-color="#FF6048"/>
<stop offset="1" stop-color="#FF9802"/>
</linearGradient>
<linearGradient id="paint5_linear_111_577" x1="697.033" y1="277.403" x2="690.118" y2="282.994" gradientUnits="userSpaceOnUse">
<stop stop-color="#FF6048"/>
<stop offset="1" stop-color="#FF9802"/>
</linearGradient>
<linearGradient id="paint6_linear_111_577" x1="717.947" y1="277.403" x2="711.032" y2="282.994" gradientUnits="userSpaceOnUse">
<stop stop-color="#FF6048"/>
<stop offset="1" stop-color="#FF9802"/>
</linearGradient>
<linearGradient id="paint7_linear_111_577" x1="713.207" y1="279.198" x2="706.373" y2="288.865" gradientUnits="userSpaceOnUse">
<stop stop-color="#FF6048"/>
<stop offset="1" stop-color="#FF9802"/>
</linearGradient>
<linearGradient id="paint8_linear_111_577" x1="710.687" y1="286.825" x2="707.675" y2="295.302" gradientUnits="userSpaceOnUse">
<stop stop-color="#FF6048"/>
<stop offset="1" stop-color="#FF9802"/>
</linearGradient>
<linearGradient id="paint9_linear_111_577" x1="701.013" y1="292.842" x2="699.305" y2="296.372" gradientUnits="userSpaceOnUse">
<stop stop-color="#FF6048"/>
<stop offset="1" stop-color="#FF9802"/>
</linearGradient>
<linearGradient id="paint10_linear_111_577" x1="1143.54" y1="195" x2="1143.54" y2="408.672" gradientUnits="userSpaceOnUse">
<stop stop-color="#E3E3E3"/>
<stop offset="1" stop-color="#F9F9F9"/>
</linearGradient>
<linearGradient id="paint11_linear_111_577" x1="1151.23" y1="276.644" x2="1134.54" y2="290.557" gradientUnits="userSpaceOnUse">
<stop stop-color="#FF6048"/>
<stop offset="1" stop-color="#FF9802"/>
</linearGradient>
<linearGradient id="paint12_linear_111_577" x1="1152.68" y1="273.708" x2="1147.37" y2="279.013" gradientUnits="userSpaceOnUse">
<stop stop-color="#FF6048"/>
<stop offset="1" stop-color="#FF9802"/>
</linearGradient>
<linearGradient id="paint13_linear_111_577" x1="1146.62" y1="285.052" x2="1146.44" y2="286.445" gradientUnits="userSpaceOnUse">
<stop stop-color="#FF6048"/>
<stop offset="1" stop-color="#FF9802"/>
</linearGradient>
<linearGradient id="paint14_linear_111_577" x1="1146.62" y1="290.052" x2="1146.44" y2="291.445" gradientUnits="userSpaceOnUse">
<stop stop-color="#FF6048"/>
<stop offset="1" stop-color="#FF9802"/>
</linearGradient>
<linearGradient id="paint15_linear_111_577" x1="1582.76" y1="195" x2="1582.76" y2="408.672" gradientUnits="userSpaceOnUse">
<stop stop-color="#E3E3E3"/>
<stop offset="1" stop-color="#F9F9F9"/>
</linearGradient>
<linearGradient id="paint16_linear_111_577" x1="1591.99" y1="281.221" x2="1581.55" y2="296.888" gradientUnits="userSpaceOnUse">
<stop stop-color="#FF6048"/>
<stop offset="1" stop-color="#FF9802"/>
</linearGradient>
<linearGradient id="paint17_linear_111_577" x1="1581.38" y1="274.675" x2="1579.28" y2="280.255" gradientUnits="userSpaceOnUse">
<stop stop-color="#FF6048"/>
<stop offset="1" stop-color="#FF9802"/>
</linearGradient>
<clipPath id="clip0_111_577">
<rect width="31.5092" height="31.5092" fill="white" transform="translate(248.483 268.62)"/>
</clipPath>
<clipPath id="clip1_111_577">
<rect width="32" height="32" fill="white" transform="translate(688.382 268.374)"/>
</clipPath>
<clipPath id="clip2_111_577">
<rect width="32" height="32" fill="white" transform="translate(1127.54 268.374)"/>
</clipPath>
<clipPath id="clip3_111_577">
<rect width="32" height="32" fill="white" transform="translate(1566.76 268.374)"/>
</clipPath>
</defs>
</svg>
