<?xml version="1.0" encoding="UTF-8"?>
<svg width="172px" height="172px" viewBox="0 0 172 172" version="1.1" xmlns="http://www.w3.org/2000/svg" xmlns:xlink="http://www.w3.org/1999/xlink">
    <title>723F1CCE-92C9-4650-BB04-F0307516FAF8</title>
    <g id="Page-1" stroke="none" stroke-width="1" fill="none" fill-rule="evenodd">
        <g id="BandWebsite_Desktop_UI_BrandAsset" transform="translate(-438.000000, -1072.000000)">
            <g id="Logo2" transform="translate(438.000000, 1072.000000)">
                <polygon id="Fill-1" fill="#000000" points="0 171.866248 171.866248 171.866248 171.866248 0 0 0"></polygon>
                <path d="M115.989631,104.958523 C115.989631,113.689297 108.887703,120.791226 100.156928,120.791226 L69.8008751,120.791226 L101.348561,89.244685 C109.514782,89.8664959 115.989631,96.6356463 115.989631,104.958523 L115.989631,104.958523 Z M65.3242945,87.8164666 L65.3242945,51.126187 L100.156928,51.126187 C100.751943,51.126187 101.339171,51.1589379 101.917237,51.2237529 L65.3242945,87.8164666 Z M122.320422,66.9607222 C122.320422,59.5697609 118.685062,53.0133774 113.108689,48.9843174 L128.158345,33.934661 L119.155027,33.9859632 L107.198393,45.942368 C104.985296,45.1989433 102.617376,44.7958541 100.156928,44.7958541 L58.9937326,44.7958541 L58.9937326,103.099274 L108.552406,53.5403707 C113.015932,56.344131 115.989631,61.3117475 115.989631,66.9607222 C115.989631,75.6914972 108.887703,82.7934253 100.156928,82.7934253 L98.8462013,82.7934253 L43.7079483,137.931678 L52.6599643,137.931678 L63.4700842,127.121787 L100.156928,127.121787 C112.377631,127.121787 122.320422,117.179226 122.320422,104.958523 C122.320422,96.8987995 117.982404,89.8516091 111.533434,85.9721044 C117.989275,82.0935158 122.320422,75.0243387 122.320422,66.9607222 L122.320422,66.9607222 Z" id="Fill-2" fill="#FFFFFF"></path>
            </g>
        </g>
    </g>
</svg>