<svg width="257" height="58" viewBox="0 0 257 58" fill="none" xmlns="http://www.w3.org/2000/svg">
<path fill-rule="evenodd" clip-rule="evenodd" d="M164.7 28.1572V24.1714C165.986 23.7857 169.599 23.0914 173.764 23.4C178.971 23.7857 180 26.55 180 29.3786V40.6286H174.729V38.9572H174.471C173.7 39.6857 171.476 41.1429 168.75 41.1429C165.343 41.1429 163.157 38.5714 163.157 35.6786C163.157 32.7857 164.957 29.5714 174.729 29.5714C174.729 29.5609 174.729 29.55 174.729 29.5388C174.73 28.7995 174.732 26.6815 170.743 26.8714C167.503 27.0257 165.579 27.7929 165.021 28.1572H164.7ZM174.729 32.6571V36.1286C174.386 36.5571 173.224 37.4143 171.321 37.4143C168.943 37.4143 168.686 36.5786 168.686 35.4214C168.686 34.2643 169.457 33.2357 171.579 32.9786C173.276 32.7729 174.386 32.6786 174.729 32.6571Z" fill="#10171F"/>
<path d="M159.3 23.6572H153.9V40.6286H159.3V23.6572Z" fill="#10171F"/>
<path d="M159.3 17.2286H153.9V21.2143H159.3V17.2286Z" fill="#10171F"/>
<path d="M126.643 23.6571H121.243V40.6285H126.643V28.6714C126.964 28.4357 127.954 27.9 129.343 27.6428C131.079 27.3214 132.3 28.2214 132.3 29.7V40.6285H137.7V28.6714C137.936 28.4357 138.819 27.9 140.464 27.6428C142.521 27.3214 143.357 28.8 143.357 29.7V40.6285H148.821V28.4785C148.821 25.1357 146.25 23.3357 143.486 23.3357C140.721 23.3357 139.179 24.6214 137.121 26.1C135.707 23.5928 133.843 23.3357 131.529 23.3357C129.677 23.3357 127.757 24.6643 127.029 25.3286H126.643V23.6571Z" fill="#10171F"/>
<path d="M104.529 23.6572H99.0643V33.5572C99.0643 39.6 101.186 41.0143 104.914 41.0143C107.897 41.0143 109.757 39.6 110.314 38.8929H110.571V40.6286H116.1V23.6572H110.571V35.8072C108.9 36.6429 107.807 36.9 106.264 36.6429C104.721 36.3857 104.464 34.5857 104.529 33.5572V23.6572Z" fill="#10171F"/>
<path d="M78.6857 40.6286H73.4143V18.2571H80.2929L88.2643 30.7929H88.5214V18.2571H93.9214V40.6286H88.2L78.9429 25.4571H78.6857V40.6286Z" fill="#10171F"/>
<path d="M28.5429 42.8143C28.5429 50.6962 22.1533 57.0857 14.2714 57.0857C6.38954 57.0857 0 50.6962 0 42.8143C0 34.9324 6.38954 28.5428 14.2714 28.5428C22.1533 28.5428 28.5429 34.9324 28.5429 42.8143ZM7.7127 42.8143C7.7127 46.4366 10.6491 49.373 14.2714 49.373C17.8937 49.373 20.8302 46.4366 20.8302 42.8143C20.8302 39.192 17.8937 36.2555 14.2714 36.2555C10.6491 36.2555 7.7127 39.192 7.7127 42.8143Z" fill="url(#paint0_linear_14_54)"/>
<path d="M61.7143 42.8143C61.7143 50.6962 55.3248 57.0857 47.4429 57.0857C39.561 57.0857 33.1714 50.6962 33.1714 42.8143C33.1714 34.9324 39.561 28.5428 47.4429 28.5428C55.3248 28.5428 61.7143 34.9324 61.7143 42.8143ZM40.8841 42.8143C40.8841 46.4366 43.8206 49.373 47.4429 49.373C51.0652 49.373 54.0016 46.4366 54.0016 42.8143C54.0016 39.192 51.0652 36.2555 47.4429 36.2555C43.8206 36.2555 40.8841 39.192 40.8841 42.8143Z" fill="url(#paint1_linear_14_54)"/>
<path d="M45.1285 14.2714C45.1285 22.1533 38.739 28.5429 30.8571 28.5429C22.9752 28.5429 16.5857 22.1533 16.5857 14.2714C16.5857 6.38954 22.9752 0 30.8571 0C38.739 0 45.1285 6.38954 45.1285 14.2714ZM24.2984 14.2714C24.2984 17.8937 27.2348 20.8302 30.8571 20.8302C34.4794 20.8302 37.4159 17.8937 37.4159 14.2714C37.4159 10.6491 34.4794 7.7127 30.8571 7.7127C27.2348 7.7127 24.2984 10.6491 24.2984 14.2714Z" fill="url(#paint2_linear_14_54)"/>
<rect x="199.644" y="17.1916" width="56.7111" height="24.4889" rx="5.8" fill="#155D6C"/>
<rect x="199.644" y="17.1916" width="56.7111" height="24.4889" rx="5.8" stroke="#01B4DB" stroke-width="1.28889"/>
<path d="M245.928 31.658C245.928 31.47 245.899 31.3022 245.841 31.1545C245.787 31.0024 245.687 30.8659 245.539 30.745C245.396 30.6197 245.192 30.4989 244.928 30.3825C244.669 30.2617 244.333 30.1364 243.921 30.0066C243.465 29.8634 243.04 29.7023 242.646 29.5233C242.252 29.3443 241.905 29.1362 241.605 28.899C241.31 28.6618 241.079 28.3888 240.914 28.08C240.748 27.7667 240.665 27.4042 240.665 26.9925C240.665 26.5897 240.75 26.2227 240.92 25.8916C241.095 25.5604 241.341 25.2762 241.659 25.039C241.977 24.7974 242.35 24.6116 242.78 24.4818C243.214 24.3521 243.693 24.2872 244.217 24.2872C244.942 24.2872 245.568 24.4192 246.096 24.6832C246.629 24.9473 247.04 25.3053 247.331 25.7573C247.622 26.2093 247.768 26.7173 247.768 27.2812H245.928C245.928 26.9768 245.863 26.7083 245.734 26.4756C245.608 26.2429 245.416 26.0594 245.156 25.9251C244.901 25.7909 244.579 25.7237 244.19 25.7237C243.814 25.7237 243.5 25.7797 243.25 25.8916C243.004 26.0035 242.818 26.1556 242.693 26.3481C242.572 26.5405 242.511 26.7553 242.511 26.9925C242.511 27.1715 242.554 27.3326 242.639 27.4758C242.724 27.6146 242.852 27.7466 243.022 27.8719C243.192 27.9927 243.402 28.1068 243.653 28.2143C243.908 28.3172 244.203 28.4201 244.539 28.5231C245.076 28.6842 245.546 28.8632 245.948 29.0601C246.356 29.257 246.694 29.4808 246.962 29.7314C247.235 29.982 247.439 30.2639 247.573 30.5772C247.712 30.8905 247.781 31.2463 247.781 31.6446C247.781 32.0653 247.698 32.4412 247.533 32.7724C247.367 33.1035 247.13 33.3855 246.821 33.6182C246.512 33.8509 246.141 34.0277 245.707 34.1485C245.277 34.2693 244.796 34.3298 244.264 34.3298C243.789 34.3298 243.319 34.2671 242.854 34.1418C242.393 34.012 241.974 33.8196 241.598 33.5645C241.223 33.3049 240.923 32.9782 240.699 32.5844C240.475 32.1861 240.363 31.7207 240.363 31.1881H242.216C242.216 31.4969 242.265 31.7609 242.364 31.9802C242.467 32.195 242.61 32.3718 242.793 32.5105C242.981 32.6448 243.201 32.7433 243.451 32.8059C243.702 32.8686 243.973 32.8999 244.264 32.8999C244.639 32.8999 244.948 32.8484 245.19 32.7455C245.436 32.6381 245.62 32.4904 245.74 32.3024C245.866 32.1145 245.928 31.8997 245.928 31.658Z" fill="white"/>
<path d="M235.75 30.98H237.596C237.547 31.6334 237.365 32.2129 237.052 32.7187C236.739 33.2199 236.303 33.6137 235.743 33.9001C235.184 34.1866 234.506 34.3298 233.709 34.3298C233.096 34.3298 232.543 34.2224 232.051 34.0075C231.563 33.7882 231.145 33.4772 230.796 33.0744C230.451 32.6672 230.187 32.1794 230.004 31.611C229.82 31.0382 229.728 30.396 229.728 29.6844V28.9393C229.728 28.2277 229.822 27.5855 230.01 27.0126C230.198 26.4398 230.467 25.952 230.816 25.5492C231.169 25.142 231.592 24.8287 232.085 24.6094C232.581 24.3901 233.136 24.2805 233.749 24.2805C234.546 24.2805 235.22 24.4281 235.77 24.7235C236.32 25.0144 236.748 25.4149 237.052 25.9251C237.357 26.4353 237.54 27.0216 237.603 27.6839H235.757C235.721 27.2722 235.631 26.9231 235.488 26.6367C235.349 26.3503 235.139 26.1332 234.857 25.9855C234.58 25.8334 234.21 25.7573 233.749 25.7573C233.391 25.7573 233.076 25.8244 232.803 25.9587C232.534 26.093 232.311 26.2943 232.132 26.5629C231.953 26.8269 231.818 27.1581 231.729 27.5564C231.639 27.9502 231.595 28.4067 231.595 28.9258V29.6844C231.595 30.1812 231.635 30.6264 231.715 31.0203C231.796 31.4141 231.921 31.7475 232.091 32.0205C232.261 32.2935 232.481 32.5016 232.749 32.6448C233.018 32.788 233.338 32.8596 233.709 32.8596C234.161 32.8596 234.528 32.788 234.81 32.6448C235.096 32.5016 235.314 32.2913 235.461 32.0138C235.613 31.7363 235.71 31.3917 235.75 30.98Z" fill="white"/>
<path d="M226.679 29.0601V29.5636C226.679 30.302 226.581 30.9666 226.384 31.5573C226.187 32.1436 225.907 32.6426 225.545 33.0543C225.182 33.466 224.75 33.7815 224.249 34.0008C223.748 34.2201 223.191 34.3298 222.577 34.3298C221.973 34.3298 221.418 34.2201 220.913 34.0008C220.411 33.7815 219.977 33.466 219.61 33.0543C219.243 32.6426 218.959 32.1436 218.758 31.5573C218.556 30.9666 218.456 30.302 218.456 29.5636V29.0601C218.456 28.3172 218.556 27.6526 218.758 27.0663C218.959 26.4801 219.241 25.9811 219.604 25.5693C219.966 25.1531 220.398 24.8354 220.899 24.6161C221.405 24.3968 221.96 24.2872 222.564 24.2872C223.177 24.2872 223.734 24.3968 224.236 24.6161C224.737 24.8354 225.169 25.1531 225.531 25.5693C225.898 25.9811 226.18 26.4801 226.377 27.0663C226.578 27.6526 226.679 28.3172 226.679 29.0601ZM224.813 29.5636V29.0467C224.813 28.5141 224.764 28.0464 224.665 27.6437C224.567 27.2364 224.421 26.894 224.229 26.6166C224.036 26.3391 223.799 26.131 223.517 25.9923C223.235 25.8491 222.918 25.7774 222.564 25.7774C222.206 25.7774 221.888 25.8491 221.611 25.9923C221.338 26.131 221.105 26.3391 220.913 26.6166C220.72 26.894 220.572 27.2364 220.47 27.6437C220.371 28.0464 220.322 28.5141 220.322 29.0467V29.5636C220.322 30.0916 220.371 30.5593 220.47 30.9666C220.572 31.3738 220.72 31.7184 220.913 32.0004C221.11 32.2778 221.347 32.4882 221.624 32.6314C221.902 32.7746 222.219 32.8462 222.577 32.8462C222.935 32.8462 223.253 32.7746 223.531 32.6314C223.808 32.4882 224.041 32.2778 224.229 32.0004C224.421 31.7184 224.567 31.3738 224.665 30.9666C224.764 30.5593 224.813 30.0916 224.813 29.5636Z" fill="white"/>
<path d="M210.942 34.1955H208.834L208.848 32.7455H210.942C211.511 32.7455 211.987 32.6202 212.372 32.3696C212.757 32.1145 213.048 31.7498 213.245 31.2754C213.442 30.7965 213.54 30.2237 213.54 29.5569V29.0534C213.54 28.5387 213.484 28.0845 213.372 27.6907C213.26 27.2968 213.095 26.9657 212.876 26.6971C212.661 26.4286 212.395 26.225 212.077 26.0863C211.759 25.9475 211.394 25.8782 210.983 25.8782H208.794V24.4214H210.983C211.636 24.4214 212.231 24.5311 212.768 24.7504C213.31 24.9697 213.777 25.2852 214.171 25.6969C214.57 26.1042 214.874 26.592 215.084 27.1603C215.299 27.7287 215.406 28.3642 215.406 29.0668V29.5569C215.406 30.255 215.299 30.8905 215.084 31.4633C214.874 32.0317 214.57 32.5195 214.171 32.9268C213.777 33.334 213.307 33.6473 212.761 33.8666C212.215 34.0859 211.609 34.1955 210.942 34.1955ZM209.868 24.4214V34.1955H208.022V24.4214H209.868Z" fill="white"/>
<defs>
<linearGradient id="paint0_linear_14_54" x1="25.2458" y1="33.6214" x2="5.06011" y2="53.8071" gradientUnits="userSpaceOnUse">
<stop stop-color="#FF6048"/>
<stop offset="1" stop-color="#FF9802"/>
</linearGradient>
<linearGradient id="paint1_linear_14_54" x1="36.6429" y1="33.4928" x2="56.8286" y2="53.6786" gradientUnits="userSpaceOnUse">
<stop stop-color="#FA5471"/>
<stop offset="1" stop-color="#FF55FA"/>
</linearGradient>
<linearGradient id="paint2_linear_14_54" x1="30.8571" y1="0" x2="30.8571" y2="28.5429" gradientUnits="userSpaceOnUse">
<stop stop-color="#00FAFC"/>
<stop offset="1" stop-color="#0179BE"/>
</linearGradient>
</defs>
</svg>
