<svg width="395" height="125" viewBox="0 0 395 125" fill="none" xmlns="http://www.w3.org/2000/svg">
<path fill-rule="evenodd" clip-rule="evenodd" d="M360.642 61.6554V52.9279C363.457 52.0833 371.368 50.563 380.49 51.2387C391.892 52.0833 394.144 58.1362 394.144 64.3299V88.9639H382.602V85.304H382.038C380.349 86.8994 375.479 90.09 369.51 90.09C362.05 90.09 357.264 84.4594 357.264 78.125C357.264 71.7905 361.205 64.7522 382.602 64.7522C382.602 64.7291 382.602 64.7052 382.602 64.6807C382.604 63.062 382.61 58.4241 373.874 58.84C366.779 59.1779 362.566 60.8577 361.346 61.6554H360.642ZM382.602 71.509V79.1104C381.851 80.0488 379.308 81.9257 375.141 81.9257C369.933 81.9257 369.37 80.0957 369.37 77.5619C369.37 75.0282 371.059 72.7759 375.704 72.2128C379.42 71.7624 381.851 71.5559 382.602 71.509Z" fill="#10171F"/>
<path d="M348.818 51.8018H336.993V88.9639H348.818V51.8018Z" fill="#10171F"/>
<path d="M348.818 37.7253H336.993V46.4528H348.818V37.7253Z" fill="#10171F"/>
<path d="M277.309 51.8017H265.484V88.9639H277.309V62.7815C278.013 62.2653 280.18 61.0923 283.221 60.5292C287.022 59.8254 289.696 61.7961 289.696 65.0337V88.9639H301.52V62.7815C302.037 62.2653 303.97 61.0923 307.573 60.5292C312.078 59.8254 313.908 63.063 313.908 65.0337V88.9639H325.873V62.3592C325.873 55.0393 320.242 51.0979 314.189 51.0979C308.136 51.0979 304.758 53.9132 300.254 57.1508C297.157 51.661 293.074 51.0979 288.007 51.0979C283.953 51.0979 279.749 54.0071 278.153 55.4616H277.309V51.8017Z" fill="#10171F"/>
<path d="M228.885 51.8018H216.92V73.4797C216.92 86.7117 221.565 89.8085 229.73 89.8085C236.261 89.8085 240.334 86.7117 241.554 85.1632H242.117V88.9639H254.223V51.8018H242.117V78.4065C238.457 80.2364 236.064 80.7995 232.686 80.2364C229.308 79.6734 228.744 75.7319 228.885 73.4797V51.8018Z" fill="#10171F"/>
<path d="M172.297 88.964H160.755V39.9775H175.817L193.272 67.4269H193.835V39.9775H205.659V88.964H193.131L172.86 55.7433H172.297V88.964Z" fill="#10171F"/>
<path d="M62.5 93.75C62.5 111.009 48.5089 125 31.25 125C13.9911 125 0 111.009 0 93.75C0 76.4911 13.9911 62.5 31.25 62.5C48.5089 62.5 62.5 76.4911 62.5 93.75ZM16.8884 93.75C16.8884 101.682 23.3183 108.112 31.25 108.112C39.1817 108.112 45.6116 101.682 45.6116 93.75C45.6116 85.8183 39.1817 79.3884 31.25 79.3884C23.3183 79.3884 16.8884 85.8183 16.8884 93.75Z" fill="url(#paint0_linear_100_386)"/>
<path d="M135.135 93.75C135.135 111.009 121.144 125 103.885 125C86.6262 125 72.6351 111.009 72.6351 93.75C72.6351 76.4911 86.6262 62.5 103.885 62.5C121.144 62.5 135.135 76.4911 135.135 93.75ZM89.5235 93.75C89.5235 101.682 95.9534 108.112 103.885 108.112C111.817 108.112 118.247 101.682 118.247 93.75C118.247 85.8183 111.817 79.3884 103.885 79.3884C95.9534 79.3884 89.5235 85.8183 89.5235 93.75Z" fill="url(#paint1_linear_100_386)"/>
<path d="M98.8176 31.25C98.8176 48.5089 84.8265 62.5 67.5676 62.5C50.3087 62.5 36.3176 48.5089 36.3176 31.25C36.3176 13.9911 50.3087 0 67.5676 0C84.8265 0 98.8176 13.9911 98.8176 31.25ZM53.206 31.25C53.206 39.1817 59.6359 45.6116 67.5676 45.6116C75.4993 45.6116 81.9292 39.1817 81.9292 31.25C81.9292 23.3183 75.4993 16.8884 67.5676 16.8884C59.6359 16.8884 53.206 23.3183 53.206 31.25Z" fill="url(#paint2_linear_100_386)"/>
<defs>
<linearGradient id="paint0_linear_100_386" x1="55.2805" y1="73.6205" x2="11.0801" y2="117.821" gradientUnits="userSpaceOnUse">
<stop stop-color="#FF6048"/>
<stop offset="1" stop-color="#FF9802"/>
</linearGradient>
<linearGradient id="paint1_linear_100_386" x1="80.2365" y1="73.339" x2="124.437" y2="117.539" gradientUnits="userSpaceOnUse">
<stop stop-color="#FA5471"/>
<stop offset="1" stop-color="#FF55FA"/>
</linearGradient>
<linearGradient id="paint2_linear_100_386" x1="67.5676" y1="0" x2="67.5676" y2="62.5" gradientUnits="userSpaceOnUse">
<stop stop-color="#00FAFC"/>
<stop offset="1" stop-color="#0179BE"/>
</linearGradient>
</defs>
</svg>
