<svg width="396" height="126" viewBox="0 0 396 126" fill="none" xmlns="http://www.w3.org/2000/svg">
<path fill-rule="evenodd" clip-rule="evenodd" d="M361.682 61.6975V52.9641C364.499 52.1189 372.416 50.5976 381.544 51.2737C392.953 52.1189 395.207 58.176 395.207 64.3739V89.0248H383.656V85.3624H383.093C381.403 86.9588 376.529 90.1517 370.556 90.1517C363.091 90.1517 358.301 84.5172 358.301 78.1784C358.301 71.8396 362.245 64.7965 383.656 64.7965C383.656 64.7734 383.656 64.7495 383.657 64.7249C383.659 63.1051 383.665 58.464 374.923 58.8803C367.824 59.2184 363.607 60.8993 362.386 61.6975H361.682ZM383.656 71.5579V79.1645C382.905 80.1035 380.36 81.9817 376.191 81.9817C370.979 81.9817 370.415 80.1505 370.415 77.615C370.415 75.0794 372.106 72.8257 376.754 72.2622C380.473 71.8114 382.905 71.6048 383.656 71.5579Z" fill="white"/>
<path d="M349.85 51.8372H338.017V89.0248H349.85V51.8372Z" fill="white"/>
<path d="M349.85 37.751H338.017V46.4844H349.85V37.751Z" fill="white"/>
<path d="M278.291 51.8371H266.459V89.0248H278.291V62.8244C278.996 62.3079 281.165 61.134 284.208 60.5706C288.011 59.8663 290.687 61.8383 290.687 65.0782V89.0248H302.52V62.8244C303.036 62.3079 304.971 61.134 308.577 60.5706C313.084 59.8663 314.916 63.1061 314.916 65.0782V89.0248H326.889V62.4018C326.889 55.077 321.254 51.1328 315.197 51.1328C309.14 51.1328 305.76 53.9501 301.252 57.1899C298.153 51.6963 294.068 51.1328 288.997 51.1328C284.94 51.1328 280.733 54.044 279.137 55.4995H278.291V51.8371Z" fill="white"/>
<path d="M229.835 51.8372H217.862V73.53C217.862 86.771 222.51 89.87 230.68 89.87C237.216 89.87 241.292 86.771 242.512 85.2215H243.076V89.0248H255.19V51.8372H243.076V78.4601C239.413 80.2913 237.019 80.8548 233.638 80.2913C230.257 79.7279 229.694 75.7837 229.835 73.53V51.8372Z" fill="white"/>
<path d="M173.208 89.025H161.658V40.0049H176.73L194.197 67.473H194.76V40.0049H206.593V89.025H194.056L173.772 55.7815H173.208V89.025Z" fill="white"/>
<path d="M63.3356 93.8144C63.3356 111.085 49.3349 125.086 32.0642 125.086C14.7935 125.086 0.792786 111.085 0.792786 93.8144C0.792786 76.5437 14.7935 62.543 32.0642 62.543C49.3349 62.543 63.3356 76.5437 63.3356 93.8144ZM17.6928 93.8144C17.6928 101.752 24.1271 108.186 32.0642 108.186C40.0013 108.186 46.4356 101.752 46.4356 93.8144C46.4356 85.8773 40.0013 79.443 32.0642 79.443C24.1271 79.443 17.6928 85.8773 17.6928 93.8144Z" fill="url(#paint0_linear_98_509)"/>
<path d="M136.021 93.8144C136.021 111.085 122.02 125.086 104.749 125.086C87.4784 125.086 73.4777 111.085 73.4777 93.8144C73.4777 76.5437 87.4784 62.543 104.749 62.543C122.02 62.543 136.021 76.5437 136.021 93.8144ZM90.3777 93.8144C90.3777 101.752 96.812 108.186 104.749 108.186C112.686 108.186 119.121 101.752 119.121 93.8144C119.121 85.8773 112.686 79.443 104.749 79.443C96.812 79.443 90.3777 85.8773 90.3777 93.8144Z" fill="url(#paint1_linear_98_509)"/>
<path d="M99.6781 31.2714C99.6781 48.5422 85.6774 62.5429 68.4067 62.5429C51.1359 62.5429 37.1353 48.5422 37.1353 31.2714C37.1353 14.0007 51.1359 0 68.4067 0C85.6774 0 99.6781 14.0007 99.6781 31.2714ZM54.0352 31.2714C54.0352 39.2086 60.4696 45.6429 68.4067 45.6429C76.3438 45.6429 82.7781 39.2086 82.7781 31.2714C82.7781 23.3343 76.3438 16.9 68.4067 16.9C60.4696 16.9 54.0352 23.3343 54.0352 31.2714Z" fill="url(#paint2_linear_98_509)"/>
<defs>
<linearGradient id="paint0_linear_98_509" x1="56.1112" y1="73.6711" x2="11.8805" y2="117.902" gradientUnits="userSpaceOnUse">
<stop stop-color="#FF6048"/>
<stop offset="1" stop-color="#FF9802"/>
</linearGradient>
<linearGradient id="paint1_linear_98_509" x1="81.0843" y1="73.3894" x2="125.315" y2="117.62" gradientUnits="userSpaceOnUse">
<stop stop-color="#FA5471"/>
<stop offset="1" stop-color="#FF55FA"/>
</linearGradient>
<linearGradient id="paint2_linear_98_509" x1="68.4067" y1="0" x2="68.4067" y2="62.5429" gradientUnits="userSpaceOnUse">
<stop stop-color="#00FAFC"/>
<stop offset="1" stop-color="#0179BE"/>
</linearGradient>
</defs>
</svg>
