<svg width="257" height="58" viewBox="0 0 257 58" fill="none" xmlns="http://www.w3.org/2000/svg">
<path fill-rule="evenodd" clip-rule="evenodd" d="M164.7 28.61V24.6243C165.986 24.2386 169.599 23.5443 173.764 23.8528C178.971 24.2386 180 27.0028 180 29.8314V41.0814H174.729V39.41H174.471C173.7 40.1385 171.476 41.5957 168.75 41.5957C165.343 41.5957 163.157 39.0243 163.157 36.1314C163.157 33.2386 164.957 30.0243 174.729 30.0243C174.729 30.0137 174.729 30.0028 174.729 29.9916C174.73 29.2524 174.732 27.1343 170.743 27.3243C167.503 27.4786 165.579 28.2457 165.021 28.61H164.7ZM174.729 33.11V36.5814C174.386 37.01 173.224 37.8671 171.321 37.8671C168.943 37.8671 168.686 37.0314 168.686 35.8743C168.686 34.7171 169.457 33.6886 171.579 33.4314C173.276 33.2257 174.386 33.1314 174.729 33.11Z" fill="white"/>
<path d="M159.3 24.11H153.9V41.0814H159.3V24.11Z" fill="white"/>
<path d="M159.3 17.6814H153.9V21.6671H159.3V17.6814Z" fill="white"/>
<path d="M126.643 24.11H121.243V41.0814H126.643V29.1243C126.964 28.8886 127.954 28.3529 129.343 28.0957C131.079 27.7743 132.3 28.6743 132.3 30.1529V41.0814H137.7V29.1243C137.936 28.8886 138.819 28.3529 140.464 28.0957C142.521 27.7743 143.357 29.2529 143.357 30.1529V41.0814H148.821V28.9314C148.821 25.5886 146.25 23.7886 143.486 23.7886C140.721 23.7886 139.179 25.0743 137.121 26.5529C135.707 24.0457 133.843 23.7886 131.529 23.7886C129.677 23.7886 127.757 25.1171 127.029 25.7814H126.643V24.11Z" fill="white"/>
<path d="M104.529 24.11H99.0643V34.01C99.0643 40.0528 101.186 41.4671 104.914 41.4671C107.897 41.4671 109.757 40.0528 110.314 39.3457H110.571V41.0814H116.1V24.11H110.571V36.26C108.9 37.0957 107.807 37.3528 106.264 37.0957C104.721 36.8386 104.464 35.0386 104.529 34.01V24.11Z" fill="white"/>
<path d="M78.6857 41.0814H73.4143V18.71H80.2929L88.2643 31.2457H88.5214V18.71H93.9214V41.0814H88.2L78.9429 25.91H78.6857V41.0814Z" fill="white"/>
<path d="M28.5429 43.2671C28.5429 51.149 22.1533 57.5386 14.2714 57.5386C6.38954 57.5386 0 51.149 0 43.2671C0 35.3852 6.38954 28.9957 14.2714 28.9957C22.1533 28.9957 28.5429 35.3852 28.5429 43.2671ZM7.7127 43.2671C7.7127 46.8894 10.6491 49.8259 14.2714 49.8259C17.8937 49.8259 20.8302 46.8894 20.8302 43.2671C20.8302 39.6448 17.8937 36.7084 14.2714 36.7084C10.6491 36.7084 7.7127 39.6448 7.7127 43.2671Z" fill="url(#paint0_linear_4_150)"/>
<path d="M61.7143 43.2671C61.7143 51.149 55.3248 57.5386 47.4429 57.5386C39.561 57.5386 33.1714 51.149 33.1714 43.2671C33.1714 35.3852 39.561 28.9957 47.4429 28.9957C55.3248 28.9957 61.7143 35.3852 61.7143 43.2671ZM40.8841 43.2671C40.8841 46.8894 43.8206 49.8259 47.4429 49.8259C51.0652 49.8259 54.0016 46.8894 54.0016 43.2671C54.0016 39.6448 51.0652 36.7084 47.4429 36.7084C43.8206 36.7084 40.8841 39.6448 40.8841 43.2671Z" fill="url(#paint1_linear_4_150)"/>
<path d="M45.1285 14.7243C45.1285 22.6062 38.739 28.9957 30.8571 28.9957C22.9752 28.9957 16.5857 22.6062 16.5857 14.7243C16.5857 6.84239 22.9752 0.45285 30.8571 0.45285C38.739 0.45285 45.1285 6.84239 45.1285 14.7243ZM24.2984 14.7243C24.2984 18.3466 27.2348 21.283 30.8571 21.283C34.4794 21.283 37.4159 18.3466 37.4159 14.7243C37.4159 11.102 34.4794 8.16555 30.8571 8.16555C27.2348 8.16555 24.2984 11.102 24.2984 14.7243Z" fill="url(#paint2_linear_4_150)"/>
<rect x="199.644" y="19.6444" width="56.7111" height="24.4889" rx="5.8" fill="#155D6C"/>
<rect x="199.644" y="19.6444" width="56.7111" height="24.4889" rx="5.8" stroke="#01B4DB" stroke-width="1.28889"/>
<path d="M245.928 34.1109C245.928 33.923 245.899 33.7552 245.841 33.6075C245.787 33.4553 245.687 33.3188 245.539 33.198C245.396 33.0727 245.192 32.9518 244.928 32.8355C244.669 32.7147 244.333 32.5893 243.921 32.4596C243.465 32.3163 243.04 32.1552 242.646 31.9762C242.252 31.7972 241.905 31.5891 241.605 31.3519C241.31 31.1147 241.079 30.8417 240.914 30.5329C240.748 30.2197 240.665 29.8572 240.665 29.4454C240.665 29.0427 240.75 28.6757 240.92 28.3445C241.095 28.0133 241.341 27.7292 241.659 27.492C241.977 27.2503 242.35 27.0646 242.78 26.9348C243.214 26.805 243.693 26.7401 244.217 26.7401C244.942 26.7401 245.568 26.8721 246.096 27.1362C246.629 27.4002 247.04 27.7582 247.331 28.2103C247.622 28.6623 247.768 29.1702 247.768 29.7341H245.928C245.928 29.4298 245.863 29.1613 245.734 28.9285C245.608 28.6958 245.416 28.5123 245.156 28.3781C244.901 28.2438 244.579 28.1767 244.19 28.1767C243.814 28.1767 243.5 28.2326 243.25 28.3445C243.004 28.4564 242.818 28.6086 242.693 28.801C242.572 28.9934 242.511 29.2082 242.511 29.4454C242.511 29.6244 242.554 29.7856 242.639 29.9288C242.724 30.0675 242.852 30.1995 243.022 30.3248C243.192 30.4457 243.402 30.5598 243.653 30.6672C243.908 30.7701 244.203 30.8731 244.539 30.976C245.076 31.1371 245.546 31.3161 245.948 31.513C246.356 31.7099 246.694 31.9337 246.962 32.1843C247.235 32.4349 247.439 32.7169 247.573 33.0302C247.712 33.3434 247.781 33.6992 247.781 34.0975C247.781 34.5182 247.698 34.8941 247.533 35.2253C247.367 35.5565 247.13 35.8384 246.821 36.0711C246.512 36.3038 246.141 36.4806 245.707 36.6015C245.277 36.7223 244.796 36.7827 244.264 36.7827C243.789 36.7827 243.319 36.7201 242.854 36.5947C242.393 36.465 241.974 36.2725 241.598 36.0174C241.223 35.7579 240.923 35.4312 240.699 35.0373C240.475 34.639 240.363 34.1736 240.363 33.641H242.216C242.216 33.9498 242.265 34.2139 242.364 34.4332C242.467 34.648 242.61 34.8248 242.793 34.9635C242.981 35.0978 243.201 35.1962 243.451 35.2589C243.702 35.3215 243.973 35.3528 244.264 35.3528C244.639 35.3528 244.948 35.3014 245.19 35.1984C245.436 35.091 245.62 34.9434 245.74 34.7554C245.866 34.5674 245.928 34.3526 245.928 34.1109Z" fill="white"/>
<path d="M235.75 33.4329H237.596C237.547 34.0863 237.365 34.6659 237.052 35.1716C236.739 35.6728 236.303 36.0667 235.743 36.3531C235.184 36.6395 234.506 36.7827 233.709 36.7827C233.096 36.7827 232.543 36.6753 232.051 36.4605C231.563 36.2412 231.145 35.9302 230.796 35.5274C230.451 35.1201 230.187 34.6323 230.004 34.064C229.82 33.4911 229.728 32.8489 229.728 32.1373V31.3922C229.728 30.6806 229.822 30.0384 230.01 29.4656C230.198 28.8927 230.467 28.4049 230.816 28.0021C231.169 27.5949 231.592 27.2816 232.085 27.0623C232.581 26.843 233.136 26.7334 233.749 26.7334C234.546 26.7334 235.22 26.8811 235.77 27.1765C236.32 27.4673 236.748 27.8679 237.052 28.3781C237.357 28.8883 237.54 29.4745 237.603 30.1369H235.757C235.721 29.7251 235.631 29.3761 235.488 29.0896C235.349 28.8032 235.139 28.5862 234.857 28.4385C234.58 28.2863 234.21 28.2103 233.749 28.2103C233.391 28.2103 233.076 28.2774 232.803 28.4116C232.534 28.5459 232.311 28.7473 232.132 29.0158C231.953 29.2798 231.818 29.611 231.729 30.0093C231.639 30.4032 231.595 30.8596 231.595 31.3788V32.1373C231.595 32.6341 231.635 33.0794 231.715 33.4732C231.796 33.867 231.921 34.2005 232.091 34.4734C232.261 34.7464 232.481 34.9545 232.749 35.0977C233.018 35.241 233.338 35.3126 233.709 35.3126C234.161 35.3126 234.528 35.241 234.81 35.0977C235.096 34.9545 235.314 34.7442 235.461 34.4667C235.613 34.1893 235.71 33.8447 235.75 33.4329Z" fill="white"/>
<path d="M226.679 31.513V32.0165C226.679 32.7549 226.581 33.4195 226.384 34.0103C226.187 34.5965 225.907 35.0955 225.545 35.5072C225.182 35.919 224.75 36.2345 224.249 36.4538C223.748 36.6731 223.191 36.7827 222.577 36.7827C221.973 36.7827 221.418 36.6731 220.913 36.4538C220.411 36.2345 219.977 35.919 219.61 35.5072C219.243 35.0955 218.959 34.5965 218.758 34.0103C218.556 33.4195 218.456 32.7549 218.456 32.0165V31.513C218.456 30.7701 218.556 30.1055 218.758 29.5193C218.959 28.933 219.241 28.434 219.604 28.0223C219.966 27.6061 220.398 27.2883 220.899 27.069C221.405 26.8498 221.96 26.7401 222.564 26.7401C223.177 26.7401 223.734 26.8498 224.236 27.069C224.737 27.2883 225.169 27.6061 225.531 28.0223C225.898 28.434 226.18 28.933 226.377 29.5193C226.578 30.1055 226.679 30.7701 226.679 31.513ZM224.813 32.0165V31.4996C224.813 30.967 224.764 30.4994 224.665 30.0966C224.567 29.6893 224.421 29.347 224.229 29.0695C224.036 28.792 223.799 28.5839 223.517 28.4452C223.235 28.302 222.918 28.2304 222.564 28.2304C222.206 28.2304 221.888 28.302 221.611 28.4452C221.338 28.5839 221.105 28.792 220.913 29.0695C220.72 29.347 220.572 29.6893 220.47 30.0966C220.371 30.4994 220.322 30.967 220.322 31.4996V32.0165C220.322 32.5446 220.371 33.0123 220.47 33.4195C220.572 33.8268 220.72 34.1714 220.913 34.4533C221.11 34.7308 221.347 34.9411 221.624 35.0843C221.902 35.2275 222.219 35.2991 222.577 35.2991C222.935 35.2991 223.253 35.2275 223.531 35.0843C223.808 34.9411 224.041 34.7308 224.229 34.4533C224.421 34.1714 224.567 33.8268 224.665 33.4195C224.764 33.0123 224.813 32.5446 224.813 32.0165Z" fill="white"/>
<path d="M210.942 36.6484H208.834L208.848 35.1984H210.942C211.511 35.1984 211.987 35.0731 212.372 34.8225C212.757 34.5674 213.048 34.2027 213.245 33.7283C213.442 33.2494 213.54 32.6766 213.54 32.0098V31.5063C213.54 30.9916 213.484 30.5374 213.372 30.1436C213.26 29.7497 213.095 29.4186 212.876 29.1501C212.661 28.8815 212.395 28.6779 212.077 28.5392C211.759 28.4004 211.394 28.3311 210.983 28.3311H208.794V26.8744H210.983C211.636 26.8744 212.231 26.984 212.768 27.2033C213.31 27.4226 213.777 27.7381 214.171 28.1498C214.57 28.5571 214.874 29.0449 215.084 29.6132C215.299 30.1816 215.406 30.8171 215.406 31.5197V32.0098C215.406 32.7079 215.299 33.3434 215.084 33.9163C214.874 34.4846 214.57 34.9724 214.171 35.3797C213.777 35.7869 213.307 36.1002 212.761 36.3195C212.215 36.5388 211.609 36.6484 210.942 36.6484ZM209.868 26.8744V36.6484H208.022V26.8744H209.868Z" fill="white"/>
<defs>
<linearGradient id="paint0_linear_4_150" x1="25.2458" y1="34.0743" x2="5.06011" y2="54.26" gradientUnits="userSpaceOnUse">
<stop stop-color="#FF6048"/>
<stop offset="1" stop-color="#FF9802"/>
</linearGradient>
<linearGradient id="paint1_linear_4_150" x1="36.6429" y1="33.9457" x2="56.8286" y2="54.1314" gradientUnits="userSpaceOnUse">
<stop stop-color="#FA5471"/>
<stop offset="1" stop-color="#FF55FA"/>
</linearGradient>
<linearGradient id="paint2_linear_4_150" x1="30.8571" y1="0.45285" x2="30.8571" y2="28.9957" gradientUnits="userSpaceOnUse">
<stop stop-color="#00FAFC"/>
<stop offset="1" stop-color="#0179BE"/>
</linearGradient>
</defs>
</svg>
