<svg width="1021" height="360" viewBox="0 0 1021 360" fill="none" xmlns="http://www.w3.org/2000/svg">
<g clip-path="url(#clip0_50_170)">
<rect width="1021" height="360" fill="#1E2028"/>
<circle cx="63.5129" cy="-68.4871" r="367.925" transform="rotate(-150.586 63.5129 -68.4871)" fill="url(#paint0_radial_50_170)" fill-opacity="0.3" stroke="#2C343D" stroke-width="1.94156"/>
<circle cx="781.513" cy="343.513" r="367.925" transform="rotate(-150.586 781.513 343.513)" fill="url(#paint1_radial_50_170)" fill-opacity="0.3" stroke="#2C343D" stroke-width="1.94156"/>
<rect x="193.426" y="172.426" width="635.147" height="218.147" rx="16.6294" fill="url(#paint2_linear_50_170)" stroke="#7D86A9" stroke-width="0.852792"/>
<g filter="url(#filter0_f_50_170)">
<rect x="154.203" y="91.0403" width="222.898" height="177.998" rx="14.8331" stroke="url(#paint3_linear_50_170)" stroke-width="2.40538"/>
</g>
<g filter="url(#filter1_f_50_170)">
<rect x="399.551" y="91.0403" width="222.898" height="177.998" rx="14.8331" stroke="url(#paint4_linear_50_170)" stroke-width="2.40538"/>
</g>
<g filter="url(#filter2_f_50_170)">
<rect x="644.899" y="91.0403" width="222.898" height="177.998" rx="14.8331" stroke="url(#paint5_linear_50_170)" stroke-width="2.40538"/>
</g>
<g filter="url(#filter3_b_50_170)">
<rect x="122" y="73" width="225.303" height="213.277" rx="16.0358" fill="url(#paint6_linear_50_170)" fill-opacity="0.3"/>
<rect x="123.203" y="74.2027" width="222.898" height="210.871" rx="14.8331" stroke="url(#paint7_linear_50_170)" stroke-width="2.40538"/>
</g>
<rect x="157.68" y="107.076" width="154.746" height="56.1254" rx="6.81523" fill="url(#paint8_linear_50_170)" stroke="#4E5A71" stroke-width="0.801792"/>
<path d="M176.522 151.111H186.044L193.325 139.909L211.808 137.109L220.77 146.07L232.532 141.03L239.814 132.628L247.655 141.03L261.658 132.628L266.138 128.147L275.66 125.907H284.622L293.584 120.306" stroke="url(#paint9_linear_50_170)" stroke-width="2.24041" stroke-linecap="round"/>
<path d="M199.487 213.912V192.544H204.889V213.912H199.487ZM191.504 205.929V200.527H212.872V205.929H191.504ZM218.263 218.62V213.912L229.264 203.726C230.2 202.821 230.985 202.006 231.619 201.281C232.262 200.557 232.75 199.848 233.082 199.154C233.414 198.449 233.58 197.69 233.58 196.875C233.58 195.969 233.374 195.19 232.962 194.536C232.549 193.872 231.986 193.364 231.271 193.012C230.557 192.65 229.747 192.468 228.842 192.468C227.896 192.468 227.071 192.66 226.367 193.042C225.663 193.424 225.12 193.973 224.737 194.687C224.355 195.401 224.164 196.251 224.164 197.237H217.962C217.962 195.215 218.419 193.459 219.335 191.971C220.25 190.482 221.533 189.33 223.183 188.515C224.833 187.7 226.734 187.292 228.887 187.292C231.1 187.292 233.027 187.685 234.667 188.469C236.317 189.244 237.599 190.321 238.515 191.699C239.43 193.077 239.888 194.657 239.888 196.437C239.888 197.604 239.657 198.756 239.194 199.893C238.741 201.03 237.931 202.292 236.764 203.681C235.597 205.059 233.953 206.714 231.83 208.646L227.318 213.067V213.278H240.296V218.62H218.263ZM257.148 219.299C254.552 219.289 252.319 218.651 250.448 217.383C248.587 216.115 247.153 214.279 246.147 211.875C245.151 209.47 244.658 206.578 244.668 203.198C244.668 199.828 245.166 196.955 246.162 194.581C247.168 192.207 248.602 190.401 250.463 189.164C252.334 187.916 254.562 187.292 257.148 187.292C259.733 187.292 261.957 187.916 263.818 189.164C265.689 190.411 267.128 192.222 268.134 194.596C269.14 196.96 269.638 199.828 269.628 203.198C269.628 206.588 269.125 209.486 268.119 211.89C267.123 214.294 265.694 216.13 263.833 217.398C261.972 218.666 259.744 219.299 257.148 219.299ZM257.148 213.882C258.919 213.882 260.332 212.992 261.388 211.211C262.445 209.43 262.968 206.759 262.958 203.198C262.958 200.854 262.716 198.902 262.233 197.343C261.761 195.783 261.087 194.611 260.211 193.827C259.346 193.042 258.325 192.65 257.148 192.65C255.387 192.65 253.979 193.53 252.923 195.29C251.866 197.051 251.333 199.687 251.323 203.198C251.323 205.572 251.559 207.554 252.032 209.144C252.515 210.723 253.194 211.91 254.07 212.705C254.945 213.49 255.971 213.882 257.148 213.882Z" fill="white"/>
<path d="M156.381 249.16V237.498H163.419V238.751H157.793V242.691H163.055V243.944H157.793V247.907H163.51V249.16H156.381ZM166.785 240.413L168.88 243.989L170.976 240.413H172.525L169.7 244.787L172.525 249.16H170.976L168.88 245.766L166.785 249.16H165.236L168.015 244.787L165.236 240.413H166.785ZM177.749 249.342C176.907 249.342 176.18 249.156 175.568 248.784C174.961 248.408 174.492 247.885 174.162 247.213C173.835 246.537 173.672 245.751 173.672 244.855C173.672 243.959 173.835 243.169 174.162 242.486C174.492 241.799 174.952 241.264 175.54 240.88C176.132 240.493 176.823 240.299 177.613 240.299C178.068 240.299 178.518 240.375 178.962 240.527C179.407 240.679 179.811 240.926 180.175 241.267C180.54 241.605 180.83 242.053 181.047 242.611C181.263 243.169 181.371 243.857 181.371 244.673V245.242H174.629V244.081H180.004C180.004 243.587 179.906 243.147 179.708 242.759C179.515 242.372 179.238 242.067 178.877 241.843C178.52 241.619 178.099 241.507 177.613 241.507C177.077 241.507 176.614 241.64 176.223 241.905C175.836 242.167 175.538 242.509 175.329 242.93C175.12 243.352 175.016 243.803 175.016 244.286V245.06C175.016 245.721 175.13 246.281 175.358 246.74C175.589 247.196 175.91 247.543 176.32 247.782C176.73 248.017 177.207 248.135 177.749 248.135C178.102 248.135 178.421 248.086 178.706 247.987C178.995 247.885 179.243 247.733 179.452 247.531C179.661 247.326 179.822 247.072 179.936 246.768L181.234 247.133C181.098 247.573 180.868 247.96 180.545 248.295C180.223 248.625 179.824 248.883 179.35 249.069C178.875 249.251 178.342 249.342 177.749 249.342ZM186.969 249.342C186.149 249.342 185.443 249.149 184.851 248.762C184.258 248.374 183.803 247.841 183.484 247.161C183.165 246.482 183.005 245.705 183.005 244.832C183.005 243.944 183.169 243.16 183.495 242.48C183.826 241.797 184.285 241.264 184.873 240.88C185.466 240.493 186.156 240.299 186.946 240.299C187.561 240.299 188.115 240.413 188.609 240.641C189.102 240.869 189.507 241.188 189.822 241.598C190.137 242.008 190.332 242.486 190.408 243.033H189.064C188.962 242.634 188.734 242.281 188.381 241.974C188.032 241.662 187.561 241.507 186.969 241.507C186.445 241.507 185.986 241.643 185.591 241.917C185.2 242.186 184.894 242.568 184.674 243.061C184.458 243.551 184.349 244.126 184.349 244.787C184.349 245.462 184.456 246.051 184.668 246.552C184.885 247.053 185.188 247.442 185.579 247.719C185.974 247.997 186.437 248.135 186.969 248.135C187.318 248.135 187.635 248.074 187.92 247.953C188.205 247.831 188.446 247.657 188.643 247.429C188.841 247.201 188.981 246.928 189.064 246.609H190.408C190.332 247.125 190.145 247.59 189.845 248.004C189.549 248.414 189.156 248.741 188.666 248.984C188.18 249.223 187.614 249.342 186.969 249.342ZM197.885 245.584V240.413H199.229V249.16H197.885V247.68H197.794C197.589 248.124 197.27 248.501 196.838 248.813C196.405 249.12 195.858 249.274 195.198 249.274C194.651 249.274 194.165 249.154 193.74 248.915C193.315 248.672 192.98 248.308 192.737 247.822C192.495 247.332 192.373 246.715 192.373 245.971V240.413H193.717V245.88C193.717 246.518 193.895 247.027 194.252 247.406C194.613 247.786 195.072 247.976 195.63 247.976C195.964 247.976 196.304 247.89 196.65 247.719C196.999 247.549 197.291 247.287 197.527 246.934C197.766 246.58 197.885 246.131 197.885 245.584ZM205.495 240.413V241.552H200.962V240.413H205.495ZM202.283 238.318H203.627V246.655C203.627 247.034 203.682 247.319 203.792 247.509C203.906 247.695 204.05 247.82 204.225 247.885C204.403 247.945 204.591 247.976 204.789 247.976C204.937 247.976 205.058 247.968 205.153 247.953C205.248 247.934 205.324 247.919 205.381 247.907L205.654 249.115C205.563 249.149 205.436 249.183 205.273 249.217C205.109 249.255 204.902 249.274 204.652 249.274C204.272 249.274 203.9 249.192 203.536 249.029C203.175 248.866 202.875 248.617 202.636 248.283C202.401 247.949 202.283 247.528 202.283 247.019V238.318ZM211.09 249.342C210.247 249.342 209.52 249.156 208.909 248.784C208.301 248.408 207.832 247.885 207.502 247.213C207.176 246.537 207.012 245.751 207.012 244.855C207.012 243.959 207.176 243.169 207.502 242.486C207.832 241.799 208.292 241.264 208.88 240.88C209.472 240.493 210.163 240.299 210.953 240.299C211.408 240.299 211.858 240.375 212.302 240.527C212.747 240.679 213.151 240.926 213.515 241.267C213.88 241.605 214.17 242.053 214.387 242.611C214.603 243.169 214.711 243.857 214.711 244.673V245.242H207.969V244.081H213.345C213.345 243.587 213.246 243.147 213.048 242.759C212.855 242.372 212.578 242.067 212.217 241.843C211.86 241.619 211.439 241.507 210.953 241.507C210.418 241.507 209.954 241.64 209.563 241.905C209.176 242.167 208.878 242.509 208.669 242.93C208.461 243.352 208.356 243.803 208.356 244.286V245.06C208.356 245.721 208.47 246.281 208.698 246.74C208.929 247.196 209.25 247.543 209.66 247.782C210.07 248.017 210.547 248.135 211.09 248.135C211.443 248.135 211.762 248.086 212.046 247.987C212.335 247.885 212.583 247.733 212.792 247.531C213.001 247.326 213.162 247.072 213.276 246.768L214.575 247.133C214.438 247.573 214.208 247.96 213.886 248.295C213.563 248.625 213.164 248.883 212.69 249.069C212.215 249.251 211.682 249.342 211.09 249.342ZM220.058 249.342C219.33 249.342 218.686 249.158 218.128 248.79C217.57 248.418 217.133 247.894 216.818 247.218C216.503 246.539 216.346 245.736 216.346 244.809C216.346 243.891 216.503 243.094 216.818 242.418C217.133 241.742 217.572 241.22 218.134 240.852C218.696 240.484 219.345 240.299 220.081 240.299C220.651 240.299 221.101 240.394 221.431 240.584C221.765 240.77 222.019 240.983 222.194 241.222C222.372 241.457 222.511 241.651 222.61 241.803H222.724V237.498H224.067V249.16H222.769V247.816H222.61C222.511 247.976 222.37 248.177 222.188 248.42C222.006 248.659 221.746 248.874 221.408 249.063C221.07 249.249 220.62 249.342 220.058 249.342ZM220.241 248.135C220.78 248.135 221.235 247.995 221.607 247.714C221.979 247.429 222.262 247.036 222.456 246.535C222.649 246.03 222.746 245.447 222.746 244.787C222.746 244.134 222.651 243.562 222.462 243.073C222.272 242.579 221.991 242.196 221.619 241.922C221.247 241.645 220.787 241.507 220.241 241.507C219.671 241.507 219.197 241.653 218.817 241.945C218.441 242.234 218.158 242.627 217.969 243.124C217.783 243.617 217.69 244.172 217.69 244.787C217.69 245.409 217.784 245.975 217.974 246.484C218.168 246.989 218.453 247.391 218.828 247.691C219.208 247.987 219.679 248.135 220.241 248.135ZM240.792 241.142H239.38C239.297 240.736 239.15 240.379 238.942 240.072C238.737 239.764 238.486 239.506 238.19 239.297C237.898 239.085 237.573 238.925 237.216 238.819C236.859 238.713 236.487 238.659 236.1 238.659C235.394 238.659 234.754 238.838 234.181 239.195C233.611 239.552 233.158 240.077 232.82 240.772C232.486 241.467 232.319 242.319 232.319 243.329C232.319 244.339 232.486 245.191 232.82 245.886C233.158 246.58 233.611 247.106 234.181 247.463C234.754 247.82 235.394 247.998 236.1 247.998C236.487 247.998 236.859 247.945 237.216 247.839C237.573 247.733 237.898 247.575 238.19 247.366C238.486 247.154 238.737 246.894 238.942 246.586C239.15 246.275 239.297 245.918 239.38 245.516H240.792C240.686 246.112 240.492 246.645 240.211 247.116C239.931 247.587 239.581 247.987 239.164 248.317C238.746 248.644 238.277 248.892 237.757 249.063C237.241 249.234 236.688 249.32 236.1 249.32C235.105 249.32 234.221 249.077 233.446 248.591C232.672 248.105 232.063 247.414 231.618 246.518C231.174 245.622 230.952 244.559 230.952 243.329C230.952 242.099 231.174 241.036 231.618 240.14C232.063 239.244 232.672 238.553 233.446 238.067C234.221 237.581 235.105 237.338 236.1 237.338C236.688 237.338 237.241 237.424 237.757 237.595C238.277 237.765 238.746 238.016 239.164 238.346C239.581 238.673 239.931 239.071 240.211 239.542C240.492 240.009 240.686 240.542 240.792 241.142ZM245.466 249.365C244.912 249.365 244.409 249.261 243.957 249.052C243.505 248.839 243.147 248.534 242.881 248.135C242.615 247.733 242.482 247.247 242.482 246.677C242.482 246.176 242.581 245.77 242.778 245.459C242.976 245.144 243.24 244.897 243.57 244.718C243.9 244.54 244.265 244.407 244.663 244.32C245.066 244.229 245.47 244.157 245.876 244.103C246.408 244.035 246.838 243.984 247.169 243.95C247.503 243.912 247.746 243.849 247.898 243.762C248.053 243.674 248.131 243.523 248.131 243.306V243.261C248.131 242.699 247.977 242.262 247.67 241.951C247.366 241.64 246.905 241.484 246.286 241.484C245.645 241.484 245.142 241.624 244.777 241.905C244.413 242.186 244.156 242.486 244.008 242.805L242.733 242.349C242.96 241.818 243.264 241.404 243.644 241.108C244.027 240.808 244.445 240.599 244.897 240.482C245.352 240.36 245.8 240.299 246.241 240.299C246.521 240.299 246.844 240.334 247.209 240.402C247.577 240.466 247.932 240.601 248.274 240.806C248.619 241.011 248.906 241.321 249.133 241.734C249.361 242.148 249.475 242.703 249.475 243.397V249.16H248.131V247.976H248.063C247.972 248.165 247.82 248.369 247.607 248.585C247.395 248.801 247.112 248.985 246.759 249.137C246.406 249.289 245.975 249.365 245.466 249.365ZM245.671 248.158C246.203 248.158 246.651 248.053 247.015 247.845C247.383 247.636 247.66 247.366 247.846 247.036C248.036 246.706 248.131 246.358 248.131 245.994V244.764C248.074 244.832 247.949 244.895 247.755 244.952C247.565 245.005 247.345 245.052 247.095 245.094C246.848 245.132 246.607 245.166 246.372 245.197C246.14 245.223 245.952 245.246 245.808 245.265C245.459 245.311 245.132 245.385 244.828 245.487C244.528 245.586 244.285 245.736 244.099 245.937C243.917 246.134 243.826 246.404 243.826 246.746C243.826 247.213 243.999 247.566 244.344 247.805C244.694 248.04 245.136 248.158 245.671 248.158ZM251.928 249.16V240.413H253.226V241.78H253.34C253.522 241.313 253.817 240.95 254.223 240.692C254.629 240.43 255.117 240.299 255.686 240.299C256.263 240.299 256.744 240.43 257.127 240.692C257.514 240.95 257.816 241.313 258.033 241.78H258.124C258.348 241.328 258.684 240.969 259.132 240.704C259.58 240.434 260.117 240.299 260.743 240.299C261.525 240.299 262.165 240.544 262.662 241.034C263.16 241.52 263.408 242.277 263.408 243.306V249.16H262.064V243.306C262.064 242.661 261.888 242.199 261.535 241.922C261.182 241.645 260.766 241.507 260.288 241.507C259.673 241.507 259.196 241.693 258.858 242.065C258.52 242.433 258.351 242.9 258.351 243.466V249.16H256.985V243.169C256.985 242.672 256.823 242.272 256.501 241.968C256.178 241.66 255.762 241.507 255.254 241.507C254.904 241.507 254.578 241.6 254.274 241.786C253.974 241.972 253.731 242.23 253.545 242.56C253.363 242.887 253.272 243.264 253.272 243.693V249.16H251.928ZM265.865 252.44V240.413H267.164V241.803H267.323C267.422 241.651 267.559 241.457 267.733 241.222C267.912 240.983 268.166 240.77 268.496 240.584C268.83 240.394 269.282 240.299 269.852 240.299C270.588 240.299 271.237 240.484 271.799 240.852C272.361 241.22 272.799 241.742 273.115 242.418C273.43 243.094 273.587 243.891 273.587 244.809C273.587 245.736 273.43 246.539 273.115 247.218C272.799 247.894 272.363 248.418 271.805 248.79C271.247 249.158 270.603 249.342 269.874 249.342C269.312 249.342 268.863 249.249 268.525 249.063C268.187 248.874 267.927 248.659 267.745 248.42C267.562 248.177 267.422 247.976 267.323 247.816H267.209V252.44H265.865ZM267.187 244.787C267.187 245.447 267.283 246.03 267.477 246.535C267.671 247.036 267.953 247.429 268.325 247.714C268.697 247.995 269.153 248.135 269.692 248.135C270.254 248.135 270.723 247.987 271.099 247.691C271.478 247.391 271.763 246.989 271.953 246.484C272.146 245.975 272.243 245.409 272.243 244.787C272.243 244.172 272.148 243.617 271.959 243.124C271.773 242.627 271.49 242.234 271.11 241.945C270.734 241.653 270.262 241.507 269.692 241.507C269.145 241.507 268.686 241.645 268.314 241.922C267.942 242.196 267.661 242.579 267.471 243.073C267.281 243.562 267.187 244.134 267.187 244.787ZM278.211 249.365C277.657 249.365 277.154 249.261 276.702 249.052C276.25 248.839 275.892 248.534 275.626 248.135C275.36 247.733 275.227 247.247 275.227 246.677C275.227 246.176 275.326 245.77 275.523 245.459C275.721 245.144 275.985 244.897 276.315 244.718C276.645 244.54 277.01 244.407 277.408 244.32C277.811 244.229 278.215 244.157 278.621 244.103C279.153 244.035 279.584 243.984 279.914 243.95C280.248 243.912 280.491 243.849 280.643 243.762C280.798 243.674 280.876 243.523 280.876 243.306V243.261C280.876 242.699 280.722 242.262 280.415 241.951C280.111 241.64 279.65 241.484 279.031 241.484C278.39 241.484 277.887 241.624 277.522 241.905C277.158 242.186 276.901 242.486 276.753 242.805L275.478 242.349C275.706 241.818 276.009 241.404 276.389 241.108C276.772 240.808 277.19 240.599 277.642 240.482C278.097 240.36 278.545 240.299 278.986 240.299C279.267 240.299 279.589 240.334 279.954 240.402C280.322 240.466 280.677 240.601 281.019 240.806C281.364 241.011 281.651 241.321 281.878 241.734C282.106 242.148 282.22 242.703 282.22 243.397V249.16H280.876V247.976H280.808C280.717 248.165 280.565 248.369 280.352 248.585C280.14 248.801 279.857 248.985 279.504 249.137C279.151 249.289 278.72 249.365 278.211 249.365ZM278.416 248.158C278.948 248.158 279.396 248.053 279.76 247.845C280.128 247.636 280.405 247.366 280.591 247.036C280.781 246.706 280.876 246.358 280.876 245.994V244.764C280.819 244.832 280.694 244.895 280.5 244.952C280.311 245.005 280.09 245.052 279.84 245.094C279.593 245.132 279.352 245.166 279.117 245.197C278.885 245.223 278.697 245.246 278.553 245.265C278.204 245.311 277.877 245.385 277.573 245.487C277.273 245.586 277.03 245.736 276.844 245.937C276.662 246.134 276.571 246.404 276.571 246.746C276.571 247.213 276.744 247.566 277.089 247.805C277.439 248.04 277.881 248.158 278.416 248.158ZM284.673 249.16V240.413H286.017V249.16H284.673ZM285.356 238.956C285.094 238.956 284.869 238.866 284.679 238.688C284.493 238.509 284.4 238.295 284.4 238.044C284.4 237.794 284.493 237.579 284.679 237.401C284.869 237.222 285.094 237.133 285.356 237.133C285.618 237.133 285.842 237.222 286.028 237.401C286.218 237.579 286.313 237.794 286.313 238.044C286.313 238.295 286.218 238.509 286.028 238.688C285.842 238.866 285.618 238.956 285.356 238.956ZM292.009 252.622C291.36 252.622 290.802 252.539 290.335 252.372C289.868 252.209 289.479 251.992 289.167 251.723C288.86 251.457 288.615 251.172 288.433 250.868L289.503 250.117C289.625 250.276 289.779 250.458 289.965 250.663C290.151 250.872 290.405 251.053 290.728 251.204C291.054 251.36 291.481 251.438 292.009 251.438C292.715 251.438 293.298 251.267 293.757 250.925C294.217 250.584 294.446 250.048 294.446 249.32V247.543H294.332C294.234 247.702 294.093 247.9 293.911 248.135C293.733 248.367 293.474 248.574 293.137 248.756C292.802 248.934 292.351 249.023 291.781 249.023C291.075 249.023 290.441 248.856 289.879 248.522C289.321 248.188 288.879 247.702 288.552 247.065C288.23 246.427 288.068 245.652 288.068 244.741C288.068 243.845 288.226 243.065 288.541 242.401C288.856 241.733 289.295 241.216 289.856 240.852C290.418 240.484 291.068 240.299 291.804 240.299C292.373 240.299 292.825 240.394 293.159 240.584C293.497 240.77 293.755 240.983 293.934 241.222C294.116 241.457 294.256 241.651 294.355 241.803H294.492V240.413H295.79V249.411C295.79 250.162 295.619 250.774 295.278 251.244C294.94 251.719 294.484 252.066 293.911 252.286C293.342 252.51 292.708 252.622 292.009 252.622ZM291.963 247.816C292.503 247.816 292.958 247.693 293.33 247.446C293.702 247.199 293.985 246.844 294.179 246.381C294.372 245.918 294.469 245.364 294.469 244.718C294.469 244.088 294.374 243.532 294.184 243.05C293.995 242.568 293.714 242.19 293.342 241.917C292.97 241.643 292.51 241.507 291.963 241.507C291.394 241.507 290.919 241.651 290.54 241.939C290.164 242.228 289.881 242.615 289.691 243.101C289.505 243.587 289.412 244.126 289.412 244.718C289.412 245.326 289.507 245.863 289.697 246.33C289.891 246.793 290.175 247.158 290.551 247.423C290.931 247.685 291.402 247.816 291.963 247.816ZM299.594 243.898V249.16H298.25V240.413H299.549V241.78H299.662C299.867 241.336 300.179 240.979 300.596 240.709C301.014 240.436 301.553 240.299 302.214 240.299C302.806 240.299 303.324 240.421 303.768 240.664C304.212 240.903 304.558 241.267 304.805 241.757C305.051 242.243 305.175 242.858 305.175 243.602V249.16H303.831V243.693C303.831 243.006 303.652 242.471 303.296 242.088C302.939 241.7 302.449 241.507 301.826 241.507C301.397 241.507 301.014 241.6 300.676 241.786C300.342 241.972 300.078 242.243 299.885 242.6C299.691 242.957 299.594 243.39 299.594 243.898ZM313.826 242.372L312.619 242.714C312.543 242.513 312.431 242.317 312.283 242.127C312.139 241.934 311.941 241.774 311.691 241.649C311.44 241.524 311.119 241.461 310.728 241.461C310.193 241.461 309.747 241.584 309.39 241.831C309.037 242.074 308.861 242.384 308.861 242.759C308.861 243.094 308.982 243.357 309.225 243.551C309.468 243.745 309.848 243.906 310.364 244.035L311.662 244.354C312.444 244.544 313.027 244.834 313.411 245.225C313.794 245.612 313.986 246.112 313.986 246.723C313.986 247.224 313.841 247.672 313.553 248.067C313.268 248.462 312.87 248.773 312.357 249.001C311.845 249.228 311.249 249.342 310.569 249.342C309.677 249.342 308.938 249.149 308.354 248.762C307.769 248.374 307.399 247.809 307.243 247.065L308.519 246.746C308.64 247.216 308.87 247.569 309.208 247.805C309.55 248.04 309.996 248.158 310.546 248.158C311.173 248.158 311.67 248.025 312.038 247.759C312.41 247.49 312.596 247.167 312.596 246.791C312.596 246.487 312.49 246.233 312.277 246.028C312.065 245.819 311.738 245.664 311.298 245.561L309.84 245.22C309.039 245.03 308.451 244.735 308.075 244.337C307.703 243.934 307.517 243.431 307.517 242.828C307.517 242.334 307.655 241.898 307.932 241.518C308.213 241.138 308.595 240.84 309.077 240.624C309.563 240.408 310.113 240.299 310.728 240.299C311.594 240.299 312.274 240.489 312.767 240.869C313.264 241.249 313.617 241.75 313.826 242.372Z" fill="#7D86A9"/>
<g filter="url(#filter4_b_50_170)">
<rect x="674.606" y="73" width="225.303" height="213.277" rx="16.0358" fill="url(#paint10_linear_50_170)" fill-opacity="0.3"/>
<rect x="675.809" y="74.2027" width="222.898" height="210.871" rx="14.8331" stroke="url(#paint11_linear_50_170)" stroke-width="2.40538"/>
</g>
<rect x="710.287" y="107.076" width="154.746" height="56.1254" rx="6.81523" fill="url(#paint12_linear_50_170)" stroke="#4E5A71" stroke-width="0.801792"/>
<path d="M729.128 147.146L734.811 135.781L746.176 152.261L761.519 143.168L765.497 135.781L779.704 132.372L793.91 126.689L801.297 132.372L820.618 126.689L829.71 135.781L846.19 122.711" stroke="url(#paint13_linear_50_170)" stroke-width="2.27304" stroke-linecap="round"/>
<path d="M734.343 219.034C732.019 219.034 729.951 218.657 728.141 217.902C726.34 217.138 724.926 216.096 723.9 214.778C722.874 213.461 722.361 211.967 722.361 210.297C722.361 209.009 722.653 207.827 723.236 206.75C723.83 205.664 724.635 204.763 725.651 204.049C726.667 203.325 727.804 202.862 729.061 202.661V202.449C727.411 202.117 726.073 201.318 725.047 200.05C724.021 198.772 723.508 197.288 723.508 195.598C723.508 193.999 723.976 192.575 724.911 191.328C725.847 190.07 727.13 189.084 728.759 188.37C730.399 187.646 732.26 187.283 734.343 187.283C736.425 187.283 738.281 187.646 739.911 188.37C741.551 189.094 742.839 190.085 743.774 191.343C744.71 192.59 745.183 194.009 745.193 195.598C745.183 197.299 744.66 198.782 743.623 200.05C742.587 201.318 741.259 202.117 739.64 202.449V202.661C740.877 202.862 741.999 203.325 743.005 204.049C744.021 204.763 744.826 205.664 745.419 206.75C746.023 207.827 746.33 209.009 746.34 210.297C746.33 211.967 745.812 213.461 744.785 214.778C743.759 216.096 742.341 217.138 740.53 217.902C738.729 218.657 736.667 219.034 734.343 219.034ZM734.343 214.235C735.379 214.235 736.284 214.049 737.059 213.677C737.834 213.295 738.437 212.771 738.87 212.107C739.313 211.433 739.534 210.659 739.534 209.783C739.534 208.888 739.308 208.098 738.855 207.414C738.402 206.72 737.788 206.177 737.014 205.784C736.239 205.382 735.349 205.181 734.343 205.181C733.347 205.181 732.456 205.382 731.672 205.784C730.887 206.177 730.268 206.72 729.816 207.414C729.373 208.098 729.152 208.888 729.152 209.783C729.152 210.659 729.368 211.433 729.801 212.107C730.233 212.771 730.842 213.295 731.626 213.677C732.411 214.049 733.317 214.235 734.343 214.235ZM734.343 200.427C735.208 200.427 735.978 200.251 736.652 199.899C737.326 199.547 737.854 199.059 738.236 198.435C738.618 197.812 738.81 197.092 738.81 196.277C738.81 195.473 738.618 194.768 738.236 194.165C737.854 193.551 737.331 193.073 736.667 192.731C736.003 192.379 735.228 192.203 734.343 192.203C733.468 192.203 732.693 192.379 732.019 192.731C731.345 193.073 730.817 193.551 730.434 194.165C730.062 194.768 729.876 195.473 729.876 196.277C729.876 197.092 730.067 197.812 730.449 198.435C730.832 199.059 731.36 199.547 732.034 199.899C732.708 200.251 733.478 200.427 734.343 200.427ZM765.41 200.608V205.709H751.316V200.608H765.41ZM784.274 187.706V218.611H777.739V193.908H777.558L770.481 198.345V192.55L778.132 187.706H784.274ZM803.737 219.29C801.141 219.28 798.908 218.642 797.036 217.374C795.175 216.106 793.742 214.27 792.736 211.866C791.74 209.462 791.247 206.569 791.257 203.189C791.257 199.819 791.755 196.946 792.751 194.572C793.757 192.198 795.19 190.392 797.052 189.155C798.923 187.907 801.151 187.283 803.737 187.283C806.322 187.283 808.545 187.907 810.407 189.155C812.278 190.402 813.717 192.213 814.723 194.587C815.729 196.951 816.227 199.819 816.217 203.189C816.217 206.579 815.713 209.477 814.707 211.881C813.711 214.285 812.283 216.121 810.422 217.389C808.561 218.657 806.332 219.29 803.737 219.29ZM803.737 213.873C805.507 213.873 806.921 212.983 807.977 211.202C809.033 209.421 809.557 206.75 809.546 203.189C809.546 200.845 809.305 198.893 808.822 197.334C808.349 195.774 807.675 194.602 806.8 193.818C805.935 193.033 804.914 192.641 803.737 192.641C801.976 192.641 800.568 193.521 799.511 195.281C798.455 197.042 797.922 199.678 797.912 203.189C797.912 205.563 798.148 207.545 798.621 209.135C799.104 210.714 799.783 211.901 800.658 212.696C801.533 213.481 802.56 213.873 803.737 213.873ZM837.792 212.817V211.187C837.792 209.949 838.054 208.813 838.577 207.776C839.11 206.73 839.88 205.895 840.886 205.271C841.902 204.638 843.139 204.321 844.598 204.321C846.077 204.321 847.319 204.633 848.325 205.256C849.342 205.88 850.106 206.715 850.619 207.761C851.142 208.798 851.404 209.939 851.404 211.187V212.817C851.404 214.054 851.142 215.196 850.619 216.242C850.096 217.278 849.326 218.108 848.31 218.732C847.294 219.366 846.057 219.683 844.598 219.683C843.119 219.683 841.877 219.366 840.871 218.732C839.865 218.108 839.1 217.278 838.577 216.242C838.054 215.196 837.792 214.054 837.792 212.817ZM842.184 211.187V212.817C842.184 213.531 842.355 214.205 842.697 214.839C843.049 215.473 843.683 215.789 844.598 215.789C845.514 215.789 846.137 215.478 846.469 214.854C846.811 214.23 846.982 213.551 846.982 212.817V211.187C846.982 210.452 846.821 209.768 846.499 209.135C846.178 208.501 845.544 208.184 844.598 208.184C843.693 208.184 843.064 208.501 842.712 209.135C842.36 209.768 842.184 210.452 842.184 211.187ZM821.932 195.131V193.501C821.932 192.253 822.199 191.111 822.732 190.075C823.265 189.029 824.035 188.194 825.041 187.57C826.057 186.946 827.284 186.635 828.723 186.635C830.212 186.635 831.459 186.946 832.465 187.57C833.471 188.194 834.236 189.029 834.759 190.075C835.282 191.111 835.544 192.253 835.544 193.501V195.131C835.544 196.378 835.277 197.52 834.744 198.556C834.221 199.592 833.451 200.422 832.435 201.046C831.429 201.66 830.192 201.967 828.723 201.967C827.254 201.967 826.012 201.655 824.995 201.031C823.989 200.397 823.225 199.567 822.702 198.541C822.189 197.505 821.932 196.368 821.932 195.131ZM826.354 193.501V195.131C826.354 195.865 826.525 196.544 826.867 197.168C827.219 197.792 827.837 198.103 828.723 198.103C829.648 198.103 830.277 197.792 830.609 197.168C830.951 196.544 831.122 195.865 831.122 195.131V193.501C831.122 192.766 830.961 192.082 830.639 191.448C830.317 190.815 829.679 190.498 828.723 190.498C827.827 190.498 827.209 190.82 826.867 191.464C826.525 192.107 826.354 192.786 826.354 193.501ZM823.924 218.611L845.171 187.706H849.125L827.878 218.611H823.924Z" fill="white"/>
<path d="M782.814 241.142H781.401C781.318 240.736 781.172 240.379 780.963 240.072C780.758 239.764 780.507 239.506 780.211 239.297C779.919 239.085 779.594 238.925 779.237 238.819C778.881 238.713 778.509 238.659 778.121 238.659C777.415 238.659 776.775 238.838 776.202 239.195C775.633 239.552 775.179 240.077 774.841 240.772C774.507 241.467 774.34 242.319 774.34 243.329C774.34 244.339 774.507 245.191 774.841 245.886C775.179 246.58 775.633 247.106 776.202 247.463C776.775 247.82 777.415 247.998 778.121 247.998C778.509 247.998 778.881 247.945 779.237 247.839C779.594 247.733 779.919 247.575 780.211 247.366C780.507 247.154 780.758 246.894 780.963 246.586C781.172 246.275 781.318 245.918 781.401 245.516H782.814C782.707 246.112 782.514 246.645 782.233 247.116C781.952 247.587 781.603 247.987 781.185 248.317C780.767 248.644 780.299 248.892 779.778 249.063C779.262 249.234 778.71 249.32 778.121 249.32C777.127 249.32 776.242 249.077 775.468 248.591C774.693 248.105 774.084 247.414 773.64 246.518C773.196 245.622 772.973 244.559 772.973 243.329C772.973 242.099 773.196 241.036 773.64 240.14C774.084 239.244 774.693 238.553 775.468 238.067C776.242 237.581 777.127 237.338 778.121 237.338C778.71 237.338 779.262 237.424 779.778 237.595C780.299 237.765 780.767 238.016 781.185 238.346C781.603 238.673 781.952 239.071 782.233 239.542C782.514 240.009 782.707 240.542 782.814 241.142ZM784.458 238.751V237.498H793.205V238.751H789.537V249.16H788.125V238.751H784.458ZM795.384 249.16V237.498H799.325C800.236 237.498 800.984 237.653 801.569 237.965C802.153 238.272 802.586 238.695 802.867 239.235C803.148 239.774 803.288 240.387 803.288 241.074C803.288 241.761 803.148 242.37 802.867 242.902C802.586 243.433 802.155 243.851 801.574 244.155C800.993 244.455 800.251 244.604 799.348 244.604H796.159V243.329H799.302C799.925 243.329 800.426 243.238 800.806 243.056C801.189 242.873 801.466 242.615 801.637 242.281C801.812 241.943 801.899 241.541 801.899 241.074C801.899 240.607 801.812 240.199 801.637 239.85C801.462 239.5 801.183 239.231 800.8 239.041C800.416 238.847 799.91 238.751 799.279 238.751H796.797V249.16H795.384ZM800.874 243.921L803.744 249.16H802.104L799.279 243.921H800.874Z" fill="#7D86A9"/>
<g filter="url(#filter5_b_50_170)">
<rect x="398.303" y="73" width="225.303" height="213.277" rx="16.0358" fill="url(#paint14_linear_50_170)" fill-opacity="0.3"/>
<rect x="399.506" y="74.2027" width="222.898" height="210.871" rx="14.8331" stroke="url(#paint15_linear_50_170)" stroke-width="2.40538"/>
</g>
<path d="M439.109 187.706V218.611H432.575V193.908H432.394L425.317 198.345V192.55L432.968 187.706H439.109ZM457.742 219.034C455.61 219.034 453.708 218.642 452.038 217.857C450.378 217.072 449.06 215.991 448.084 214.612C447.109 213.234 446.601 211.655 446.56 209.874H452.898C452.969 211.071 453.472 212.042 454.407 212.786C455.343 213.531 456.455 213.903 457.742 213.903C458.769 213.903 459.674 213.677 460.459 213.224C461.253 212.761 461.872 212.122 462.315 211.308C462.768 210.483 462.994 209.537 462.994 208.471C462.994 207.384 462.763 206.428 462.3 205.603C461.847 204.778 461.218 204.135 460.413 203.672C459.609 203.209 458.688 202.973 457.652 202.963C456.746 202.963 455.866 203.149 455.011 203.521C454.166 203.893 453.507 204.401 453.034 205.045L447.224 204.004L448.688 187.706H467.581V193.048H454.075L453.276 200.789H453.457C454 200.025 454.82 199.391 455.916 198.888C457.013 198.385 458.24 198.134 459.599 198.134C461.46 198.134 463.12 198.571 464.578 199.446C466.037 200.322 467.189 201.524 468.034 203.053C468.879 204.572 469.297 206.323 469.287 208.305C469.297 210.387 468.814 212.238 467.838 213.858C466.872 215.468 465.519 216.735 463.779 217.661C462.048 218.576 460.036 219.034 457.742 219.034ZM485.962 219.29C483.366 219.28 481.133 218.642 479.262 217.374C477.4 216.106 475.967 214.27 474.961 211.866C473.965 209.462 473.472 206.569 473.482 203.189C473.482 199.819 473.98 196.946 474.976 194.572C475.982 192.198 477.415 190.392 479.277 189.155C481.148 187.907 483.376 187.283 485.962 187.283C488.547 187.283 490.771 187.907 492.632 189.155C494.503 190.402 495.942 192.213 496.948 194.587C497.954 196.951 498.452 199.819 498.442 203.189C498.442 206.579 497.939 209.477 496.933 211.881C495.937 214.285 494.508 216.121 492.647 217.389C490.786 218.657 488.557 219.29 485.962 219.29ZM485.962 213.873C487.732 213.873 489.146 212.983 490.202 211.202C491.259 209.421 491.782 206.75 491.772 203.189C491.772 200.845 491.53 198.893 491.047 197.334C490.574 195.774 489.9 194.602 489.025 193.818C488.16 193.033 487.139 192.641 485.962 192.641C484.201 192.641 482.793 193.521 481.736 195.281C480.68 197.042 480.147 199.678 480.137 203.189C480.137 205.563 480.373 207.545 480.846 209.135C481.329 210.714 482.008 211.901 482.883 212.696C483.759 213.481 484.785 213.873 485.962 213.873ZM508.903 214.386L508.737 216.046C508.606 217.374 508.355 218.697 507.983 220.015C507.62 221.343 507.238 222.545 506.836 223.621C506.443 224.698 506.126 225.543 505.885 226.157H501.72C501.871 225.563 502.077 224.733 502.339 223.667C502.6 222.61 502.847 221.423 503.078 220.105C503.31 218.787 503.455 217.444 503.516 216.076L503.591 214.386H508.903ZM525.593 219.29C522.998 219.28 520.764 218.642 518.893 217.374C517.032 216.106 515.598 214.27 514.592 211.866C513.596 209.462 513.103 206.569 513.113 203.189C513.113 199.819 513.611 196.946 514.607 194.572C515.613 192.198 517.047 190.392 518.908 189.155C520.779 187.907 523.008 187.283 525.593 187.283C528.179 187.283 530.402 187.907 532.263 189.155C534.135 190.402 535.573 192.213 536.579 194.587C537.585 196.951 538.083 199.819 538.073 203.189C538.073 206.579 537.57 209.477 536.564 211.881C535.568 214.285 534.14 216.121 532.278 217.389C530.417 218.657 528.189 219.29 525.593 219.29ZM525.593 213.873C527.364 213.873 528.777 212.983 529.834 211.202C530.89 209.421 531.413 206.75 531.403 203.189C531.403 200.845 531.162 198.893 530.679 197.334C530.206 195.774 529.532 194.602 528.657 193.818C527.791 193.033 526.77 192.641 525.593 192.641C523.833 192.641 522.424 193.521 521.368 195.281C520.312 197.042 519.778 199.678 519.768 203.189C519.768 205.563 520.005 207.545 520.478 209.135C520.96 210.714 521.64 211.901 522.515 212.696C523.39 213.481 524.416 213.873 525.593 213.873ZM554.85 219.29C552.254 219.28 550.021 218.642 548.15 217.374C546.289 216.106 544.855 214.27 543.849 211.866C542.853 209.462 542.36 206.569 542.37 203.189C542.37 199.819 542.868 196.946 543.864 194.572C544.87 192.198 546.304 190.392 548.165 189.155C550.036 187.907 552.265 187.283 554.85 187.283C557.436 187.283 559.659 187.907 561.52 189.155C563.391 190.402 564.83 192.213 565.836 194.587C566.842 196.951 567.34 199.819 567.33 203.189C567.33 206.579 566.827 209.477 565.821 211.881C564.825 214.285 563.396 216.121 561.535 217.389C559.674 218.657 557.446 219.29 554.85 219.29ZM554.85 213.873C556.621 213.873 558.034 212.983 559.09 211.202C560.147 209.421 560.67 206.75 560.66 203.189C560.66 200.845 560.418 198.893 559.936 197.334C559.463 195.774 558.789 194.602 557.913 193.818C557.048 193.033 556.027 192.641 554.85 192.641C553.089 192.641 551.681 193.521 550.625 195.281C549.568 197.042 549.035 199.678 549.025 203.189C549.025 205.563 549.262 207.545 549.734 209.135C550.217 210.714 550.896 211.901 551.772 212.696C552.647 213.481 553.673 213.873 554.85 213.873ZM584.107 219.29C581.511 219.28 579.278 218.642 577.407 217.374C575.545 216.106 574.112 214.27 573.106 211.866C572.11 209.462 571.617 206.569 571.627 203.189C571.627 199.819 572.125 196.946 573.121 194.572C574.127 192.198 575.561 190.392 577.422 189.155C579.293 187.907 581.521 187.283 584.107 187.283C586.692 187.283 588.916 187.907 590.777 189.155C592.648 190.402 594.087 192.213 595.093 194.587C596.099 196.951 596.597 199.819 596.587 203.189C596.587 206.579 596.084 209.477 595.078 211.881C594.082 214.285 592.653 216.121 590.792 217.389C588.931 218.657 586.702 219.29 584.107 219.29ZM584.107 213.873C585.877 213.873 587.291 212.983 588.347 211.202C589.404 209.421 589.927 206.75 589.917 203.189C589.917 200.845 589.675 198.893 589.192 197.334C588.72 195.774 588.045 194.602 587.17 193.818C586.305 193.033 585.284 192.641 584.107 192.641C582.346 192.641 580.938 193.521 579.881 195.281C578.825 197.042 578.292 199.678 578.282 203.189C578.282 205.563 578.518 207.545 578.991 209.135C579.474 210.714 580.153 211.901 581.028 212.696C581.904 213.481 582.93 213.873 584.107 213.873Z" fill="white"/>
<path d="M431.298 243.329C431.298 244.559 431.076 245.622 430.632 246.518C430.187 247.414 429.578 248.105 428.804 248.591C428.029 249.077 427.145 249.32 426.15 249.32C425.155 249.32 424.271 249.077 423.496 248.591C422.722 248.105 422.113 247.414 421.668 246.518C421.224 245.622 421.002 244.559 421.002 243.329C421.002 242.099 421.224 241.036 421.668 240.14C422.113 239.244 422.722 238.553 423.496 238.067C424.271 237.581 425.155 237.338 426.15 237.338C427.145 237.338 428.029 237.581 428.804 238.067C429.578 238.553 430.187 239.244 430.632 240.14C431.076 241.036 431.298 242.099 431.298 243.329ZM429.931 243.329C429.931 242.319 429.762 241.467 429.424 240.772C429.09 240.077 428.637 239.552 428.063 239.195C427.494 238.838 426.856 238.659 426.15 238.659C425.444 238.659 424.804 238.838 424.231 239.195C423.661 239.552 423.208 240.077 422.87 240.772C422.536 241.467 422.369 242.319 422.369 243.329C422.369 244.339 422.536 245.191 422.87 245.886C423.208 246.58 423.661 247.106 424.231 247.463C424.804 247.82 425.444 247.998 426.15 247.998C426.856 247.998 427.494 247.82 428.063 247.463C428.637 247.106 429.09 246.58 429.424 245.886C429.762 245.191 429.931 244.339 429.931 243.329ZM434.834 243.898V249.16H433.49V240.413H434.789V241.78H434.902C435.107 241.336 435.419 240.979 435.836 240.709C436.254 240.436 436.793 240.299 437.454 240.299C438.046 240.299 438.564 240.421 439.008 240.664C439.452 240.903 439.798 241.267 440.045 241.757C440.291 242.243 440.415 242.858 440.415 243.602V249.16H439.071V243.693C439.071 243.006 438.892 242.471 438.536 242.088C438.179 241.7 437.689 241.507 437.066 241.507C436.637 241.507 436.254 241.6 435.916 241.786C435.582 241.972 435.318 242.243 435.125 242.6C434.931 242.957 434.834 243.39 434.834 243.898ZM447.882 243.534V244.787H442.779V243.534H447.882ZM453.8 249.342C452.98 249.342 452.274 249.149 451.681 248.762C451.089 248.374 450.634 247.841 450.315 247.161C449.996 246.482 449.836 245.705 449.836 244.832C449.836 243.944 450 243.16 450.326 242.48C450.656 241.797 451.116 241.264 451.704 240.88C452.296 240.493 452.987 240.299 453.777 240.299C454.392 240.299 454.946 240.413 455.44 240.641C455.933 240.869 456.338 241.188 456.653 241.598C456.968 242.008 457.163 242.486 457.239 243.033H455.895C455.793 242.634 455.565 242.281 455.212 241.974C454.863 241.662 454.392 241.507 453.8 241.507C453.276 241.507 452.817 241.643 452.422 241.917C452.031 242.186 451.725 242.568 451.505 243.061C451.289 243.551 451.18 244.126 451.18 244.787C451.18 245.462 451.287 246.051 451.499 246.552C451.716 247.053 452.019 247.442 452.41 247.719C452.805 247.997 453.268 248.135 453.8 248.135C454.149 248.135 454.466 248.074 454.751 247.953C455.036 247.831 455.277 247.657 455.474 247.429C455.671 247.201 455.812 246.928 455.895 246.609H457.239C457.163 247.125 456.975 247.59 456.676 248.004C456.379 248.414 455.987 248.741 455.497 248.984C455.011 249.223 454.445 249.342 453.8 249.342ZM460.548 243.898V249.16H459.204V237.498H460.548V241.78H460.662C460.867 241.328 461.174 240.969 461.584 240.704C461.998 240.434 462.549 240.299 463.236 240.299C463.832 240.299 464.354 240.419 464.802 240.658C465.25 240.894 465.597 241.256 465.844 241.746C466.094 242.232 466.22 242.851 466.22 243.602V249.16H464.876V243.693C464.876 242.999 464.695 242.461 464.335 242.082C463.978 241.698 463.482 241.507 462.848 241.507C462.408 241.507 462.013 241.6 461.664 241.786C461.318 241.972 461.045 242.243 460.844 242.6C460.647 242.957 460.548 243.39 460.548 243.898ZM471.252 249.365C470.698 249.365 470.195 249.261 469.743 249.052C469.291 248.839 468.933 248.534 468.667 248.135C468.401 247.733 468.268 247.247 468.268 246.677C468.268 246.176 468.367 245.77 468.564 245.459C468.762 245.144 469.026 244.897 469.356 244.718C469.686 244.54 470.051 244.407 470.449 244.32C470.852 244.229 471.256 244.157 471.662 244.103C472.194 244.035 472.625 243.984 472.955 243.95C473.289 243.912 473.532 243.849 473.684 243.762C473.839 243.674 473.917 243.523 473.917 243.306V243.261C473.917 242.699 473.763 242.262 473.456 241.951C473.152 241.64 472.691 241.484 472.072 241.484C471.431 241.484 470.928 241.624 470.563 241.905C470.199 242.186 469.942 242.486 469.794 242.805L468.519 242.349C468.747 241.818 469.05 241.404 469.43 241.108C469.813 240.808 470.231 240.599 470.683 240.482C471.138 240.36 471.586 240.299 472.027 240.299C472.308 240.299 472.63 240.334 472.995 240.402C473.363 240.466 473.718 240.601 474.06 240.806C474.405 241.011 474.692 241.321 474.919 241.734C475.147 242.148 475.261 242.703 475.261 243.397V249.16H473.917V247.976H473.849C473.758 248.165 473.606 248.369 473.393 248.585C473.181 248.801 472.898 248.985 472.545 249.137C472.192 249.289 471.761 249.365 471.252 249.365ZM471.457 248.158C471.989 248.158 472.437 248.053 472.801 247.845C473.169 247.636 473.446 247.366 473.632 247.036C473.822 246.706 473.917 246.358 473.917 245.994V244.764C473.86 244.832 473.735 244.895 473.541 244.952C473.352 245.005 473.131 245.052 472.881 245.094C472.634 245.132 472.393 245.166 472.158 245.197C471.926 245.223 471.738 245.246 471.594 245.265C471.245 245.311 470.918 245.385 470.614 245.487C470.314 245.586 470.071 245.736 469.885 245.937C469.703 246.134 469.612 246.404 469.612 246.746C469.612 247.213 469.785 247.566 470.13 247.805C470.48 248.04 470.922 248.158 471.457 248.158ZM477.714 249.16V240.413H479.058V249.16H477.714ZM478.397 238.956C478.135 238.956 477.91 238.866 477.72 238.688C477.534 238.509 477.441 238.295 477.441 238.044C477.441 237.794 477.534 237.579 477.72 237.401C477.91 237.222 478.135 237.133 478.397 237.133C478.659 237.133 478.883 237.222 479.069 237.401C479.259 237.579 479.354 237.794 479.354 238.044C479.354 238.295 479.259 238.509 479.069 238.688C478.883 238.866 478.659 238.956 478.397 238.956ZM482.863 243.898V249.16H481.519V240.413H482.818V241.78H482.932C483.137 241.336 483.448 240.979 483.866 240.709C484.283 240.436 484.822 240.299 485.483 240.299C486.075 240.299 486.593 240.421 487.037 240.664C487.482 240.903 487.827 241.267 488.074 241.757C488.321 242.243 488.444 242.858 488.444 243.602V249.16H487.1V243.693C487.1 243.006 486.922 242.471 486.565 242.088C486.208 241.7 485.718 241.507 485.096 241.507C484.667 241.507 484.283 241.6 483.945 241.786C483.611 241.972 483.347 242.243 483.154 242.6C482.96 242.957 482.863 243.39 482.863 243.898ZM500.922 245.584V240.413H502.266V249.16H500.922V247.68H500.831C500.626 248.124 500.307 248.501 499.874 248.813C499.442 249.12 498.895 249.274 498.234 249.274C497.688 249.274 497.202 249.154 496.777 248.915C496.351 248.672 496.017 248.308 495.774 247.822C495.531 247.332 495.41 246.715 495.41 245.971V240.413H496.754V245.88C496.754 246.518 496.932 247.027 497.289 247.406C497.65 247.786 498.109 247.976 498.667 247.976C499.001 247.976 499.341 247.89 499.686 247.719C500.036 247.549 500.328 247.287 500.563 246.934C500.803 246.58 500.922 246.131 500.922 245.584ZM510.923 242.372L509.716 242.714C509.64 242.513 509.528 242.317 509.38 242.127C509.236 241.934 509.038 241.774 508.788 241.649C508.537 241.524 508.216 241.461 507.825 241.461C507.29 241.461 506.844 241.584 506.487 241.831C506.134 242.074 505.958 242.384 505.958 242.759C505.958 243.094 506.079 243.357 506.322 243.551C506.565 243.745 506.945 243.906 507.461 244.035L508.759 244.354C509.541 244.544 510.124 244.834 510.507 245.225C510.891 245.612 511.083 246.112 511.083 246.723C511.083 247.224 510.938 247.672 510.65 248.067C510.365 248.462 509.966 248.773 509.454 249.001C508.941 249.228 508.345 249.342 507.666 249.342C506.774 249.342 506.035 249.149 505.451 248.762C504.866 248.374 504.496 247.809 504.34 247.065L505.616 246.746C505.737 247.216 505.967 247.569 506.305 247.805C506.647 248.04 507.093 248.158 507.643 248.158C508.27 248.158 508.767 248.025 509.135 247.759C509.507 247.49 509.693 247.167 509.693 246.791C509.693 246.487 509.587 246.233 509.374 246.028C509.162 245.819 508.835 245.664 508.395 245.561L506.937 245.22C506.136 245.03 505.548 244.735 505.172 244.337C504.8 243.934 504.614 243.431 504.614 242.828C504.614 242.334 504.752 241.898 505.029 241.518C505.31 241.138 505.692 240.84 506.174 240.624C506.66 240.408 507.21 240.299 507.825 240.299C508.691 240.299 509.37 240.489 509.864 240.869C510.361 241.249 510.714 241.75 510.923 242.372ZM516.773 249.342C515.93 249.342 515.203 249.156 514.592 248.784C513.984 248.408 513.516 247.885 513.185 247.213C512.859 246.537 512.696 245.751 512.696 244.855C512.696 243.959 512.859 243.169 513.185 242.486C513.516 241.799 513.975 241.264 514.563 240.88C515.156 240.493 515.847 240.299 516.636 240.299C517.092 240.299 517.542 240.375 517.986 240.527C518.43 240.679 518.834 240.926 519.199 241.267C519.563 241.605 519.854 242.053 520.07 242.611C520.286 243.169 520.395 243.857 520.395 244.673V245.242H513.652V244.081H519.028C519.028 243.587 518.929 243.147 518.732 242.759C518.538 242.372 518.261 242.067 517.9 241.843C517.544 241.619 517.122 241.507 516.636 241.507C516.101 241.507 515.638 241.64 515.247 241.905C514.86 242.167 514.562 242.509 514.353 242.93C514.144 243.352 514.04 243.803 514.04 244.286V245.06C514.04 245.721 514.153 246.281 514.381 246.74C514.613 247.196 514.934 247.543 515.344 247.782C515.754 248.017 516.23 248.135 516.773 248.135C517.126 248.135 517.445 248.086 517.73 247.987C518.018 247.885 518.267 247.733 518.476 247.531C518.684 247.326 518.846 247.072 518.96 246.768L520.258 247.133C520.121 247.573 519.892 247.96 519.569 248.295C519.246 248.625 518.848 248.883 518.373 249.069C517.899 249.251 517.365 249.342 516.773 249.342ZM522.439 249.16V240.413H523.737V241.734H523.828C523.988 241.302 524.276 240.95 524.694 240.681C525.112 240.411 525.582 240.277 526.106 240.277C526.205 240.277 526.328 240.279 526.476 240.282C526.624 240.286 526.736 240.292 526.812 240.299V241.666C526.767 241.655 526.662 241.638 526.499 241.615C526.34 241.588 526.171 241.575 525.992 241.575C525.567 241.575 525.188 241.664 524.853 241.843C524.523 242.017 524.261 242.26 524.068 242.572C523.878 242.879 523.783 243.23 523.783 243.625V249.16H522.439ZM534.601 242.372L533.394 242.714C533.318 242.513 533.206 242.317 533.058 242.127C532.914 241.934 532.716 241.774 532.466 241.649C532.215 241.524 531.894 241.461 531.503 241.461C530.968 241.461 530.522 241.584 530.165 241.831C529.812 242.074 529.635 242.384 529.635 242.759C529.635 243.094 529.757 243.357 530 243.551C530.243 243.745 530.623 243.906 531.139 244.035L532.437 244.354C533.219 244.544 533.802 244.834 534.185 245.225C534.569 245.612 534.761 246.112 534.761 246.723C534.761 247.224 534.616 247.672 534.328 248.067C534.043 248.462 533.644 248.773 533.132 249.001C532.619 249.228 532.023 249.342 531.344 249.342C530.452 249.342 529.713 249.149 529.129 248.762C528.544 248.374 528.174 247.809 528.018 247.065L529.294 246.746C529.415 247.216 529.645 247.569 529.983 247.805C530.324 248.04 530.771 248.158 531.321 248.158C531.947 248.158 532.445 248.025 532.813 247.759C533.185 247.49 533.371 247.167 533.371 246.791C533.371 246.487 533.265 246.233 533.052 246.028C532.84 245.819 532.513 245.664 532.073 245.561L530.615 245.22C529.814 245.03 529.225 244.735 528.85 244.337C528.478 243.934 528.292 243.431 528.292 242.828C528.292 242.334 528.43 241.898 528.707 241.518C528.988 241.138 529.37 240.84 529.852 240.624C530.338 240.408 530.888 240.299 531.503 240.299C532.369 240.299 533.048 240.489 533.542 240.869C534.039 241.249 534.392 241.75 534.601 242.372ZM541.294 249.16V240.413H542.592V241.734H542.683C542.843 241.302 543.131 240.95 543.549 240.681C543.966 240.411 544.437 240.277 544.961 240.277C545.06 240.277 545.183 240.279 545.331 240.282C545.479 240.286 545.591 240.292 545.667 240.299V241.666C545.621 241.655 545.517 241.638 545.354 241.615C545.194 241.588 545.025 241.575 544.847 241.575C544.422 241.575 544.042 241.664 543.708 241.843C543.378 242.017 543.116 242.26 542.922 242.572C542.732 242.879 542.638 243.23 542.638 243.625V249.16H541.294ZM550.661 249.342C549.818 249.342 549.091 249.156 548.48 248.784C547.873 248.408 547.404 247.885 547.074 247.213C546.747 246.537 546.584 245.751 546.584 244.855C546.584 243.959 546.747 243.169 547.074 242.486C547.404 241.799 547.863 241.264 548.452 240.88C549.044 240.493 549.735 240.299 550.524 240.299C550.98 240.299 551.43 240.375 551.874 240.527C552.318 240.679 552.723 240.926 553.087 241.267C553.451 241.605 553.742 242.053 553.958 242.611C554.175 243.169 554.283 243.857 554.283 244.673V245.242H547.541V244.081H552.916C552.916 243.587 552.817 243.147 552.62 242.759C552.426 242.372 552.149 242.067 551.789 241.843C551.432 241.619 551.01 241.507 550.524 241.507C549.989 241.507 549.526 241.64 549.135 241.905C548.748 242.167 548.45 242.509 548.241 242.93C548.032 243.352 547.928 243.803 547.928 244.286V245.06C547.928 245.721 548.042 246.281 548.269 246.74C548.501 247.196 548.822 247.543 549.232 247.782C549.642 248.017 550.118 248.135 550.661 248.135C551.014 248.135 551.333 248.086 551.618 247.987C551.906 247.885 552.155 247.733 552.364 247.531C552.573 247.326 552.734 247.072 552.848 246.768L554.146 247.133C554.01 247.573 553.78 247.96 553.457 248.295C553.134 248.625 552.736 248.883 552.261 249.069C551.787 249.251 551.253 249.342 550.661 249.342ZM558.901 249.365C558.347 249.365 557.844 249.261 557.392 249.052C556.94 248.839 556.582 248.534 556.316 248.135C556.05 247.733 555.917 247.247 555.917 246.677C555.917 246.176 556.016 245.77 556.213 245.459C556.411 245.144 556.675 244.897 557.005 244.718C557.335 244.54 557.7 244.407 558.098 244.32C558.501 244.229 558.905 244.157 559.311 244.103C559.843 244.035 560.274 243.984 560.604 243.95C560.938 243.912 561.181 243.849 561.333 243.762C561.488 243.674 561.566 243.523 561.566 243.306V243.261C561.566 242.699 561.412 242.262 561.105 241.951C560.801 241.64 560.34 241.484 559.721 241.484C559.08 241.484 558.577 241.624 558.212 241.905C557.848 242.186 557.591 242.486 557.443 242.805L556.168 242.349C556.396 241.818 556.699 241.404 557.079 241.108C557.462 240.808 557.88 240.599 558.332 240.482C558.787 240.36 559.235 240.299 559.676 240.299C559.957 240.299 560.279 240.334 560.644 240.402C561.012 240.466 561.367 240.601 561.709 240.806C562.054 241.011 562.341 241.321 562.568 241.734C562.796 242.148 562.91 242.703 562.91 243.397V249.16H561.566V247.976H561.498C561.407 248.165 561.255 248.369 561.042 248.585C560.83 248.801 560.547 248.985 560.194 249.137C559.841 249.289 559.41 249.365 558.901 249.365ZM559.106 248.158C559.638 248.158 560.086 248.053 560.45 247.845C560.818 247.636 561.095 247.366 561.281 247.036C561.471 246.706 561.566 246.358 561.566 245.994V244.764C561.509 244.832 561.384 244.895 561.19 244.952C561.001 245.005 560.78 245.052 560.53 245.094C560.283 245.132 560.042 245.166 559.807 245.197C559.575 245.223 559.387 245.246 559.243 245.265C558.894 245.311 558.567 245.385 558.263 245.487C557.963 245.586 557.72 245.736 557.534 245.937C557.352 246.134 557.261 246.404 557.261 246.746C557.261 247.213 557.434 247.566 557.779 247.805C558.129 248.04 558.571 248.158 559.106 248.158ZM568.916 249.342C568.096 249.342 567.39 249.149 566.798 248.762C566.206 248.374 565.75 247.841 565.431 247.161C565.112 246.482 564.953 245.705 564.953 244.832C564.953 243.944 565.116 243.16 565.443 242.48C565.773 241.797 566.232 241.264 566.821 240.88C567.413 240.493 568.104 240.299 568.894 240.299C569.509 240.299 570.063 240.413 570.556 240.641C571.05 240.869 571.454 241.188 571.769 241.598C572.084 242.008 572.28 242.486 572.356 243.033H571.012C570.91 242.634 570.682 242.281 570.329 241.974C569.979 241.662 569.509 241.507 568.916 241.507C568.393 241.507 567.933 241.643 567.538 241.917C567.147 242.186 566.842 242.568 566.622 243.061C566.405 243.551 566.297 244.126 566.297 244.787C566.297 245.462 566.403 246.051 566.616 246.552C566.832 247.053 567.136 247.442 567.527 247.719C567.922 247.997 568.385 248.135 568.916 248.135C569.266 248.135 569.583 248.074 569.867 247.953C570.152 247.831 570.393 247.657 570.591 247.429C570.788 247.201 570.928 246.928 571.012 246.609H572.356C572.28 247.125 572.092 247.59 571.792 248.004C571.496 248.414 571.103 248.741 570.613 248.984C570.127 249.223 569.562 249.342 568.916 249.342ZM575.664 243.898V249.16H574.321V237.498H575.664V241.78H575.778C575.983 241.328 576.291 240.969 576.701 240.704C577.115 240.434 577.665 240.299 578.352 240.299C578.948 240.299 579.47 240.419 579.918 240.658C580.366 240.894 580.714 241.256 580.96 241.746C581.211 242.232 581.336 242.851 581.336 243.602V249.16H579.992V243.693C579.992 242.999 579.812 242.461 579.451 242.082C579.094 241.698 578.599 241.507 577.965 241.507C577.525 241.507 577.13 241.6 576.781 241.786C576.435 241.972 576.162 242.243 575.961 242.6C575.763 242.957 575.664 243.39 575.664 243.898ZM587.462 249.342C586.619 249.342 585.892 249.156 585.281 248.784C584.674 248.408 584.205 247.885 583.875 247.213C583.548 246.537 583.385 245.751 583.385 244.855C583.385 243.959 583.548 243.169 583.875 242.486C584.205 241.799 584.664 241.264 585.253 240.88C585.845 240.493 586.536 240.299 587.325 240.299C587.781 240.299 588.231 240.375 588.675 240.527C589.119 240.679 589.524 240.926 589.888 241.267C590.252 241.605 590.543 242.053 590.759 242.611C590.976 243.169 591.084 243.857 591.084 244.673V245.242H584.342V244.081H589.717C589.717 243.587 589.618 243.147 589.421 242.759C589.227 242.372 588.95 242.067 588.59 241.843C588.233 241.619 587.811 241.507 587.325 241.507C586.79 241.507 586.327 241.64 585.936 241.905C585.549 242.167 585.251 242.509 585.042 242.93C584.833 243.352 584.729 243.803 584.729 244.286V245.06C584.729 245.721 584.843 246.281 585.07 246.74C585.302 247.196 585.623 247.543 586.033 247.782C586.443 248.017 586.919 248.135 587.462 248.135C587.815 248.135 588.134 248.086 588.419 247.987C588.707 247.885 588.956 247.733 589.165 247.531C589.374 247.326 589.535 247.072 589.649 246.768L590.947 247.133C590.811 247.573 590.581 247.96 590.258 248.295C589.935 248.625 589.537 248.883 589.062 249.069C588.588 249.251 588.054 249.342 587.462 249.342ZM596.431 249.342C595.702 249.342 595.059 249.158 594.501 248.79C593.943 248.418 593.506 247.894 593.191 247.218C592.876 246.539 592.718 245.736 592.718 244.809C592.718 243.891 592.876 243.094 593.191 242.418C593.506 241.742 593.944 241.22 594.506 240.852C595.068 240.484 595.717 240.299 596.454 240.299C597.023 240.299 597.473 240.394 597.803 240.584C598.137 240.77 598.392 240.983 598.566 241.222C598.745 241.457 598.883 241.651 598.982 241.803H599.096V237.498H600.44V249.16H599.142V247.816H598.982C598.883 247.976 598.743 248.177 598.561 248.42C598.379 248.659 598.119 248.874 597.781 249.063C597.443 249.249 596.993 249.342 596.431 249.342ZM596.613 248.135C597.152 248.135 597.608 247.995 597.98 247.714C598.352 247.429 598.635 247.036 598.828 246.535C599.022 246.03 599.119 245.447 599.119 244.787C599.119 244.134 599.024 243.562 598.834 243.073C598.644 242.579 598.363 242.196 597.991 241.922C597.619 241.645 597.16 241.507 596.613 241.507C596.044 241.507 595.569 241.653 595.19 241.945C594.814 242.234 594.531 242.627 594.341 243.124C594.155 243.617 594.062 244.172 594.062 244.787C594.062 245.409 594.157 245.975 594.347 246.484C594.54 246.989 594.825 247.391 595.201 247.691C595.581 247.987 596.051 248.135 596.613 248.135Z" fill="#7D86A9"/>
<rect x="433.983" y="107.076" width="154.746" height="56.1254" rx="6.81523" fill="url(#paint16_linear_50_170)" stroke="#4E5A71" stroke-width="0.801792"/>
<path d="M460.041 138.961C460.041 136.186 462.291 133.936 465.066 133.936H478.268C481.043 133.936 483.293 136.186 483.293 138.961V149.758C483.293 152.533 481.043 154.783 478.268 154.783H465.066C462.291 154.783 460.041 152.533 460.041 149.758V138.961Z" fill="#4E5A71"/>
<path d="M512.959 134.151C512.959 131.375 515.209 129.125 517.985 129.125H531.186C533.962 129.125 536.211 131.375 536.211 134.151V149.758C536.211 152.533 533.962 154.783 531.186 154.783H517.985C515.209 154.783 512.959 152.533 512.959 149.758V134.151Z" fill="#4E5A71"/>
<g opacity="0.4" filter="url(#filter6_f_50_170)">
<path d="M539.418 120.52C539.418 117.745 541.668 115.495 544.444 115.495H557.645C560.421 115.495 562.67 117.745 562.67 120.52V149.758C562.67 152.533 560.421 154.783 557.645 154.783H544.444C541.668 154.783 539.418 152.533 539.418 149.758V120.52Z" fill="url(#paint17_linear_50_170)"/>
</g>
<path d="M539.418 120.52C539.418 117.745 541.668 115.495 544.444 115.495H557.645C560.421 115.495 562.67 117.745 562.67 120.52V149.758C562.67 152.533 560.421 154.783 557.645 154.783H544.444C541.668 154.783 539.418 152.533 539.418 149.758V120.52Z" fill="url(#paint18_linear_50_170)"/>
<g opacity="0.4" filter="url(#filter7_f_50_170)">
<path d="M486.5 126.133C486.5 123.357 488.75 121.108 491.525 121.108H504.727C507.502 121.108 509.752 123.357 509.752 126.133V149.758C509.752 152.533 507.502 154.783 504.727 154.783H491.525C488.75 154.783 486.5 152.533 486.5 149.758V126.133Z" fill="url(#paint19_linear_50_170)"/>
</g>
<path d="M486.5 126.133C486.5 123.357 488.75 121.108 491.525 121.108H504.727C507.502 121.108 509.752 123.357 509.752 126.133V149.758C509.752 152.533 507.502 154.783 504.727 154.783H491.525C488.75 154.783 486.5 152.533 486.5 149.758V126.133Z" fill="url(#paint20_linear_50_170)"/>
</g>
<defs>
<filter id="filter0_f_50_170" x="118.924" y="55.7615" width="293.456" height="248.555" filterUnits="userSpaceOnUse" color-interpolation-filters="sRGB">
<feFlood flood-opacity="0" result="BackgroundImageFix"/>
<feBlend mode="normal" in="SourceGraphic" in2="BackgroundImageFix" result="shape"/>
<feGaussianBlur stdDeviation="17.0381" result="effect1_foregroundBlur_50_170"/>
</filter>
<filter id="filter1_f_50_170" x="364.272" y="55.7615" width="293.456" height="248.555" filterUnits="userSpaceOnUse" color-interpolation-filters="sRGB">
<feFlood flood-opacity="0" result="BackgroundImageFix"/>
<feBlend mode="normal" in="SourceGraphic" in2="BackgroundImageFix" result="shape"/>
<feGaussianBlur stdDeviation="17.0381" result="effect1_foregroundBlur_50_170"/>
</filter>
<filter id="filter2_f_50_170" x="609.62" y="55.7615" width="293.456" height="248.555" filterUnits="userSpaceOnUse" color-interpolation-filters="sRGB">
<feFlood flood-opacity="0" result="BackgroundImageFix"/>
<feBlend mode="normal" in="SourceGraphic" in2="BackgroundImageFix" result="shape"/>
<feGaussianBlur stdDeviation="17.0381" result="effect1_foregroundBlur_50_170"/>
</filter>
<filter id="filter3_b_50_170" x="86.7212" y="37.7212" width="295.861" height="283.834" filterUnits="userSpaceOnUse" color-interpolation-filters="sRGB">
<feFlood flood-opacity="0" result="BackgroundImageFix"/>
<feGaussianBlur in="BackgroundImageFix" stdDeviation="17.6394"/>
<feComposite in2="SourceAlpha" operator="in" result="effect1_backgroundBlur_50_170"/>
<feBlend mode="normal" in="SourceGraphic" in2="effect1_backgroundBlur_50_170" result="shape"/>
</filter>
<filter id="filter4_b_50_170" x="639.328" y="37.7212" width="295.861" height="283.834" filterUnits="userSpaceOnUse" color-interpolation-filters="sRGB">
<feFlood flood-opacity="0" result="BackgroundImageFix"/>
<feGaussianBlur in="BackgroundImageFix" stdDeviation="17.6394"/>
<feComposite in2="SourceAlpha" operator="in" result="effect1_backgroundBlur_50_170"/>
<feBlend mode="normal" in="SourceGraphic" in2="effect1_backgroundBlur_50_170" result="shape"/>
</filter>
<filter id="filter5_b_50_170" x="363.024" y="37.7212" width="295.861" height="283.834" filterUnits="userSpaceOnUse" color-interpolation-filters="sRGB">
<feFlood flood-opacity="0" result="BackgroundImageFix"/>
<feGaussianBlur in="BackgroundImageFix" stdDeviation="17.6394"/>
<feComposite in2="SourceAlpha" operator="in" result="effect1_backgroundBlur_50_170"/>
<feBlend mode="normal" in="SourceGraphic" in2="effect1_backgroundBlur_50_170" result="shape"/>
</filter>
<filter id="filter6_f_50_170" x="519.374" y="95.4502" width="63.3415" height="79.3774" filterUnits="userSpaceOnUse" color-interpolation-filters="sRGB">
<feFlood flood-opacity="0" result="BackgroundImageFix"/>
<feBlend mode="normal" in="SourceGraphic" in2="BackgroundImageFix" result="shape"/>
<feGaussianBlur stdDeviation="10.0224" result="effect1_foregroundBlur_50_170"/>
</filter>
<filter id="filter7_f_50_170" x="466.455" y="101.063" width="63.3415" height="73.7648" filterUnits="userSpaceOnUse" color-interpolation-filters="sRGB">
<feFlood flood-opacity="0" result="BackgroundImageFix"/>
<feBlend mode="normal" in="SourceGraphic" in2="BackgroundImageFix" result="shape"/>
<feGaussianBlur stdDeviation="10.0224" result="effect1_foregroundBlur_50_170"/>
</filter>
<radialGradient id="paint0_radial_50_170" cx="0" cy="0" r="1" gradientUnits="userSpaceOnUse" gradientTransform="translate(63.5129 -68.4871) rotate(90) scale(368.896)">
<stop stop-color="#737A99"/>
<stop offset="1" stop-color="#262933"/>
</radialGradient>
<radialGradient id="paint1_radial_50_170" cx="0" cy="0" r="1" gradientUnits="userSpaceOnUse" gradientTransform="translate(781.513 343.513) rotate(90) scale(368.896)">
<stop stop-color="#737A99"/>
<stop offset="1" stop-color="#262933"/>
</radialGradient>
<linearGradient id="paint2_linear_50_170" x1="511" y1="172" x2="511" y2="391" gradientUnits="userSpaceOnUse">
<stop stop-color="#393D4B"/>
<stop offset="1" stop-color="#212530"/>
</linearGradient>
<linearGradient id="paint3_linear_50_170" x1="265.652" y1="89.8376" x2="265.652" y2="270.241" gradientUnits="userSpaceOnUse">
<stop stop-color="#00FAFC"/>
<stop offset="1" stop-color="#0179BE"/>
</linearGradient>
<linearGradient id="paint4_linear_50_170" x1="597.626" y1="121.936" x2="473.132" y2="277.417" gradientUnits="userSpaceOnUse">
<stop stop-color="#FF6048"/>
<stop offset="1" stop-color="#FF9802"/>
</linearGradient>
<linearGradient id="paint5_linear_50_170" x1="671.098" y1="121.124" x2="795.593" y2="276.604" gradientUnits="userSpaceOnUse">
<stop stop-color="#FA5471"/>
<stop offset="1" stop-color="#FF55FA"/>
</linearGradient>
<linearGradient id="paint6_linear_50_170" x1="234.652" y1="73" x2="234.652" y2="286.277" gradientUnits="userSpaceOnUse">
<stop stop-color="#393D4B"/>
<stop offset="1" stop-color="#212530"/>
</linearGradient>
<linearGradient id="paint7_linear_50_170" x1="234.652" y1="73" x2="234.652" y2="286.277" gradientUnits="userSpaceOnUse">
<stop stop-color="#00FAFC"/>
<stop offset="1" stop-color="#0179BE"/>
</linearGradient>
<linearGradient id="paint8_linear_50_170" x1="235.053" y1="106.675" x2="235.053" y2="163.602" gradientUnits="userSpaceOnUse">
<stop stop-color="#393D4B"/>
<stop offset="1" stop-color="#212530"/>
</linearGradient>
<linearGradient id="paint9_linear_50_170" x1="235.053" y1="120.306" x2="235.053" y2="151.111" gradientUnits="userSpaceOnUse">
<stop stop-color="#00FAFC"/>
<stop offset="1" stop-color="#0179BE"/>
</linearGradient>
<linearGradient id="paint10_linear_50_170" x1="787.258" y1="73" x2="787.258" y2="286.277" gradientUnits="userSpaceOnUse">
<stop stop-color="#393D4B"/>
<stop offset="1" stop-color="#212530"/>
</linearGradient>
<linearGradient id="paint11_linear_50_170" x1="702.008" y1="109.987" x2="852.612" y2="269.084" gradientUnits="userSpaceOnUse">
<stop stop-color="#FA5471"/>
<stop offset="1" stop-color="#FF55FA"/>
</linearGradient>
<linearGradient id="paint12_linear_50_170" x1="787.66" y1="106.675" x2="787.66" y2="163.602" gradientUnits="userSpaceOnUse">
<stop stop-color="#393D4B"/>
<stop offset="1" stop-color="#212530"/>
</linearGradient>
<linearGradient id="paint13_linear_50_170" x1="743.366" y1="127.836" x2="753.284" y2="167.127" gradientUnits="userSpaceOnUse">
<stop stop-color="#FA5471"/>
<stop offset="1" stop-color="#FF55FA"/>
</linearGradient>
<linearGradient id="paint14_linear_50_170" x1="510.955" y1="73" x2="510.955" y2="286.277" gradientUnits="userSpaceOnUse">
<stop stop-color="#393D4B"/>
<stop offset="1" stop-color="#212530"/>
</linearGradient>
<linearGradient id="paint15_linear_50_170" x1="597.581" y1="110.948" x2="446.977" y2="270.045" gradientUnits="userSpaceOnUse">
<stop stop-color="#FF6048"/>
<stop offset="1" stop-color="#FF9802"/>
</linearGradient>
<linearGradient id="paint16_linear_50_170" x1="511.356" y1="106.675" x2="511.356" y2="163.602" gradientUnits="userSpaceOnUse">
<stop stop-color="#393D4B"/>
<stop offset="1" stop-color="#212530"/>
</linearGradient>
<linearGradient id="paint17_linear_50_170" x1="559.985" y1="122.485" x2="535.628" y2="136.9" gradientUnits="userSpaceOnUse">
<stop stop-color="#FF6048"/>
<stop offset="1" stop-color="#FF9802"/>
</linearGradient>
<linearGradient id="paint18_linear_50_170" x1="559.985" y1="122.485" x2="535.628" y2="136.9" gradientUnits="userSpaceOnUse">
<stop stop-color="#FF6048"/>
<stop offset="1" stop-color="#FF9802"/>
</linearGradient>
<linearGradient id="paint19_linear_50_170" x1="507.066" y1="127.099" x2="484.796" y2="142.476" gradientUnits="userSpaceOnUse">
<stop stop-color="#FF6048"/>
<stop offset="1" stop-color="#FF9802"/>
</linearGradient>
<linearGradient id="paint20_linear_50_170" x1="507.066" y1="127.099" x2="484.796" y2="142.476" gradientUnits="userSpaceOnUse">
<stop stop-color="#FF6048"/>
<stop offset="1" stop-color="#FF9802"/>
</linearGradient>
<clipPath id="clip0_50_170">
<rect width="1021" height="360" fill="white"/>
</clipPath>
</defs>
</svg>
