<svg width="141" height="60" viewBox="0 0 141 60" fill="none" xmlns="http://www.w3.org/2000/svg" xmlns:xlink="http://www.w3.org/1999/xlink">
<g clip-path="url(#clip0_182_1127)">
<rect width="141" height="60" rx="6" fill="#1E2028"/>
<circle cx="113.571" cy="99.7825" r="77.4977" transform="rotate(149.414 113.571 99.7825)" fill="url(#paint0_radial_182_1127)" fill-opacity="0.3" stroke="#2C343D" stroke-width="0.408959"/>
<circle cx="26.4286" cy="-40.5714" r="77.4977" transform="rotate(149.414 26.4286 -40.5714)" fill="url(#paint1_radial_182_1127)" fill-opacity="0.3" stroke="#2C343D" stroke-width="0.408959"/>
<rect x="55.65" y="15.25" width="29.5" height="29.5" rx="14.75" fill="white"/>
<rect x="55.65" y="15.25" width="29.5" height="29.5" rx="14.75" stroke="#BFBFBF" stroke-width="0.5"/>
<g transform="translate(67.7, 20.5) scale(0.264, 0.264)">
<path d="M7.42 39.1c-3.83-4.47-5.46-8.45-5.46-12.39 0-2.33.25-3.79.57-5.13C.65 25.56.01 28.53.01 31.34c0 14.85 13.62 16.77 13.62 27.28 0 2.54-1.35 5.99-5.89 12.45 13.7-18.28 17.18-24.86 17.18-29.42 0-12.77-13.56-14.91-13.56-29.27 0-3.28 1.88-7.22 5.38-12.37 0 0-3.33 4.69-5.13 7.19-6.41 8.92-8.89 20.5-4.18 31.91l-.01-.01Z"
          fill="currentColor"></path>
</g>
</g>
<defs>
<radialGradient id="paint0_radial_182_1127" cx="0" cy="0" r="1" gradientUnits="userSpaceOnUse" gradientTransform="translate(113.571 99.7825) rotate(90) scale(77.7021)">
<stop stop-color="#737A99"/>
<stop offset="1" stop-color="#262933"/>
</radialGradient>
<radialGradient id="paint1_radial_182_1127" cx="0" cy="0" r="1" gradientUnits="userSpaceOnUse" gradientTransform="translate(26.4286 -40.5714) rotate(90) scale(77.7021)">
<stop stop-color="#737A99"/>
<stop offset="1" stop-color="#262933"/>
</radialGradient>
<clipPath id="clip0_182_1127">
<rect width="141" height="60" rx="6" fill="white"/>
</clipPath>
</defs>
</svg>