<svg width="141" height="60" viewBox="0 0 141 60" fill="none" xmlns="http://www.w3.org/2000/svg" xmlns:xlink="http://www.w3.org/1999/xlink">
<g clip-path="url(#clip0_182_1127)">
<rect width="141" height="60" rx="6" fill="#1E2028"/>
<circle cx="113.571" cy="99.7825" r="77.4977" transform="rotate(149.414 113.571 99.7825)" fill="url(#paint0_radial_182_1127)" fill-opacity="0.3" stroke="#2C343D" stroke-width="0.408959"/>
<circle cx="26.4286" cy="-40.5714" r="77.4977" transform="rotate(149.414 26.4286 -40.5714)" fill="url(#paint1_radial_182_1127)" fill-opacity="0.3" stroke="#2C343D" stroke-width="0.408959"/>
<rect x="55.65" y="15.25" width="29.5" height="29.5" rx="14.75" fill="white"/>
<rect x="55.65" y="15.25" width="29.5" height="29.5" rx="14.75" stroke="#BFBFBF" stroke-width="0.5"/>
<g transform="translate(61, 19.5) scale(0.48)">
    <path fill-rule="evenodd" clip-rule="evenodd"
          d="M10.3053 15.5069C9.69063 15.1054 9.15335 14.7545 8.02234 14.7545V13.6319C9.46739 13.6319 10.2194 14.1216 10.8923 14.5611L10.8959 14.5634C11.5106 14.9649 12.0479 15.3158 13.1789 15.3158C14.3099 15.3158 14.8471 14.9649 15.4618 14.5634L15.4654 14.5611C16.1384 14.1216 16.8903 13.6319 18.3354 13.6319C19.7804 13.6319 20.5324 14.1216 21.2054 14.5611L21.2088 14.5633C21.8237 14.9648 22.3614 15.3158 23.4933 15.3158C24.625 15.3158 25.1623 14.9649 25.7769 14.5635L25.7805 14.5611C26.4535 14.1215 27.2055 13.6319 28.6512 13.6319V14.7545C27.5195 14.7545 26.9822 15.1055 26.3675 15.5069L26.3639 15.5093C25.6909 15.9488 24.939 16.4385 23.4933 16.4385C22.0476 16.4385 21.2953 15.9489 20.6222 15.5093L20.6184 15.5068C20.0035 15.1054 19.4663 14.7545 18.3354 14.7545C17.2044 14.7545 16.6671 15.1054 16.0524 15.5069L16.0488 15.5093C15.3759 15.9488 14.6239 16.4385 13.1789 16.4385C11.7338 16.4385 10.9818 15.9488 10.3089 15.5093L10.3053 15.5069Z"
          fill="white"/>
    <path fill-rule="evenodd" clip-rule="evenodd"
          d="M10.3053 20.3182C9.69063 19.9167 9.15335 19.5658 8.02234 19.5658V18.4432C9.46739 18.4432 10.2194 18.9329 10.8923 19.3724L10.8959 19.3747C11.5106 19.7762 12.0479 20.1271 13.1789 20.1271C14.3099 20.1271 14.8471 19.7762 15.4618 19.3747L15.4654 19.3724C16.1384 18.9329 16.8903 18.4432 18.3354 18.4432C19.7804 18.4432 20.5324 18.9329 21.2054 19.3723L21.2088 19.3745C21.8237 19.7761 22.3614 20.1271 23.4933 20.1271C24.625 20.1271 25.1623 19.7762 25.7769 19.3748L25.7805 19.3724C26.4535 18.9328 27.2055 18.4432 28.6512 18.4432V19.5658C27.5195 19.5658 26.9822 19.9167 26.3675 20.3182L26.3639 20.3205C25.6909 20.7601 24.939 21.2498 23.4933 21.2498C22.0476 21.2498 21.2953 20.7601 20.6222 20.3206L20.6184 20.3181C20.0035 19.9166 19.4663 19.5658 18.3354 19.5658C17.2044 19.5658 16.6671 19.9167 16.0524 20.3182L16.0488 20.3205C15.3759 20.7601 14.6239 21.2498 13.1789 21.2498C11.7338 21.2498 10.9818 20.7601 10.3089 20.3205L10.3053 20.3182Z"
          fill="white"/>
    <path fill-rule="evenodd" clip-rule="evenodd"
          d="M10.3053 25.5304C9.69063 25.1289 9.15335 24.778 8.02234 24.778V23.6554C9.46739 23.6554 10.2194 24.1451 10.8923 24.5846L10.8959 24.5869C11.5106 24.9884 12.0479 25.3393 13.1789 25.3393C14.3099 25.3393 14.8471 24.9884 15.4618 24.5869L15.4654 24.5846C16.1384 24.1451 16.8903 23.6554 18.3354 23.6554C19.7804 23.6554 20.5324 24.1451 21.2054 24.5846L21.2088 24.5868C21.8237 24.9883 22.3614 25.3393 23.4933 25.3393C24.625 25.3393 25.1623 24.9884 25.7769 24.587L25.7805 24.5846C26.4535 24.145 27.2055 23.6554 28.6512 23.6554V24.778C27.5195 24.778 26.9822 25.129 26.3675 25.5304L26.3639 25.5328C25.6909 25.9723 24.939 26.462 23.4933 26.462C22.0476 26.462 21.2953 25.9724 20.6222 25.5328L20.6184 25.5303C20.0035 25.1289 19.4663 24.778 18.3354 24.778C17.2044 24.778 16.6671 25.1289 16.0524 25.5304L16.0488 25.5328C15.3759 25.9723 14.6239 26.462 13.1789 26.462C11.7338 26.462 10.9818 25.9723 10.3089 25.5328L10.3053 25.5304Z"
          fill="white"/>
    <path fill-rule="evenodd" clip-rule="evenodd"
          d="M10.3053 30.2086C9.69063 29.7498 9.15335 29.3487 8.02234 29.3487V28.0657C9.46739 28.0657 10.2194 28.6254 10.8923 29.1277L10.8959 29.1304C11.5106 29.5892 12.0479 29.9902 13.1789 29.9902C14.3099 29.9902 14.8471 29.5892 15.4618 29.1304L15.4654 29.1277C16.1384 28.6254 16.8903 28.0657 18.3354 28.0657C19.7804 28.0657 20.5324 28.6254 21.2054 29.1276L21.2088 29.1302C21.8237 29.589 22.3614 29.9902 23.4933 29.9902C24.625 29.9902 25.1623 29.5892 25.7769 29.1304L25.7805 29.1277C26.4535 28.6253 27.2055 28.0657 28.6512 28.0657V29.3487C27.5195 29.3487 26.9822 29.7498 26.3675 30.2086L26.3639 30.2113C25.6909 30.7136 24.939 31.2732 23.4933 31.2732C22.0476 31.2732 21.2953 30.7137 20.6222 30.2113L20.6184 30.2085C20.0035 29.7497 19.4663 29.3487 18.3354 29.3487C17.2044 29.3487 16.6671 29.7498 16.0524 30.2086L16.0488 30.2113C15.3759 30.7136 14.6239 31.2732 13.1789 31.2732C11.7338 31.2732 10.9818 30.7136 10.3089 30.2113L10.3053 30.2086Z"
          fill="white"/>
    <path fill-rule="evenodd" clip-rule="evenodd"
          d="M18.3367 0L36.6734 11.1268V33.3775L18.3367 44.5043L0 33.3775V11.1268L18.3367 0ZM1.36831 11.957V32.5473L18.3367 42.8438L35.3051 32.5473V11.957L18.3367 1.66049L1.36831 11.957Z"
          fill="white"/>
</g>
</g>
<defs>
<radialGradient id="paint0_radial_182_1127" cx="0" cy="0" r="1" gradientUnits="userSpaceOnUse" gradientTransform="translate(113.571 99.7825) rotate(90) scale(77.7021)">
<stop stop-color="#737A99"/>
<stop offset="1" stop-color="#262933"/>
</radialGradient>
<radialGradient id="paint1_radial_182_1127" cx="0" cy="0" r="1" gradientUnits="userSpaceOnUse" gradientTransform="translate(26.4286 -40.5714) rotate(90) scale(77.7021)">
<stop stop-color="#737A99"/>
<stop offset="1" stop-color="#262933"/>
</radialGradient>
<clipPath id="clip0_182_1127">
<rect width="141" height="60" rx="6" fill="white"/>
</clipPath>
</defs>
</svg>