<svg width="418" height="159" viewBox="0 0 418 159" fill="none" xmlns="http://www.w3.org/2000/svg">
<g clip-path="url(#clip0_100_507)">
<path d="M418 159L0 159L-1.28511e-05 12C-1.34305e-05 5.37263 5.37258 3.6073e-05 12 3.54936e-05L406 1.04907e-06C412.627 4.69687e-07 418 5.37259 418 12L418 159Z" fill="white"/>
<g filter="url(#filter0_f_100_507)">
<ellipse cx="209" cy="144" rx="84" ry="83" fill="#D3D3D3" fill-opacity="0.62"/>
</g>
<circle opacity="0.05" cx="209" cy="147" r="164.5" stroke="#D2D2D2"/>
<circle opacity="0.2" cx="209" cy="143" r="139.5" stroke="#D2D2D2"/>
<circle opacity="0.4" cx="209" cy="143" r="119.5" stroke="#D2D2D2"/>
<circle opacity="0.6" cx="209" cy="143" r="98.5" stroke="#D2D2D2"/>
<circle opacity="0.8" cx="209.5" cy="142.5" r="77" stroke="#D2D2D2"/>
<circle cx="209.132" cy="143.132" r="54.3823" fill="url(#paint0_linear_100_507)" stroke="url(#paint1_linear_100_507)" stroke-width="1.5"/>
<rect y="122" width="418" height="37" fill="url(#paint2_linear_100_507)"/>
<circle cx="184" cy="27" r="12.5" fill="url(#paint3_linear_100_507)" stroke="#DFDFDF"/>
<circle cx="152" cy="90" r="13" fill="url(#paint4_linear_100_507)"/>
<circle cx="270" cy="66" r="13" fill="url(#paint5_linear_100_507)"/>
<circle cx="326" cy="122" r="12.5" fill="url(#paint6_linear_100_507)" stroke="#DFDFDF"/>
<circle cx="71" cy="109" r="12.5" fill="url(#paint7_linear_100_507)" stroke="#DFDFDF"/>
</g>
<defs>
<filter id="filter0_f_100_507" x="25" y="-39" width="368" height="366" filterUnits="userSpaceOnUse" color-interpolation-filters="sRGB">
<feFlood flood-opacity="0" result="BackgroundImageFix"/>
<feBlend mode="normal" in="SourceGraphic" in2="BackgroundImageFix" result="shape"/>
<feGaussianBlur stdDeviation="50" result="effect1_foregroundBlur_100_507"/>
</filter>
<linearGradient id="paint0_linear_100_507" x1="209.132" y1="88" x2="209.132" y2="198.265" gradientUnits="userSpaceOnUse">
<stop stop-color="#E3E3E3"/>
<stop offset="1" stop-color="#F9F9F9"/>
</linearGradient>
<linearGradient id="paint1_linear_100_507" x1="251.528" y1="107.619" x2="173.548" y2="185.599" gradientUnits="userSpaceOnUse">
<stop stop-color="#FF6048"/>
<stop offset="1" stop-color="#FF9802"/>
</linearGradient>
<linearGradient id="paint2_linear_100_507" x1="209" y1="122" x2="209" y2="159" gradientUnits="userSpaceOnUse">
<stop stop-color="#F9F9F9" stop-opacity="0"/>
<stop offset="1" stop-color="#F9F9F9"/>
</linearGradient>
<linearGradient id="paint3_linear_100_507" x1="184" y1="14" x2="184" y2="40" gradientUnits="userSpaceOnUse">
<stop stop-color="#E3E3E3"/>
<stop offset="1" stop-color="#F9F9F9"/>
</linearGradient>
<linearGradient id="paint4_linear_100_507" x1="161.997" y1="81.6261" x2="143.609" y2="100.014" gradientUnits="userSpaceOnUse">
<stop stop-color="#FF6048"/>
<stop offset="1" stop-color="#FF9802"/>
</linearGradient>
<linearGradient id="paint5_linear_100_507" x1="279.997" y1="57.6261" x2="261.609" y2="76.0135" gradientUnits="userSpaceOnUse">
<stop stop-color="#FF6048"/>
<stop offset="1" stop-color="#FF9802"/>
</linearGradient>
<linearGradient id="paint6_linear_100_507" x1="326" y1="109" x2="326" y2="135" gradientUnits="userSpaceOnUse">
<stop stop-color="#E3E3E3"/>
<stop offset="1" stop-color="#F9F9F9"/>
</linearGradient>
<linearGradient id="paint7_linear_100_507" x1="71" y1="96" x2="71" y2="122" gradientUnits="userSpaceOnUse">
<stop stop-color="#E3E3E3"/>
<stop offset="1" stop-color="#F9F9F9"/>
</linearGradient>
<clipPath id="clip0_100_507">
<path d="M418 159L0 159L-1.28511e-05 12C-1.34305e-05 5.37263 5.37258 3.6073e-05 12 3.54936e-05L406 1.04907e-06C412.627 4.69687e-07 418 5.37259 418 12L418 159Z" fill="white"/>
</clipPath>
</defs>
</svg>
