<svg width="418" height="159" viewBox="0 0 418 159" fill="none" xmlns="http://www.w3.org/2000/svg">
<g clip-path="url(#clip0_100_433)">
<path d="M0 12C0 5.37258 5.37258 0 12 0H406C412.627 0 418 5.37258 418 12V159H0V12Z" fill="white"/>
<circle cx="190" cy="190" r="189.5" transform="matrix(0.871097 -0.491111 -0.491111 -0.871097 386.415 232.004)" fill="url(#paint0_radial_100_433)" fill-opacity="0.3" stroke="#EEEEEE"/>
<circle cx="190" cy="190" r="189.5" transform="matrix(0.871097 -0.491111 -0.491111 -0.871097 16.6221 445.504)" fill="url(#paint1_radial_100_433)" fill-opacity="0.3" stroke="#EEEEEE"/>
<rect y="67" width="418" height="92" fill="url(#paint2_linear_100_433)"/>
<rect x="90.25" y="18.25" width="237.666" height="122.5" rx="7.5844" fill="url(#paint3_linear_100_433)" stroke="#D0D0D0" stroke-width="0.5"/>
<path d="M100.968 103.395C100.968 99.9335 103.774 97.1274 107.236 97.1274H127.605C131.067 97.1274 133.873 99.9335 133.873 103.395V116.713C133.873 120.175 131.067 122.981 127.605 122.981H107.236C103.774 122.981 100.968 120.175 100.968 116.713V103.395Z" fill="#DBDBDB"/>
<path d="M137.79 88.5097C137.79 85.0482 140.596 82.2422 144.057 82.2422H164.427C167.888 82.2422 170.694 85.0483 170.694 88.5097V116.714C170.694 120.175 167.888 122.981 164.427 122.981H144.057C140.596 122.981 137.79 120.175 137.79 116.714V88.5097Z" fill="#DBDBDB"/>
<path d="M211.433 98.6943C211.433 95.2328 214.239 92.4268 217.701 92.4268H238.07C241.531 92.4268 244.338 95.2328 244.338 98.6943V116.713C244.338 120.175 241.531 122.981 238.07 122.981H217.701C214.239 122.981 211.433 120.175 211.433 116.713V98.6943Z" fill="#DBDBDB"/>
<path d="M248.255 107.312C248.255 103.851 251.061 101.044 254.522 101.044H274.892C278.353 101.044 281.159 103.85 281.159 107.312V116.713C281.159 120.175 278.353 122.981 274.892 122.981H254.522C251.061 122.981 248.255 120.175 248.255 116.713V107.312Z" fill="#DBDBDB"/>
<path d="M285.076 114.363C285.076 110.902 287.882 108.096 291.344 108.096H311.713C315.175 108.096 317.981 110.902 317.981 114.363V116.714C317.981 120.175 315.175 122.981 311.713 122.981H291.344C287.882 122.981 285.076 120.175 285.076 116.714V114.363Z" fill="#DBDBDB"/>
<path d="M174.694 73.624C174.694 70.1625 177.5 67.3564 180.962 67.3564H201.331C204.793 67.3564 207.599 70.1625 207.599 73.624V116.713C207.599 120.175 204.793 122.981 201.331 122.981H180.962C177.5 122.981 174.694 120.175 174.694 116.713V73.624Z" fill="url(#paint4_linear_100_433)"/>
<path d="M109.987 89.8007C110.097 89.7549 110.212 89.7034 110.33 89.6462C110.452 89.5852 110.57 89.5203 110.685 89.4516C110.799 89.3792 110.908 89.3048 111.011 89.2285C111.118 89.1484 111.213 89.0644 111.297 88.9767H111.892V92.9424H111.039V90.0868C110.925 90.1631 110.797 90.2337 110.656 90.2986C110.515 90.3596 110.378 90.413 110.244 90.4588L109.987 89.8007ZM114.664 90.0182C114.515 90.2127 114.357 90.4245 114.189 90.6534C114.021 90.8823 113.88 91.1169 113.765 91.3572H114.664V90.0182ZM115.499 88.9767V91.3572H115.923V92.0554H115.499V92.9424H114.664V92.0554H112.953V91.4316C113.037 91.2638 113.142 91.0749 113.268 90.8651C113.393 90.6515 113.533 90.434 113.685 90.2127C113.842 89.9877 114.006 89.7683 114.177 89.5547C114.349 89.341 114.521 89.1484 114.692 88.9767H115.499ZM117.298 92.0726C117.306 92.1641 117.31 92.229 117.31 92.2671C117.314 92.3053 117.315 92.3377 117.315 92.3644C117.315 92.4789 117.304 92.6009 117.281 92.7306C117.262 92.8565 117.233 92.9843 117.195 93.1141C117.157 93.2438 117.109 93.3735 117.052 93.5032C116.995 93.6329 116.93 93.7569 116.858 93.8752L116.188 93.7092C116.276 93.4574 116.337 93.2209 116.371 92.9996C116.406 92.7783 116.423 92.5952 116.423 92.4502C116.423 92.4274 116.421 92.3987 116.417 92.3644C116.417 92.3263 116.415 92.2881 116.411 92.25C116.411 92.2118 116.409 92.1756 116.406 92.1412C116.406 92.1069 116.406 92.084 116.406 92.0726H117.298ZM119.559 91.775C119.559 91.6644 119.534 91.5671 119.485 91.4831C119.435 91.3954 119.349 91.3229 119.227 91.2657C119.105 91.2085 118.941 91.1646 118.735 91.1341C118.529 91.1035 118.27 91.0883 117.957 91.0883C117.999 90.7335 118.033 90.373 118.06 90.0067C118.087 89.6405 118.108 89.2971 118.123 88.9767H120.269V89.692H118.838C118.831 89.8293 118.821 89.9629 118.81 90.0926C118.802 90.2185 118.792 90.3291 118.781 90.4245C119.338 90.4626 119.748 90.5942 120.011 90.8193C120.278 91.0406 120.412 91.3496 120.412 91.7464C120.412 91.9295 120.379 92.0993 120.315 92.2557C120.25 92.4121 120.152 92.5475 120.023 92.662C119.893 92.7764 119.729 92.8661 119.531 92.9309C119.336 92.9958 119.107 93.0282 118.844 93.0282C118.741 93.0282 118.632 93.0206 118.518 93.0053C118.407 92.9939 118.298 92.9767 118.192 92.9538C118.089 92.9348 117.995 92.9138 117.911 92.8909C117.827 92.868 117.762 92.8451 117.717 92.8222L117.871 92.1183C117.966 92.1603 118.092 92.2023 118.249 92.2442C118.405 92.2824 118.592 92.3015 118.81 92.3015C119.073 92.3015 119.264 92.25 119.382 92.147C119.5 92.0401 119.559 91.9161 119.559 91.775ZM122.978 89.9953C122.978 90.3539 122.886 90.6286 122.703 90.8193C122.52 91.0101 122.274 91.1055 121.965 91.1055C121.656 91.1055 121.41 91.0101 121.227 90.8193C121.043 90.6286 120.952 90.3539 120.952 89.9953C120.952 89.6367 121.043 89.362 121.227 89.1712C121.41 88.9805 121.656 88.8851 121.965 88.8851C122.274 88.8851 122.52 88.9805 122.703 89.1712C122.886 89.362 122.978 89.6367 122.978 89.9953ZM122.331 89.9953C122.331 89.8007 122.297 89.6596 122.228 89.5718C122.159 89.4841 122.072 89.4402 121.965 89.4402C121.854 89.4402 121.764 89.4841 121.696 89.5718C121.631 89.6596 121.598 89.8007 121.598 89.9953C121.598 90.1899 121.631 90.3329 121.696 90.4245C121.764 90.5122 121.854 90.5561 121.965 90.5561C122.072 90.5561 122.159 90.5122 122.228 90.4245C122.297 90.3329 122.331 90.1899 122.331 89.9953ZM124.093 88.9767H124.889L122.651 92.9424H121.856L124.093 88.9767ZM125.805 91.9238C125.805 92.2824 125.713 92.5571 125.53 92.7478C125.347 92.9386 125.101 93.0339 124.792 93.0339C124.483 93.0339 124.237 92.9386 124.053 92.7478C123.87 92.5571 123.779 92.2824 123.779 91.9238C123.779 91.5652 123.87 91.2905 124.053 91.0997C124.237 90.909 124.483 90.8136 124.792 90.8136C125.101 90.8136 125.347 90.909 125.53 91.0997C125.713 91.2905 125.805 91.5652 125.805 91.9238ZM125.158 91.9238C125.158 91.7292 125.124 91.5881 125.055 91.5003C124.986 91.4126 124.898 91.3687 124.792 91.3687C124.681 91.3687 124.591 91.4126 124.523 91.5003C124.458 91.5881 124.425 91.7292 124.425 91.9238C124.425 92.1183 124.458 92.2614 124.523 92.353C124.591 92.4407 124.681 92.4846 124.792 92.4846C124.898 92.4846 124.986 92.4407 125.055 92.353C125.124 92.2614 125.158 92.1183 125.158 91.9238Z" fill="#10171F"/>
<path d="M150.813 73.0758C150.813 73.2208 150.784 73.36 150.727 73.4935C150.67 73.6271 150.595 73.7568 150.504 73.8827C150.412 74.0047 150.309 74.123 150.195 74.2375C150.08 74.3519 149.968 74.4606 149.857 74.5636C149.8 74.6171 149.737 74.6781 149.668 74.7468C149.603 74.8116 149.541 74.8784 149.48 74.9471C149.418 75.0157 149.363 75.0806 149.314 75.1416C149.268 75.1988 149.239 75.2465 149.228 75.2847H150.933V76H148.289C148.282 75.958 148.278 75.9046 148.278 75.8398C148.278 75.7749 148.278 75.7291 148.278 75.7024C148.278 75.5193 148.306 75.3514 148.364 75.1988C148.425 75.0462 148.503 74.9051 148.598 74.7754C148.694 74.6419 148.8 74.5179 148.919 74.4034C149.041 74.289 149.161 74.1745 149.279 74.0601C149.371 73.9723 149.457 73.8903 149.537 73.814C149.617 73.7339 149.687 73.6576 149.748 73.5851C149.81 73.5088 149.857 73.4344 149.892 73.3619C149.926 73.2856 149.943 73.2093 149.943 73.133C149.943 72.9652 149.895 72.8469 149.8 72.7782C149.705 72.7096 149.586 72.6752 149.445 72.6752C149.342 72.6752 149.245 72.6924 149.153 72.7267C149.066 72.7572 148.984 72.7954 148.907 72.8412C148.835 72.8831 148.772 72.927 148.718 72.9728C148.665 73.0148 148.625 73.0491 148.598 73.0758L148.175 72.4807C148.343 72.3242 148.537 72.1964 148.758 72.0972C148.984 71.9942 149.224 71.9427 149.48 71.9427C149.712 71.9427 149.913 71.9694 150.08 72.0229C150.248 72.0763 150.386 72.1526 150.492 72.2518C150.603 72.3471 150.683 72.4654 150.733 72.6065C150.786 72.7439 150.813 72.9003 150.813 73.0758ZM154.26 74.8956C154.26 75.0672 154.229 75.2256 154.168 75.3705C154.111 75.5117 154.023 75.6357 153.905 75.7425C153.787 75.8493 153.638 75.9332 153.459 75.9943C153.283 76.0515 153.079 76.0801 152.846 76.0801C152.579 76.0801 152.356 76.0439 152.177 75.9714C152.001 75.8951 151.858 75.8016 151.748 75.691C151.641 75.5803 151.565 75.4602 151.519 75.3305C151.473 75.1969 151.45 75.0749 151.45 74.9642C151.45 74.8498 151.465 74.7449 151.496 74.6495C151.526 74.5541 151.568 74.4683 151.622 74.392C151.675 74.3119 151.734 74.2394 151.799 74.1745C151.868 74.1097 151.94 74.0486 152.017 73.9914C151.853 73.8579 151.731 73.7263 151.65 73.5965C151.574 73.4668 151.536 73.3009 151.536 73.0987C151.536 72.9461 151.566 72.7992 151.628 72.6581C151.692 72.5169 151.782 72.3948 151.896 72.2918C152.011 72.185 152.148 72.1011 152.308 72.04C152.473 71.9752 152.654 71.9427 152.852 71.9427C153.085 71.9427 153.283 71.9771 153.447 72.0457C153.615 72.1106 153.752 72.1945 153.859 72.2975C153.966 72.4005 154.042 72.5169 154.088 72.6466C154.138 72.7725 154.163 72.8984 154.163 73.0243C154.163 73.2074 154.113 73.3791 154.014 73.5393C153.918 73.6957 153.798 73.8197 153.653 73.9113C153.871 74.0524 154.025 74.2012 154.117 74.3576C154.212 74.5102 154.26 74.6895 154.26 74.8956ZM152.28 74.9299C152.28 74.9757 152.289 75.0272 152.308 75.0844C152.331 75.1378 152.366 75.1874 152.411 75.2332C152.457 75.279 152.516 75.3171 152.589 75.3476C152.661 75.3782 152.749 75.3934 152.852 75.3934C153.051 75.3934 153.195 75.3457 153.287 75.2504C153.379 75.155 153.424 75.0482 153.424 74.9299C153.424 74.8421 153.403 74.7639 153.361 74.6953C153.323 74.6266 153.27 74.5675 153.201 74.5179C153.133 74.4645 153.051 74.4187 152.955 74.3805C152.864 74.3386 152.764 74.3004 152.658 74.2661C152.551 74.3462 152.461 74.4397 152.389 74.5465C152.316 74.6533 152.28 74.7811 152.28 74.9299ZM153.339 73.0472C153.339 73.0052 153.329 72.9613 153.31 72.9156C153.295 72.866 153.266 72.8202 153.224 72.7782C153.186 72.7363 153.136 72.7019 153.075 72.6752C153.014 72.6447 152.94 72.6294 152.852 72.6294C152.768 72.6294 152.696 72.6428 152.635 72.6695C152.574 72.6962 152.522 72.7324 152.48 72.7782C152.442 72.8202 152.413 72.866 152.394 72.9156C152.375 72.9652 152.366 73.0128 152.366 73.0586C152.366 73.1807 152.41 73.2952 152.497 73.402C152.589 73.5088 152.743 73.6004 152.961 73.6767C153.083 73.6004 153.176 73.5126 153.241 73.4134C153.306 73.3142 153.339 73.1922 153.339 73.0472ZM156.705 73.0529C156.705 73.4115 156.614 73.6862 156.431 73.8769C156.248 74.0677 156.002 74.1631 155.693 74.1631C155.384 74.1631 155.137 74.0677 154.954 73.8769C154.771 73.6862 154.68 73.4115 154.68 73.0529C154.68 72.6943 154.771 72.4196 154.954 72.2289C155.137 72.0381 155.384 71.9427 155.693 71.9427C156.002 71.9427 156.248 72.0381 156.431 72.2289C156.614 72.4196 156.705 72.6943 156.705 73.0529ZM156.059 73.0529C156.059 72.8583 156.024 72.7172 155.956 72.6294C155.887 72.5417 155.799 72.4978 155.693 72.4978C155.582 72.4978 155.492 72.5417 155.424 72.6294C155.359 72.7172 155.326 72.8583 155.326 73.0529C155.326 73.2475 155.359 73.3905 155.424 73.4821C155.492 73.5698 155.582 73.6137 155.693 73.6137C155.799 73.6137 155.887 73.5698 155.956 73.4821C156.024 73.3905 156.059 73.2475 156.059 73.0529ZM157.821 72.0343H158.617L156.379 76H155.584L157.821 72.0343ZM159.532 74.9814C159.532 75.34 159.441 75.6147 159.258 75.8054C159.075 75.9962 158.828 76.0916 158.519 76.0916C158.21 76.0916 157.964 75.9962 157.781 75.8054C157.598 75.6147 157.507 75.34 157.507 74.9814C157.507 74.6228 157.598 74.3481 157.781 74.1574C157.964 73.9666 158.21 73.8712 158.519 73.8712C158.828 73.8712 159.075 73.9666 159.258 74.1574C159.441 74.3481 159.532 74.6228 159.532 74.9814ZM158.886 74.9814C158.886 74.7868 158.851 74.6457 158.783 74.5579C158.714 74.4702 158.626 74.4263 158.519 74.4263C158.409 74.4263 158.319 74.4702 158.251 74.5579C158.186 74.6457 158.153 74.7868 158.153 74.9814C158.153 75.176 158.186 75.319 158.251 75.4106C158.319 75.4983 158.409 75.5422 158.519 75.5422C158.626 75.5422 158.714 75.4983 158.783 75.4106C158.851 75.319 158.886 75.176 158.886 74.9814Z" fill="#10171F"/>
<path d="M187.838 59.0758C187.838 59.2208 187.81 59.36 187.753 59.4935C187.695 59.6271 187.621 59.7568 187.529 59.8827C187.438 60.0047 187.335 60.123 187.22 60.2375C187.106 60.3519 186.993 60.4606 186.883 60.5636C186.825 60.6171 186.763 60.6781 186.694 60.7468C186.629 60.8116 186.566 60.8784 186.505 60.9471C186.444 61.0157 186.389 61.0806 186.339 61.1416C186.293 61.1988 186.265 61.2465 186.253 61.2847H187.959V62H185.315C185.307 61.958 185.303 61.9046 185.303 61.8398C185.303 61.7749 185.303 61.7291 185.303 61.7024C185.303 61.5193 185.332 61.3514 185.389 61.1988C185.45 61.0462 185.528 60.9051 185.624 60.7754C185.719 60.6419 185.826 60.5179 185.944 60.4034C186.066 60.289 186.186 60.1745 186.305 60.0601C186.396 59.9723 186.482 59.8903 186.562 59.814C186.642 59.7339 186.713 59.6576 186.774 59.5851C186.835 59.5088 186.883 59.4344 186.917 59.3619C186.951 59.2856 186.969 59.2093 186.969 59.133C186.969 58.9652 186.921 58.8469 186.825 58.7782C186.73 58.7096 186.612 58.6752 186.471 58.6752C186.368 58.6752 186.27 58.6924 186.179 58.7267C186.091 58.7572 186.009 58.7954 185.933 58.8412C185.86 58.8831 185.797 58.927 185.744 58.9728C185.691 59.0148 185.65 59.0491 185.624 59.0758L185.2 58.4807C185.368 58.3242 185.563 58.1964 185.784 58.0972C186.009 57.9942 186.249 57.9427 186.505 57.9427C186.738 57.9427 186.938 57.9694 187.106 58.0229C187.274 58.0763 187.411 58.1526 187.518 58.2518C187.629 58.3471 187.709 58.4654 187.758 58.6065C187.812 58.7439 187.838 58.9003 187.838 59.0758ZM191.091 59.0758C191.091 59.2208 191.062 59.36 191.005 59.4935C190.948 59.6271 190.873 59.7568 190.782 59.8827C190.69 60.0047 190.587 60.123 190.473 60.2375C190.358 60.3519 190.246 60.4606 190.135 60.5636C190.078 60.6171 190.015 60.6781 189.946 60.7468C189.881 60.8116 189.819 60.8784 189.757 60.9471C189.696 61.0157 189.641 61.0806 189.592 61.1416C189.546 61.1988 189.517 61.2465 189.506 61.2847H191.211V62H188.567C188.56 61.958 188.556 61.9046 188.556 61.8398C188.556 61.7749 188.556 61.7291 188.556 61.7024C188.556 61.5193 188.584 61.3514 188.642 61.1988C188.703 61.0462 188.781 60.9051 188.876 60.7754C188.972 60.6419 189.078 60.5179 189.197 60.4034C189.319 60.289 189.439 60.1745 189.557 60.0601C189.649 59.9723 189.735 59.8903 189.815 59.814C189.895 59.7339 189.965 59.6576 190.026 59.5851C190.087 59.5088 190.135 59.4344 190.169 59.3619C190.204 59.2856 190.221 59.2093 190.221 59.133C190.221 58.9652 190.173 58.8469 190.078 58.7782C189.983 58.7096 189.864 58.6752 189.723 58.6752C189.62 58.6752 189.523 58.6924 189.431 58.7267C189.344 58.7572 189.262 58.7954 189.185 58.8412C189.113 58.8831 189.05 58.927 188.996 58.9728C188.943 59.0148 188.903 59.0491 188.876 59.0758L188.453 58.4807C188.621 58.3242 188.815 58.1964 189.036 58.0972C189.262 57.9942 189.502 57.9427 189.757 57.9427C189.99 57.9427 190.19 57.9694 190.358 58.0229C190.526 58.0763 190.664 58.1526 190.77 58.2518C190.881 58.3471 190.961 58.4654 191.011 58.6065C191.064 58.7439 191.091 58.9003 191.091 59.0758ZM193.731 59.0529C193.731 59.4115 193.639 59.6862 193.456 59.8769C193.273 60.0677 193.027 60.1631 192.718 60.1631C192.409 60.1631 192.163 60.0677 191.98 59.8769C191.797 59.6862 191.705 59.4115 191.705 59.0529C191.705 58.6943 191.797 58.4196 191.98 58.2289C192.163 58.0381 192.409 57.9427 192.718 57.9427C193.027 57.9427 193.273 58.0381 193.456 58.2289C193.639 58.4196 193.731 58.6943 193.731 59.0529ZM193.084 59.0529C193.084 58.8583 193.05 58.7172 192.981 58.6294C192.913 58.5417 192.825 58.4978 192.718 58.4978C192.607 58.4978 192.518 58.5417 192.449 58.6294C192.384 58.7172 192.352 58.8583 192.352 59.0529C192.352 59.2475 192.384 59.3905 192.449 59.4821C192.518 59.5698 192.607 59.6137 192.718 59.6137C192.825 59.6137 192.913 59.5698 192.981 59.4821C193.05 59.3905 193.084 59.2475 193.084 59.0529ZM194.847 58.0343H195.642L193.405 62H192.609L194.847 58.0343ZM196.558 60.9814C196.558 61.34 196.466 61.6147 196.283 61.8054C196.1 61.9962 195.854 62.0916 195.545 62.0916C195.236 62.0916 194.99 61.9962 194.807 61.8054C194.624 61.6147 194.532 61.34 194.532 60.9814C194.532 60.6228 194.624 60.3481 194.807 60.1574C194.99 59.9666 195.236 59.8712 195.545 59.8712C195.854 59.8712 196.1 59.9666 196.283 60.1574C196.466 60.3481 196.558 60.6228 196.558 60.9814ZM195.911 60.9814C195.911 60.7868 195.877 60.6457 195.808 60.5579C195.74 60.4702 195.652 60.4263 195.545 60.4263C195.434 60.4263 195.345 60.4702 195.276 60.5579C195.211 60.6457 195.179 60.7868 195.179 60.9814C195.179 61.176 195.211 61.319 195.276 61.4106C195.345 61.4983 195.434 61.5422 195.545 61.5422C195.652 61.5422 195.74 61.4983 195.808 61.4106C195.877 61.319 195.911 61.176 195.911 60.9814Z" fill="#10171F"/>
<path d="M220.451 84.3168C220.562 84.2711 220.677 84.2196 220.795 84.1623C220.917 84.1013 221.035 84.0364 221.15 83.9678C221.264 83.8953 221.373 83.8209 221.476 83.7446C221.583 83.6645 221.678 83.5805 221.762 83.4928H222.357V87.4585H221.504V84.603C221.39 84.6793 221.262 84.7498 221.121 84.8147C220.98 84.8757 220.843 84.9291 220.709 84.9749L220.451 84.3168ZM224.871 85.593C224.787 85.593 224.698 85.6006 224.602 85.6158C224.507 85.6311 224.433 85.6521 224.379 85.6788C224.379 85.6941 224.377 85.7169 224.373 85.7475C224.373 85.778 224.373 85.8047 224.373 85.8276C224.373 85.9649 224.383 86.0946 224.402 86.2167C224.421 86.3388 224.454 86.4456 224.499 86.5372C224.545 86.6287 224.606 86.7012 224.682 86.7546C224.759 86.8042 224.854 86.829 224.969 86.829C225.064 86.829 225.144 86.8099 225.209 86.7718C225.278 86.7298 225.333 86.6783 225.375 86.6173C225.421 86.5562 225.453 86.4895 225.472 86.417C225.495 86.3407 225.507 86.2682 225.507 86.1995C225.507 86.005 225.457 85.8562 225.358 85.7532C225.262 85.6464 225.1 85.593 224.871 85.593ZM224.98 84.9291C225.228 84.9291 225.438 84.9635 225.61 85.0321C225.785 85.097 225.928 85.1867 226.039 85.3011C226.149 85.4156 226.229 85.5491 226.279 85.7017C226.329 85.8543 226.353 86.0164 226.353 86.1881C226.353 86.3407 226.325 86.4971 226.268 86.6573C226.214 86.8176 226.13 86.9625 226.016 87.0923C225.905 87.222 225.762 87.3288 225.587 87.4127C225.415 87.4966 225.211 87.5386 224.974 87.5386C224.497 87.5386 224.135 87.3879 223.887 87.0865C223.639 86.7851 223.515 86.3693 223.515 85.839C223.515 85.4575 223.574 85.1199 223.692 84.8261C223.811 84.5324 223.979 84.2863 224.196 84.0879C224.417 83.8857 224.682 83.7331 224.991 83.6301C225.304 83.5233 225.655 83.468 226.044 83.4642C226.052 83.5824 226.06 83.6988 226.067 83.8133C226.075 83.9239 226.083 84.0402 226.09 84.1623C225.896 84.1661 225.713 84.1852 225.541 84.2196C225.373 84.2501 225.218 84.2997 225.077 84.3683C224.94 84.437 224.82 84.5267 224.717 84.6373C224.614 84.7441 224.534 84.8757 224.476 85.0321C224.56 84.994 224.646 84.9673 224.734 84.952C224.822 84.9368 224.904 84.9291 224.98 84.9291ZM227.763 86.5887C227.771 86.6802 227.775 86.7451 227.775 86.7832C227.779 86.8214 227.78 86.8538 227.78 86.8805C227.78 86.995 227.769 87.1171 227.746 87.2468C227.727 87.3727 227.698 87.5005 227.66 87.6302C227.622 87.7599 227.574 87.8896 227.517 88.0193C227.46 88.149 227.395 88.273 227.323 88.3913L226.653 88.2253C226.741 87.9735 226.802 87.737 226.836 87.5157C226.871 87.2945 226.888 87.1113 226.888 86.9664C226.888 86.9435 226.886 86.9149 226.882 86.8805C226.882 86.8424 226.88 86.8042 226.876 86.7661C226.876 86.7279 226.874 86.6917 226.871 86.6573C226.871 86.623 226.871 86.6001 226.871 86.5887H227.763ZM230.802 84.5343C230.802 84.6793 230.774 84.8185 230.717 84.952C230.659 85.0856 230.585 85.2153 230.493 85.3412C230.402 85.4632 230.299 85.5815 230.184 85.696C230.07 85.8104 229.957 85.9191 229.847 86.0221C229.79 86.0756 229.727 86.1366 229.658 86.2053C229.593 86.2701 229.53 86.3369 229.469 86.4056C229.408 86.4742 229.353 86.5391 229.303 86.6001C229.257 86.6573 229.229 86.705 229.217 86.7432H230.923V87.4585H228.279C228.271 87.4165 228.267 87.3631 228.267 87.2983C228.267 87.2334 228.267 87.1876 228.267 87.1609C228.267 86.9778 228.296 86.8099 228.353 86.6573C228.414 86.5047 228.492 86.3636 228.588 86.2339C228.683 86.1004 228.79 85.9764 228.908 85.8619C229.03 85.7475 229.151 85.633 229.269 85.5186C229.36 85.4308 229.446 85.3488 229.526 85.2725C229.606 85.1924 229.677 85.1161 229.738 85.0436C229.799 84.9673 229.847 84.8929 229.881 84.8204C229.915 84.7441 229.933 84.6678 229.933 84.5915C229.933 84.4237 229.885 84.3054 229.79 84.2367C229.694 84.1681 229.576 84.1337 229.435 84.1337C229.332 84.1337 229.234 84.1509 229.143 84.1852C229.055 84.2157 228.973 84.2539 228.897 84.2997C228.824 84.3416 228.761 84.3855 228.708 84.4313C228.655 84.4733 228.615 84.5076 228.588 84.5343L228.164 83.9391C228.332 83.7827 228.527 83.6549 228.748 83.5557C228.973 83.4527 229.213 83.4012 229.469 83.4012C229.702 83.4012 229.902 83.4279 230.07 83.4813C230.238 83.5348 230.375 83.6111 230.482 83.7102C230.593 83.8056 230.673 83.9239 230.722 84.065C230.776 84.2024 230.802 84.3588 230.802 84.5343ZM233.443 84.5114C233.443 84.87 233.351 85.1447 233.168 85.3354C232.985 85.5262 232.739 85.6216 232.43 85.6216C232.121 85.6216 231.875 85.5262 231.691 85.3354C231.508 85.1447 231.417 84.87 231.417 84.5114C231.417 84.1528 231.508 83.8781 231.691 83.6874C231.875 83.4966 232.121 83.4012 232.43 83.4012C232.739 83.4012 232.985 83.4966 233.168 83.6874C233.351 83.8781 233.443 84.1528 233.443 84.5114ZM232.796 84.5114C232.796 84.3168 232.762 84.1757 232.693 84.0879C232.624 84.0002 232.537 83.9563 232.43 83.9563C232.319 83.9563 232.229 84.0002 232.161 84.0879C232.096 84.1757 232.063 84.3168 232.063 84.5114C232.063 84.706 232.096 84.849 232.161 84.9406C232.229 85.0283 232.319 85.0722 232.43 85.0722C232.537 85.0722 232.624 85.0283 232.693 84.9406C232.762 84.849 232.796 84.706 232.796 84.5114ZM234.558 83.4928H235.354L233.116 87.4585H232.321L234.558 83.4928ZM236.269 86.4399C236.269 86.7985 236.178 87.0732 235.995 87.2639C235.812 87.4547 235.566 87.5501 235.257 87.5501C234.948 87.5501 234.702 87.4547 234.518 87.2639C234.335 87.0732 234.244 86.7985 234.244 86.4399C234.244 86.0813 234.335 85.8066 234.518 85.6158C234.702 85.4251 234.948 85.3297 235.257 85.3297C235.566 85.3297 235.812 85.4251 235.995 85.6158C236.178 85.8066 236.269 86.0813 236.269 86.4399ZM235.623 86.4399C235.623 86.2453 235.589 86.1042 235.52 86.0164C235.451 85.9287 235.363 85.8848 235.257 85.8848C235.146 85.8848 235.056 85.9287 234.988 86.0164C234.923 86.1042 234.89 86.2453 234.89 86.4399C234.89 86.6345 234.923 86.7775 234.988 86.8691C235.056 86.9568 235.146 87.0007 235.257 87.0007C235.363 87.0007 235.451 86.9568 235.52 86.8691C235.589 86.7775 235.623 86.6345 235.623 86.4399Z" fill="#10171F"/>
<path d="M257.273 92.9345C257.384 92.8887 257.498 92.8372 257.616 92.78C257.739 92.719 257.857 92.6541 257.971 92.5854C258.086 92.513 258.194 92.4386 258.297 92.3623C258.404 92.2821 258.5 92.1982 258.584 92.1105H259.179V96.0762H258.326V93.2206C258.212 93.2969 258.084 93.3675 257.943 93.4324C257.802 93.4934 257.664 93.5468 257.531 93.5926L257.273 92.9345ZM260.526 92.9345C260.636 92.8887 260.751 92.8372 260.869 92.78C260.991 92.719 261.109 92.6541 261.224 92.5854C261.338 92.513 261.447 92.4386 261.55 92.3623C261.657 92.2821 261.752 92.1982 261.836 92.1105H262.431V96.0762H261.579V93.2206C261.464 93.2969 261.336 93.3675 261.195 93.4324C261.054 93.4934 260.917 93.5468 260.783 93.5926L260.526 92.9345ZM264.585 95.2063C264.593 95.2979 264.596 95.3628 264.596 95.4009C264.6 95.4391 264.602 95.4715 264.602 95.4982C264.602 95.6126 264.591 95.7347 264.568 95.8644C264.549 95.9903 264.52 96.1181 264.482 96.2478C264.444 96.3776 264.396 96.5073 264.339 96.637C264.282 96.7667 264.217 96.8907 264.144 97.0089L263.475 96.843C263.562 96.5912 263.624 96.3547 263.658 96.1334C263.692 95.9121 263.709 95.729 263.709 95.584C263.709 95.5611 263.707 95.5325 263.704 95.4982C263.704 95.46 263.702 95.4219 263.698 95.3837C263.698 95.3456 263.696 95.3094 263.692 95.275C263.692 95.2407 263.692 95.2178 263.692 95.2063H264.585ZM265.598 96.0762C265.621 95.7977 265.669 95.5077 265.741 95.2063C265.814 94.905 265.902 94.6093 266.005 94.3194C266.111 94.0294 266.23 93.7566 266.359 93.501C266.489 93.2416 266.621 93.0184 266.754 92.8315H265.032V92.1047H267.807V92.7228C267.685 92.8563 267.55 93.0413 267.401 93.2779C267.256 93.5144 267.117 93.7834 266.983 94.0847C266.853 94.3823 266.739 94.7028 266.64 95.0461C266.544 95.3895 266.485 95.7328 266.462 96.0762H265.598ZM270.264 93.1291C270.264 93.4877 270.173 93.7624 269.99 93.9531C269.806 94.1439 269.56 94.2392 269.251 94.2392C268.942 94.2392 268.696 94.1439 268.513 93.9531C268.33 93.7624 268.238 93.4877 268.238 93.1291C268.238 92.7705 268.33 92.4958 268.513 92.305C268.696 92.1143 268.942 92.0189 269.251 92.0189C269.56 92.0189 269.806 92.1143 269.99 92.305C270.173 92.4958 270.264 92.7705 270.264 93.1291ZM269.618 93.1291C269.618 92.9345 269.583 92.7934 269.515 92.7056C269.446 92.6179 269.358 92.574 269.251 92.574C269.141 92.574 269.051 92.6179 268.982 92.7056C268.918 92.7934 268.885 92.9345 268.885 93.1291C268.885 93.3236 268.918 93.4667 268.982 93.5583C269.051 93.646 269.141 93.6899 269.251 93.6899C269.358 93.6899 269.446 93.646 269.515 93.5583C269.583 93.4667 269.618 93.3236 269.618 93.1291ZM271.38 92.1105H272.176L269.938 96.0762H269.143L271.38 92.1105ZM273.091 95.0576C273.091 95.4162 273 95.6909 272.816 95.8816C272.633 96.0724 272.387 96.1677 272.078 96.1677C271.769 96.1677 271.523 96.0724 271.34 95.8816C271.157 95.6909 271.065 95.4162 271.065 95.0576C271.065 94.699 271.157 94.4243 271.34 94.2335C271.523 94.0428 271.769 93.9474 272.078 93.9474C272.387 93.9474 272.633 94.0428 272.816 94.2335C273 94.4243 273.091 94.699 273.091 95.0576ZM272.445 95.0576C272.445 94.863 272.41 94.7218 272.341 94.6341C272.273 94.5464 272.185 94.5025 272.078 94.5025C271.968 94.5025 271.878 94.5464 271.809 94.6341C271.744 94.7218 271.712 94.863 271.712 95.0576C271.712 95.2521 271.744 95.3952 271.809 95.4868C271.878 95.5745 271.968 95.6184 272.078 95.6184C272.185 95.6184 272.273 95.5745 272.341 95.4868C272.41 95.3952 272.445 95.2521 272.445 95.0576Z" fill="#10171F"/>
<path d="M297.087 100.203C296.938 100.398 296.78 100.61 296.612 100.838C296.444 101.067 296.303 101.302 296.188 101.542H297.087V100.203ZM297.922 99.1617V101.542H298.346V102.24H297.922V103.127H297.087V102.24H295.376V101.617C295.46 101.449 295.565 101.26 295.69 101.05C295.816 100.837 295.956 100.619 296.108 100.398C296.265 100.173 296.429 99.9534 296.6 99.7397C296.772 99.5261 296.944 99.3334 297.115 99.1617H297.922ZM299.721 102.258C299.729 102.349 299.733 102.414 299.733 102.452C299.736 102.49 299.738 102.523 299.738 102.549C299.738 102.664 299.727 102.786 299.704 102.916C299.685 103.042 299.656 103.169 299.618 103.299C299.58 103.429 299.532 103.559 299.475 103.688C299.418 103.818 299.353 103.942 299.28 104.06L298.611 103.894C298.699 103.642 298.76 103.406 298.794 103.185C298.828 102.963 298.846 102.78 298.846 102.635C298.846 102.612 298.844 102.584 298.84 102.549C298.84 102.511 298.838 102.473 298.834 102.435C298.834 102.397 298.832 102.361 298.828 102.326C298.828 102.292 298.828 102.269 298.828 102.258H299.721ZM301.49 101.262C301.406 101.262 301.316 101.27 301.221 101.285C301.126 101.3 301.051 101.321 300.998 101.348C300.998 101.363 300.996 101.386 300.992 101.416C300.992 101.447 300.992 101.474 300.992 101.497C300.992 101.634 301.002 101.764 301.021 101.886C301.04 102.008 301.072 102.115 301.118 102.206C301.164 102.298 301.225 102.37 301.301 102.424C301.377 102.473 301.473 102.498 301.587 102.498C301.683 102.498 301.763 102.479 301.828 102.441C301.896 102.399 301.952 102.347 301.994 102.286C302.039 102.225 302.072 102.158 302.091 102.086C302.114 102.01 302.125 101.937 302.125 101.868C302.125 101.674 302.076 101.525 301.976 101.422C301.881 101.315 301.719 101.262 301.49 101.262ZM301.599 100.598C301.847 100.598 302.056 100.632 302.228 100.701C302.404 100.766 302.547 100.856 302.657 100.97C302.768 101.085 302.848 101.218 302.898 101.371C302.947 101.523 302.972 101.685 302.972 101.857C302.972 102.01 302.943 102.166 302.886 102.326C302.833 102.487 302.749 102.631 302.634 102.761C302.524 102.891 302.381 102.998 302.205 103.082C302.034 103.166 301.829 103.208 301.593 103.208C301.116 103.208 300.754 103.057 300.506 102.755C300.258 102.454 300.134 102.038 300.134 101.508C300.134 101.126 300.193 100.789 300.311 100.495C300.429 100.201 300.597 99.9553 300.815 99.7569C301.036 99.5547 301.301 99.4021 301.61 99.2991C301.923 99.1923 302.274 99.1369 302.663 99.1331C302.671 99.2514 302.678 99.3677 302.686 99.4822C302.694 99.5928 302.701 99.7092 302.709 99.8313C302.514 99.8351 302.331 99.8542 302.159 99.8885C301.992 99.919 301.837 99.9686 301.696 100.037C301.559 100.106 301.438 100.196 301.335 100.306C301.232 100.413 301.152 100.545 301.095 100.701C301.179 100.663 301.265 100.636 301.353 100.621C301.44 100.606 301.522 100.598 301.599 100.598ZM305.4 100.18C305.4 100.539 305.309 100.814 305.126 101.004C304.943 101.195 304.697 101.291 304.388 101.291C304.079 101.291 303.832 101.195 303.649 101.004C303.466 100.814 303.375 100.539 303.375 100.18C303.375 99.8217 303.466 99.5471 303.649 99.3563C303.832 99.1656 304.079 99.0702 304.388 99.0702C304.697 99.0702 304.943 99.1656 305.126 99.3563C305.309 99.5471 305.4 99.8217 305.4 100.18ZM304.754 100.18C304.754 99.9858 304.719 99.8446 304.651 99.7569C304.582 99.6691 304.494 99.6253 304.388 99.6253C304.277 99.6253 304.187 99.6691 304.119 99.7569C304.054 99.8446 304.021 99.9858 304.021 100.18C304.021 100.375 304.054 100.518 304.119 100.61C304.187 100.697 304.277 100.741 304.388 100.741C304.494 100.741 304.582 100.697 304.651 100.61C304.719 100.518 304.754 100.375 304.754 100.18ZM306.516 99.1617H307.312L305.074 103.127H304.279L306.516 99.1617ZM308.227 102.109C308.227 102.467 308.136 102.742 307.953 102.933C307.77 103.124 307.524 103.219 307.214 103.219C306.905 103.219 306.659 103.124 306.476 102.933C306.293 102.742 306.202 102.467 306.202 102.109C306.202 101.75 306.293 101.476 306.476 101.285C306.659 101.094 306.905 100.999 307.214 100.999C307.524 100.999 307.77 101.094 307.953 101.285C308.136 101.476 308.227 101.75 308.227 102.109ZM307.581 102.109C307.581 101.914 307.546 101.773 307.478 101.685C307.409 101.598 307.321 101.554 307.214 101.554C307.104 101.554 307.014 101.598 306.946 101.685C306.881 101.773 306.848 101.914 306.848 102.109C306.848 102.303 306.881 102.446 306.946 102.538C307.014 102.626 307.104 102.67 307.214 102.67C307.321 102.67 307.409 102.626 307.478 102.538C307.546 102.446 307.581 102.303 307.581 102.109Z" fill="#10171F"/>
<rect x="110.369" y="128.465" width="14.8854" height="4.70064" rx="2.35032" fill="#D6D6D6"/>
<rect x="147.191" y="128.465" width="14.8854" height="4.70064" rx="2.35032" fill="#D6D6D6"/>
<rect x="184.013" y="128.465" width="14.8854" height="4.70064" rx="2.35032" fill="#D6D6D6"/>
<rect x="220.834" y="128.465" width="14.8854" height="4.70064" rx="2.35032" fill="#D6D6D6"/>
<rect x="257.656" y="128.465" width="14.8854" height="4.70064" rx="2.35032" fill="#D6D6D6"/>
<rect x="294.478" y="128.465" width="14.8854" height="4.70064" rx="2.35032" fill="#D6D6D6"/>
<rect x="291.344" y="29.7515" width="26.6369" height="10.9682" rx="5.48408" fill="#D6D6D6"/>
<rect x="100.968" y="29.7515" width="106.548" height="10.9682" rx="5.48408" fill="#D6D6D6"/>
</g>
<defs>
<radialGradient id="paint0_radial_100_433" cx="0" cy="0" r="1" gradientUnits="userSpaceOnUse" gradientTransform="translate(190 190) rotate(90) scale(190)">
<stop stop-color="#F9F9F9"/>
<stop offset="1" stop-color="#F9F9F9"/>
</radialGradient>
<radialGradient id="paint1_radial_100_433" cx="0" cy="0" r="1" gradientUnits="userSpaceOnUse" gradientTransform="translate(190 190) rotate(90) scale(190)">
<stop stop-color="#F9F9F9"/>
<stop offset="1" stop-color="#F9F9F9"/>
</radialGradient>
<linearGradient id="paint2_linear_100_433" x1="209" y1="67" x2="209" y2="159" gradientUnits="userSpaceOnUse">
<stop stop-color="#F9F9F9" stop-opacity="0"/>
<stop offset="1" stop-color="#F9F9F9"/>
</linearGradient>
<linearGradient id="paint3_linear_100_433" x1="209.083" y1="18" x2="209.083" y2="141" gradientUnits="userSpaceOnUse">
<stop stop-color="#F3F3F3"/>
<stop offset="1" stop-color="#F0F0F0"/>
</linearGradient>
<linearGradient id="paint4_linear_100_433" x1="203.798" y1="77.2535" x2="169.322" y2="97.6479" gradientUnits="userSpaceOnUse">
<stop stop-color="#FF6048"/>
<stop offset="1" stop-color="#FF9802"/>
</linearGradient>
<clipPath id="clip0_100_433">
<path d="M0 12C0 5.37258 5.37258 0 12 0H406C412.627 0 418 5.37258 418 12V159H0V12Z" fill="white"/>
</clipPath>
</defs>
</svg>
