<svg width="418" height="159" viewBox="0 0 418 159" fill="none" xmlns="http://www.w3.org/2000/svg">
<g clip-path="url(#clip0_100_521)">
<path d="M418 159L0 159L-1.28511e-05 12C-1.34305e-05 5.37263 5.37258 3.6073e-05 12 3.54936e-05L406 1.04907e-06C412.627 4.69687e-07 418 5.37259 418 12L418 159Z" fill="white"/>
<g filter="url(#filter0_f_100_521)">
<ellipse cx="207.931" cy="76.6593" rx="197.561" ry="42.0343" fill="#BABABA" fill-opacity="0.36"/>
</g>
<path d="M236.514 86.7476L241.08 82.1845C241.711 81.5543 242.566 81.2003 243.457 81.2003H296.645C297.536 81.2003 298.391 80.8463 299.022 80.2162L306.303 72.94C306.934 72.3093 307.288 71.4536 307.288 70.5614V52.6664C307.288 50.8092 308.794 49.3037 310.651 49.3037H472.765C474.623 49.3037 476.128 50.8092 476.128 52.6664V73.6772C476.128 75.5343 477.634 77.0399 479.491 77.0399H600.618C602.475 77.0399 603.98 75.5343 603.98 73.6772V-41.6366C603.98 -43.4938 605.486 -44.9994 607.343 -44.9994H719.157C720.048 -44.9994 720.903 -45.3534 721.534 -45.9835L730.204 -54.6475C730.834 -55.2776 731.689 -55.6316 732.581 -55.6316H793.049C794.906 -55.6316 796.411 -57.1371 796.411 -58.9943V-94" stroke="url(#paint0_linear_100_521)" stroke-width="0.840686"/>
<path d="M476.969 62.7483C476.969 63.2126 476.592 63.5889 476.128 63.5889C475.664 63.5889 475.287 63.2126 475.287 62.7483H476.969ZM306.302 72.94L305.708 72.3454L306.302 72.94ZM299.021 80.2162L299.616 80.8108L299.021 80.2162ZM241.08 82.1845L241.675 82.7791L241.08 82.1845ZM235.92 86.1529L240.486 81.5898L241.675 82.7791L237.108 87.3422L235.92 86.1529ZM243.457 80.3597H296.644V82.041H243.457V80.3597ZM298.427 79.6215L305.708 72.3454L306.897 73.5347L299.616 80.8108L298.427 79.6215ZM306.447 70.5614V52.6665H308.129V70.5614H306.447ZM310.651 48.463H472.765V50.1444H310.651V48.463ZM476.969 52.6665V62.7483H475.287V52.6665H476.969ZM472.765 48.463C475.087 48.463 476.969 50.345 476.969 52.6665H475.287C475.287 51.2736 474.158 50.1444 472.765 50.1444V48.463ZM306.447 52.6665C306.447 50.345 308.329 48.463 310.651 48.463V50.1444C309.258 50.1444 308.129 51.2736 308.129 52.6665H306.447ZM305.708 72.3454C306.181 71.8723 306.447 71.2306 306.447 70.5614H308.129C308.129 71.6767 307.686 72.7463 306.897 73.5347L305.708 72.3454ZM296.644 80.3597C297.313 80.3597 297.954 80.0942 298.427 79.6215L299.616 80.8108C298.827 81.5985 297.759 82.041 296.644 82.041V80.3597ZM240.486 81.5898C241.274 80.8021 242.343 80.3597 243.457 80.3597V82.041C242.789 82.041 242.147 82.3065 241.675 82.7791L240.486 81.5898Z" fill="url(#paint1_linear_100_521)"/>
<path d="M236.514 86.7474L241.081 82.1843C241.711 81.5541 242.566 81.2001 243.458 81.2001H296.645C297.536 81.2001 298.391 80.8461 299.022 80.216L306.304 72.9389C306.934 72.3087 307.789 71.9547 308.681 71.9547H343.15C344.042 71.9547 344.897 72.309 345.527 72.9397L352.803 80.2152C353.434 80.8458 354.289 81.2001 355.181 81.2001H424.408C426.265 81.2001 427.771 79.6946 427.771 77.8374V70.7744C427.771 68.9172 429.276 67.4116 431.133 67.4116H440.801C442.658 67.4116 444.164 68.9172 444.164 70.7744V104.402C444.164 106.259 445.669 107.765 447.527 107.765H518.144" stroke="url(#paint2_linear_100_521)" stroke-width="0.840686"/>
<path d="M395.824 80.3598C396.289 80.3598 396.665 80.7362 396.665 81.2005C396.665 81.6648 396.289 82.0412 395.824 82.0412V80.3598ZM352.803 80.2155L352.209 80.81L352.803 80.2155ZM345.528 72.94L346.122 72.3455L345.528 72.94ZM306.304 72.9392L306.898 73.5339L306.304 72.9392ZM241.081 82.1846L241.675 82.7793L241.081 82.1846ZM235.92 86.1531L240.486 81.59L241.675 82.7793L237.109 87.3424L235.92 86.1531ZM243.458 80.3598H296.645V82.0412H243.458V80.3598ZM298.427 79.6217L305.709 72.3446L306.898 73.5339L299.616 80.811L298.427 79.6217ZM308.681 71.1144H343.15V72.7958H308.681V71.1144ZM346.122 72.3455L353.398 79.6211L352.209 80.81L344.933 73.5345L346.122 72.3455ZM355.181 80.3598H395.824V82.0412H355.181V80.3598ZM353.398 79.6211C353.871 80.0941 354.512 80.3598 355.181 80.3598V82.0412C354.066 82.0412 352.997 81.5983 352.209 80.81L353.398 79.6211ZM343.15 71.1144C344.265 71.1144 345.334 71.5573 346.122 72.3455L344.933 73.5345C344.46 73.0615 343.819 72.7958 343.15 72.7958V71.1144ZM305.709 72.3446C306.498 71.5569 307.566 71.1144 308.681 71.1144V72.7958C308.012 72.7958 307.371 73.0613 306.898 73.5339L305.709 72.3446ZM296.645 80.3598C297.313 80.3598 297.954 80.0943 298.427 79.6217L299.616 80.811C298.828 81.5987 297.759 82.0412 296.645 82.0412V80.3598ZM240.486 81.59C241.275 80.8023 242.343 80.3598 243.458 80.3598V82.0412C242.789 82.0412 242.148 82.3066 241.675 82.7793L240.486 81.59Z" fill="url(#paint3_linear_100_521)"/>
<path d="M239.877 58.1641H250.194C252.201 58.1641 254.125 57.3669 255.544 55.948L267.085 44.4071C268.504 42.9882 269.301 41.0637 269.301 39.057V30.613C269.301 28.6064 270.098 26.6819 271.517 25.2629L279.275 17.5051C280.694 16.0862 282.618 15.2891 284.625 15.2891H453.22C455.226 15.2891 457.151 16.0862 458.57 17.5051L466.328 25.2629C467.747 26.6819 469.671 27.479 471.678 27.479H523.417C525.424 27.479 527.348 26.6819 528.767 25.2629L592.01 -37.9802C593.429 -39.3991 595.354 -40.1962 597.36 -40.1962H612.53C614.537 -40.1962 616.461 -40.9934 617.88 -42.4123L669.468 -94.0002" stroke="url(#paint4_linear_100_521)" stroke-width="0.840686"/>
<path d="M239.036 94.7341H250.254C251.146 94.7341 252.001 95.0884 252.632 95.7191L260.33 103.417C260.96 104.048 261.816 104.402 262.708 104.402H279.258C280.149 104.402 281.005 104.756 281.635 105.387L300.683 124.434C301.313 125.065 302.169 125.419 303.06 125.419H412.086C412.978 125.419 413.833 125.773 414.464 126.404L435.613 147.553C436.243 148.184 437.099 148.538 437.991 148.538H503.721C504.613 148.538 505.468 148.892 506.099 149.523L540.699 184.123C541.329 184.754 542.185 185.108 543.076 185.108H726.635" stroke="url(#paint5_linear_100_521)" stroke-width="0.840686"/>
<path d="M165.897 68.2524L161.331 72.8155C160.7 73.4457 159.845 73.7997 158.954 73.7997H105.767C104.875 73.7997 104.02 74.1537 103.39 74.7838L96.1088 82.06C95.4777 82.6907 95.1231 83.5464 95.1231 84.4386V102.334C95.1231 104.191 93.6176 105.696 91.7604 105.696H-70.354C-72.2111 105.696 -73.7167 104.191 -73.7167 102.334V81.3228C-73.7167 79.4657 -75.2223 77.9601 -77.0794 77.9601H-198.206C-200.063 77.9601 -201.569 79.4657 -201.569 81.3228V196.637C-201.569 198.494 -203.074 199.999 -204.932 199.999H-316.745C-317.637 199.999 -318.492 200.353 -319.123 200.984L-327.792 209.647C-328.423 210.278 -329.278 210.632 -330.169 210.632H-390.637C-392.494 210.632 -394 212.137 -394 213.994V249" stroke="url(#paint6_linear_100_521)" stroke-width="0.840686"/>
<path d="M165.897 68.2526L161.331 72.8157C160.7 73.4459 159.845 73.7999 158.954 73.7999H105.767C104.875 73.7999 104.02 74.1539 103.39 74.784L96.1079 82.0611C95.4773 82.6913 94.6223 83.0453 93.7308 83.0453H59.2617C58.3699 83.0453 57.5145 82.691 56.8839 82.0603L49.6083 74.7848C48.9777 74.1542 48.1224 73.7999 47.2305 73.7999H-21.9964C-23.8536 73.7999 -25.3591 75.3054 -25.3591 77.1626V84.2256C-25.3591 86.0828 -26.8647 87.5884 -28.7219 87.5884H-38.3898C-40.247 87.5884 -41.7525 86.0828 -41.7525 84.2256V50.5982C-41.7525 48.741 -43.2581 47.2354 -45.1153 47.2354H-115.733" stroke="url(#paint7_linear_100_521)" stroke-width="0.840686"/>
<path d="M162.534 96.8359H152.217C150.211 96.8359 148.286 97.6331 146.867 99.052L135.326 110.593C133.907 112.012 133.11 113.936 133.11 115.943V124.387C133.11 126.394 132.313 128.318 130.894 129.737L123.136 137.495C121.717 138.914 119.793 139.711 117.786 139.711H-50.8084C-52.8151 139.711 -54.7396 138.914 -56.1585 137.495L-63.9163 129.737C-65.3352 128.318 -67.2597 127.521 -69.2664 127.521H-121.006C-123.012 127.521 -124.937 128.318 -126.356 129.737L-189.599 192.98C-191.018 194.399 -192.942 195.196 -194.949 195.196H-210.118C-212.125 195.196 -214.05 195.993 -215.469 197.412L-267.056 249" stroke="url(#paint8_linear_100_521)" stroke-width="0.840686"/>
<rect y="97" width="418" height="68" fill="url(#paint9_linear_100_521)"/>
<path d="M239.037 94.734H250.254C251.146 94.734 252.001 95.0883 252.632 95.7189L260.33 103.417C260.961 104.048 261.816 104.402 262.708 104.402H279.258C280.15 104.402 281.005 104.756 281.636 105.387L300.683 124.434C301.314 125.065 302.169 125.419 303.061 125.419H413.479H496.996C497.887 125.419 498.743 125.065 499.373 124.434L515.058 108.75C515.689 108.119 516.544 107.765 517.436 107.765H542.393C543.285 107.765 544.14 108.119 544.77 108.75L550.787 114.766C551.418 115.397 552.273 115.751 553.165 115.751H651.682C652.574 115.751 653.429 116.105 654.06 116.736L661.758 124.434C662.388 125.065 662.743 125.92 662.743 126.812V159.887" stroke="url(#paint10_linear_100_521)" stroke-width="0.840686"/>
<path d="M455.513 126.26C455.978 126.26 456.354 125.883 456.354 125.419C456.354 124.955 455.978 124.578 455.513 124.578V126.26ZM300.683 124.434L301.277 123.84L300.683 124.434ZM281.636 105.387L281.041 105.981L281.636 105.387ZM260.33 103.417L260.924 102.822L260.33 103.417ZM252.632 95.7188L252.037 96.3133L252.632 95.7188ZM239.037 95.5746H250.254V93.8932H239.037V95.5746ZM252.037 96.3133L259.736 104.011L260.924 102.822L253.226 95.1244L252.037 96.3133ZM262.708 105.242H279.258V103.561H262.708V105.242ZM281.041 105.981L300.088 125.028L301.277 123.84L282.23 104.792L281.041 105.981ZM303.061 126.26H455.513V124.578H303.061V126.26ZM300.088 125.028C300.877 125.817 301.946 126.26 303.061 126.26V124.578C302.392 124.578 301.75 124.313 301.277 123.84L300.088 125.028ZM279.258 105.242C279.927 105.242 280.568 105.508 281.041 105.981L282.23 104.792C281.442 104.004 280.373 103.561 279.258 103.561V105.242ZM259.736 104.011C260.524 104.8 261.593 105.242 262.708 105.242V103.561C262.039 103.561 261.397 103.295 260.924 102.822L259.736 104.011ZM250.254 95.5746C250.923 95.5746 251.564 95.8403 252.037 96.3133L253.226 95.1244C252.438 94.3361 251.369 93.8932 250.254 93.8932V95.5746Z" fill="url(#paint11_linear_100_521)"/>
<path d="M163.375 60.2659H152.158C151.266 60.2659 150.41 59.9116 149.78 59.2809L142.082 51.5829C141.451 50.9523 140.596 50.598 139.704 50.598H123.154C122.262 50.598 121.407 50.2437 120.776 49.613L101.729 30.5657C101.098 29.9351 100.243 29.5808 99.351 29.5808H-9.67448C-10.5663 29.5808 -11.4217 29.2265 -12.0523 28.5959L-33.2013 7.44687C-33.832 6.81623 -34.6873 6.46194 -35.5791 6.46194H-101.309C-102.201 6.46194 -103.056 6.10765 -103.687 5.47702L-138.287 -29.123C-138.918 -29.7536 -139.773 -30.1079 -140.665 -30.1079H-324.223" stroke="url(#paint12_linear_100_521)" stroke-width="0.840686"/>
<path d="M163.375 60.266H152.158C151.266 60.266 150.41 59.9117 149.78 59.2811L142.082 51.583C141.451 50.9524 140.596 50.5981 139.704 50.5981H123.154C122.262 50.5981 121.407 50.2438 120.776 49.6132L101.729 30.5659C101.098 29.9352 100.243 29.5809 99.351 29.5809H-11.0673H-94.5838C-95.4756 29.5809 -96.3309 29.9352 -96.9616 30.5659L-112.646 46.2504C-113.277 46.8811 -114.132 47.2353 -115.024 47.2353H-139.981C-140.873 47.2353 -141.728 46.8811 -142.359 46.2504L-148.375 40.2337C-149.006 39.6031 -149.861 39.2488 -150.753 39.2488H-249.27C-250.162 39.2488 -251.017 38.8945 -251.648 38.2639L-259.346 30.5659C-259.977 29.9352 -260.331 29.0799 -260.331 28.188V-4.88721" stroke="url(#paint13_linear_100_521)" stroke-width="0.840686"/>
<path d="M163.375 60.2661H152.158C151.266 60.2661 150.411 59.9118 149.78 59.2812L142.082 51.5831C141.451 50.9525 140.596 50.5982 139.704 50.5982H123.154C122.262 50.5982 121.407 50.2439 120.776 49.6133L101.729 30.566C101.098 29.9353 100.243 29.5811 99.3511 29.5811H12.4719" stroke="url(#paint14_linear_100_521)" stroke-width="1.68137" stroke-linecap="round"/>
<path d="M-48.4961 106.537C-48.9604 106.537 -49.3368 106.161 -49.3368 105.696C-49.3368 105.232 -48.9604 104.856 -48.4961 104.856V106.537ZM96.1088 82.06L96.7031 82.6546L96.1088 82.06ZM103.39 74.7838L102.796 74.1892L103.39 74.7838ZM161.331 72.8155L160.737 72.2209L161.331 72.8155ZM166.491 68.8471L161.925 73.4102L160.737 72.2209L165.303 67.6578L166.491 68.8471ZM158.954 74.6403H105.767V72.959H158.954V74.6403ZM103.984 75.3785L96.7031 82.6546L95.5146 81.4653L102.796 74.1892L103.984 75.3785ZM95.9638 84.4386V102.334H94.2824V84.4386H95.9638ZM91.7604 106.537H-48.4961V104.856H91.7604V106.537ZM95.9638 102.334C95.9638 104.655 94.0819 106.537 91.7604 106.537V104.856C93.1533 104.856 94.2824 103.726 94.2824 102.334H95.9638ZM96.7031 82.6546C96.2298 83.1277 95.9638 83.7694 95.9638 84.4386H94.2824C94.2824 83.3233 94.7257 82.2537 95.5146 81.4653L96.7031 82.6546ZM105.767 74.6403C105.098 74.6403 104.457 74.9058 103.984 75.3785L102.796 74.1892C103.584 73.4015 104.653 72.959 105.767 72.959V74.6403ZM161.925 73.4102C161.137 74.1979 160.068 74.6403 158.954 74.6403V72.959C159.623 72.959 160.264 72.6935 160.737 72.2209L161.925 73.4102Z" fill="url(#paint15_linear_100_521)"/>
<rect x="163.75" y="32.75" width="89.2941" height="89.2941" rx="16.0637" fill="url(#paint16_linear_100_521)" stroke="url(#paint17_linear_100_521)" stroke-width="1.5"/>
<path d="M200.932 83.4193H193.354L191.991 89H185.589L193.503 63.1308H200.932L208.845 89H202.294L200.932 83.4193ZM194.324 78.9771H199.924L197.124 67.5357L194.324 78.9771ZM227.981 63.1308V67.6103H222.643V84.5018H227.981V89H211.183V84.5018H216.521V67.6103H211.183V63.1308H227.981Z" fill="url(#paint18_linear_100_521)"/>
</g>
<defs>
<filter id="filter0_f_100_521" x="-157.767" y="-133.512" width="731.397" height="420.343" filterUnits="userSpaceOnUse" color-interpolation-filters="sRGB">
<feFlood flood-opacity="0" result="BackgroundImageFix"/>
<feBlend mode="normal" in="SourceGraphic" in2="BackgroundImageFix" result="shape"/>
<feGaussianBlur stdDeviation="84.0686" result="effect1_foregroundBlur_100_521"/>
</filter>
<linearGradient id="paint0_linear_100_521" x1="675.773" y1="-3.62624" x2="236.514" y2="-3.62624" gradientUnits="userSpaceOnUse">
<stop stop-color="#BABABA" stop-opacity="0"/>
<stop offset="1" stop-color="#BABABA"/>
</linearGradient>
<linearGradient id="paint1_linear_100_521" x1="286.312" y1="98.5172" x2="321.94" y2="152.408" gradientUnits="userSpaceOnUse">
<stop stop-color="#F78B4B" stop-opacity="0"/>
<stop offset="1" stop-color="#F78B4B"/>
</linearGradient>
<linearGradient id="paint2_linear_100_521" x1="518.144" y1="87.5881" x2="236.514" y2="87.5881" gradientUnits="userSpaceOnUse">
<stop stop-color="#BABABA" stop-opacity="0"/>
<stop offset="1" stop-color="#BABABA"/>
</linearGradient>
<linearGradient id="paint3_linear_100_521" x1="269.623" y1="91.3974" x2="280.035" y2="117.903" gradientUnits="userSpaceOnUse">
<stop stop-color="#F78B4B" stop-opacity="0"/>
<stop offset="1" stop-color="#F78B4B"/>
</linearGradient>
<linearGradient id="paint4_linear_100_521" x1="669.468" y1="-17.918" x2="239.877" y2="-17.918" gradientUnits="userSpaceOnUse">
<stop stop-color="#BABABA" stop-opacity="0"/>
<stop offset="1" stop-color="#BABABA"/>
</linearGradient>
<linearGradient id="paint5_linear_100_521" x1="726.635" y1="139.921" x2="239.036" y2="139.921" gradientUnits="userSpaceOnUse">
<stop stop-color="#BABABA" stop-opacity="0"/>
<stop offset="1" stop-color="#BABABA"/>
</linearGradient>
<linearGradient id="paint6_linear_100_521" x1="-273.362" y1="158.626" x2="165.897" y2="158.626" gradientUnits="userSpaceOnUse">
<stop stop-color="#BABABA" stop-opacity="0"/>
<stop offset="1" stop-color="#BABABA"/>
</linearGradient>
<linearGradient id="paint7_linear_100_521" x1="-115.733" y1="67.4119" x2="165.897" y2="67.4119" gradientUnits="userSpaceOnUse">
<stop stop-color="#BABABA" stop-opacity="0"/>
<stop offset="1" stop-color="#BABABA"/>
</linearGradient>
<linearGradient id="paint8_linear_100_521" x1="-267.056" y1="172.918" x2="162.534" y2="172.918" gradientUnits="userSpaceOnUse">
<stop stop-color="#BABABA" stop-opacity="0"/>
<stop offset="1" stop-color="#BABABA"/>
</linearGradient>
<linearGradient id="paint9_linear_100_521" x1="209" y1="97" x2="209" y2="165" gradientUnits="userSpaceOnUse">
<stop stop-color="#F9F9F9" stop-opacity="0"/>
<stop offset="1" stop-color="#F9F9F9"/>
</linearGradient>
<linearGradient id="paint10_linear_100_521" x1="662.743" y1="127.311" x2="239.037" y2="127.311" gradientUnits="userSpaceOnUse">
<stop stop-color="#BABABA" stop-opacity="0"/>
<stop offset="1" stop-color="#BABABA"/>
</linearGradient>
<linearGradient id="paint11_linear_100_521" x1="284.026" y1="85.0887" x2="312.019" y2="38.4098" gradientUnits="userSpaceOnUse">
<stop stop-color="#F78B4B" stop-opacity="0"/>
<stop offset="1" stop-color="#F78B4B"/>
</linearGradient>
<linearGradient id="paint12_linear_100_521" x1="-324.223" y1="15.079" x2="163.375" y2="15.079" gradientUnits="userSpaceOnUse">
<stop stop-color="#BABABA" stop-opacity="0"/>
<stop offset="1" stop-color="#BABABA"/>
</linearGradient>
<linearGradient id="paint13_linear_100_521" x1="-260.331" y1="27.6894" x2="163.375" y2="27.6894" gradientUnits="userSpaceOnUse">
<stop stop-color="#BABABA" stop-opacity="0"/>
<stop offset="1" stop-color="#BABABA"/>
</linearGradient>
<linearGradient id="paint14_linear_100_521" x1="145.3" y1="64.8899" x2="113.08" y2="107.214" gradientUnits="userSpaceOnUse">
<stop stop-color="#F78B4B" stop-opacity="0"/>
<stop offset="1" stop-color="#F78B4B"/>
</linearGradient>
<linearGradient id="paint15_linear_100_521" x1="121.341" y1="56.4828" x2="84.3262" y2="6.38739" gradientUnits="userSpaceOnUse">
<stop stop-color="#F78B4B" stop-opacity="0"/>
<stop offset="1" stop-color="#F78B4B"/>
</linearGradient>
<linearGradient id="paint16_linear_100_521" x1="208.397" y1="32" x2="208.397" y2="122.794" gradientUnits="userSpaceOnUse">
<stop stop-color="#E3E3E3"/>
<stop offset="1" stop-color="#F9F9F9"/>
</linearGradient>
<linearGradient id="paint17_linear_100_521" x1="243.306" y1="48.1548" x2="179.096" y2="112.365" gradientUnits="userSpaceOnUse">
<stop stop-color="#FF6048"/>
<stop offset="1" stop-color="#FF9802"/>
</linearGradient>
<linearGradient id="paint18_linear_100_521" x1="225.802" y1="57.0315" x2="184.114" y2="87.2888" gradientUnits="userSpaceOnUse">
<stop stop-color="#FF6048"/>
<stop offset="1" stop-color="#FF9802"/>
</linearGradient>
<clipPath id="clip0_100_521">
<path d="M418 159L0 159L-1.28511e-05 12C-1.34305e-05 5.37263 5.37258 3.6073e-05 12 3.54936e-05L406 1.04907e-06C412.627 4.69687e-07 418 5.37259 418 12L418 159Z" fill="white"/>
</clipPath>
</defs>
</svg>
