<svg width="418" height="159" viewBox="0 0 418 159" fill="none" xmlns="http://www.w3.org/2000/svg">
<g clip-path="url(#clip0_98_1167)">
<path d="M0 12C0 5.37258 5.37258 0 12 0H406C412.627 0 418 5.37258 418 12V159H0V12Z" fill="#1E2028"/>
<circle cx="-0.180524" cy="272.82" r="189.5" transform="rotate(119.414 -0.180524 272.82)" fill="url(#paint0_radial_98_1167)" fill-opacity="0.3" stroke="#2C343D"/>
<circle cx="394.819" cy="-134.18" r="189.5" transform="rotate(119.414 394.819 -134.18)" fill="url(#paint1_radial_98_1167)" fill-opacity="0.3" stroke="#2C343D"/>
<rect y="78" width="418" height="81" fill="url(#paint2_linear_98_1167)"/>
<rect x="163.75" y="32.75" width="91.5" height="91.5" rx="16.06" fill="url(#paint3_linear_98_1167)" stroke="url(#paint4_linear_98_1167)" stroke-width="1.5"/>
<g clip-path="url(#clip1_98_1167)">
<path d="M215.339 84.3395L224.658 93.6582M219.278 74.8292C219.278 82.257 213.257 88.2785 205.829 88.2785C198.401 88.2785 192.38 82.257 192.38 74.8292C192.38 67.4013 198.401 61.3799 205.829 61.3799C213.257 61.3799 219.278 67.4013 219.278 74.8292Z" stroke="url(#paint5_linear_98_1167)" stroke-width="5" stroke-linecap="round" stroke-linejoin="round"/>
</g>
<rect x="279.25" y="48.25" width="60.5" height="60.5" rx="14.75" fill="url(#paint6_linear_98_1167)" stroke="#666B82" stroke-width="0.5"/>
<rect x="79.25" y="48.25" width="60.5" height="60.5" rx="14.75" fill="url(#paint7_linear_98_1167)" stroke="#666B82" stroke-width="0.5"/>
<rect x="14.25" y="57.25" width="41.5" height="41.5" rx="9.75" fill="url(#paint8_linear_98_1167)" stroke="#666B82" stroke-width="0.5"/>
<rect x="363.25" y="57.25" width="41.5" height="41.5" rx="9.75" fill="url(#paint9_linear_98_1167)" stroke="#666B82" stroke-width="0.5"/>
<rect x="60" width="159" height="60" transform="rotate(90 60 0)" fill="url(#paint10_linear_98_1167)"/>
<rect x="358" y="159" width="159" height="60" transform="rotate(-90 358 159)" fill="url(#paint11_linear_98_1167)"/>
<path fill-rule="evenodd" clip-rule="evenodd" d="M307.106 65.2914C305.821 65.9985 304.781 66.6148 304.796 66.6608C304.811 66.7068 305.863 67.3175 307.134 68.018L309.444 69.2917L310.08 68.971C311.335 68.3375 314.24 66.7136 314.237 66.6461C314.236 66.5814 309.58 63.9881 309.487 64C309.464 64.003 308.392 64.5842 307.106 65.2914ZM303.982 70.4955L304.013 73.1682L306.324 74.4524C307.595 75.1588 308.675 75.7406 308.724 75.7455C308.773 75.7502 308.799 74.5598 308.782 73.1001L308.751 70.4459L307.017 69.495C306.064 68.972 304.984 68.3818 304.618 68.1834L303.951 67.8227L303.982 70.4955ZM312.622 69.1491L310.253 70.4495L310.222 73.1018C310.205 74.5606 310.217 75.7541 310.25 75.7541C310.282 75.7541 310.867 75.4408 311.552 75.0579C312.236 74.675 313.28 74.1004 313.873 73.7809C314.466 73.4614 314.974 73.1432 315.002 73.0736C315.03 73.004 315.039 71.7999 315.022 70.3979L314.991 67.8487L312.622 69.1491ZM300.377 71.4185C299.457 71.9292 298.612 72.4344 298.5 72.5413C298.32 72.7127 298.294 72.9761 298.288 74.7515C298.283 75.86 298.303 76.7888 298.331 76.8155C298.359 76.8421 298.765 76.6492 299.233 76.3867L300.084 75.9097L300.117 74.7518L300.149 73.5941L301.128 73.0562L302.106 72.5185V71.4986C302.106 70.9377 302.093 70.4813 302.078 70.4845C302.062 70.4877 301.296 70.9079 300.377 71.4185ZM316.897 71.4878V72.5185L317.876 73.0562L318.854 73.5941L318.887 74.752L318.919 75.91L319.728 76.3736C320.173 76.6284 320.576 76.8407 320.624 76.8452C320.672 76.8496 320.711 75.9221 320.711 74.7841C320.711 72.3553 320.864 72.6356 318.977 71.6097C318.31 71.2468 317.569 70.8389 317.331 70.7034L316.897 70.457V71.4878ZM299.104 78.4483C297.865 79.1372 296.839 79.7401 296.822 79.7882C296.806 79.8362 297.852 80.4585 299.146 81.171L301.5 82.4664L303.739 81.2412C304.97 80.5673 306.045 79.9554 306.128 79.8815C306.248 79.7737 305.812 79.4928 303.928 78.4649C302.636 77.7598 301.529 77.1859 301.467 77.1894C301.406 77.193 300.342 77.7594 299.104 78.4483ZM315.97 77.981C315.177 78.42 314.124 78.9983 313.63 79.266C312.919 79.6517 312.763 79.78 312.879 79.8843C312.96 79.9568 314.033 80.5668 315.263 81.2402L317.5 82.4644L319.856 81.1728C321.152 80.4624 322.213 79.8478 322.213 79.8072C322.213 79.726 317.648 77.1829 317.502 77.1829C317.452 77.1829 316.763 77.5421 315.97 77.981ZM296.009 83.6848L296.04 86.3401L298.293 87.5812C299.533 88.2639 300.608 88.8248 300.683 88.8275C300.888 88.8352 300.898 83.8957 300.694 83.6493C300.57 83.4988 296.17 81.0295 296.027 81.0295C296 81.0295 295.992 82.2244 296.009 83.6848ZM305.573 81.7745C304.842 82.1836 303.789 82.7611 303.233 83.0576L302.222 83.5967V86.2823V88.9679L302.482 88.8074C302.625 88.7192 303.717 88.1141 304.909 87.463L307.075 86.2789V83.6542C307.075 82.2107 307.036 81.0297 306.989 81.03C306.941 81.0302 306.304 81.3652 305.573 81.7745ZM311.928 83.6607V86.2919L314.052 87.4409C315.22 88.0727 316.312 88.6749 316.478 88.7788L316.782 88.9679V86.2882V83.6085L314.428 82.319C313.133 81.6098 312.042 81.0295 312.001 81.0295C311.961 81.0295 311.928 82.2135 311.928 83.6607ZM320.935 82.1111C319.882 82.6949 318.829 83.2822 318.595 83.4162L318.168 83.6599V86.2462C318.168 88.2447 318.201 88.8316 318.313 88.828C318.392 88.8253 319.471 88.2628 320.711 87.578L322.964 86.3328L322.995 83.6812C323.012 82.2227 322.986 81.034 322.937 81.0395C322.888 81.045 321.987 81.5272 320.935 82.1111ZM306.642 88.5285C306.181 88.781 305.804 89.0197 305.804 89.059C305.804 89.0982 306.592 89.5627 307.554 90.0911C308.902 90.8314 309.373 91.0388 309.605 90.9943C309.938 90.9304 313.2 89.183 313.198 89.0691C313.197 89.0008 311.536 88.0634 311.416 88.0634C311.385 88.0634 310.973 88.2859 310.502 88.5579C310.031 88.8299 309.594 89.0525 309.529 89.0525C309.465 89.0525 309.004 88.8303 308.504 88.5587C308.004 88.2872 307.569 88.0659 307.537 88.0671C307.506 88.0682 307.103 88.2759 306.642 88.5285Z" fill="#9FAFCC"/>
<path fill-rule="evenodd" clip-rule="evenodd" d="M107.106 65.2914C105.821 65.9985 104.781 66.6148 104.796 66.6608C104.811 66.7068 105.863 67.3175 107.134 68.018L109.444 69.2917L110.08 68.971C111.335 68.3375 114.24 66.7136 114.237 66.6461C114.236 66.5814 109.58 63.9881 109.487 64C109.464 64.003 108.392 64.5842 107.106 65.2914ZM103.982 70.4955L104.013 73.1682L106.324 74.4524C107.595 75.1588 108.675 75.7406 108.724 75.7455C108.773 75.7502 108.799 74.5598 108.782 73.1001L108.751 70.4459L107.017 69.495C106.064 68.972 104.984 68.3818 104.618 68.1834L103.951 67.8227L103.982 70.4955ZM112.622 69.1491L110.253 70.4495L110.222 73.1018C110.205 74.5606 110.217 75.7541 110.25 75.7541C110.282 75.7541 110.867 75.4408 111.552 75.0579C112.236 74.675 113.28 74.1004 113.873 73.7809C114.466 73.4614 114.974 73.1432 115.002 73.0736C115.03 73.004 115.039 71.7999 115.022 70.3979L114.991 67.8487L112.622 69.1491ZM100.377 71.4185C99.4568 71.9292 98.6123 72.4344 98.4998 72.5413C98.3198 72.7127 98.2945 72.9761 98.2876 74.7515C98.2832 75.86 98.3026 76.7888 98.3305 76.8155C98.3586 76.8421 98.7646 76.6492 99.2329 76.3867L100.084 75.9097L100.117 74.7518L100.149 73.5941L101.128 73.0562L102.106 72.5185V71.4986C102.106 70.9377 102.093 70.4813 102.078 70.4845C102.062 70.4877 101.296 70.9079 100.377 71.4185ZM116.897 71.4878V72.5185L117.876 73.0562L118.854 73.5941L118.887 74.752L118.919 75.91L119.728 76.3736C120.173 76.6284 120.576 76.8407 120.624 76.8452C120.672 76.8496 120.711 75.9221 120.711 74.7841C120.711 72.3553 120.864 72.6356 118.977 71.6097C118.31 71.2468 117.569 70.8389 117.331 70.7034L116.897 70.457V71.4878ZM99.1038 78.4483C97.8654 79.1372 96.8389 79.7401 96.8223 79.7882C96.8059 79.8362 97.8517 80.4585 99.1462 81.171L101.5 82.4664L103.739 81.2412C104.97 80.5673 106.045 79.9554 106.128 79.8815C106.248 79.7737 105.812 79.4928 103.928 78.4649C102.636 77.7598 101.529 77.1859 101.467 77.1894C101.406 77.193 100.342 77.7594 99.1038 78.4483ZM115.97 77.981C115.177 78.42 114.124 78.9983 113.63 79.266C112.919 79.6517 112.763 79.78 112.879 79.8843C112.96 79.9568 114.033 80.5668 115.263 81.2402L117.5 82.4644L119.856 81.1728C121.152 80.4624 122.213 79.8478 122.213 79.8072C122.213 79.726 117.648 77.1829 117.502 77.1829C117.452 77.1829 116.763 77.5421 115.97 77.981ZM96.009 83.6848L96.0399 86.3401L98.2932 87.5812C99.5325 88.2639 100.608 88.8248 100.683 88.8275C100.888 88.8352 100.898 83.8957 100.694 83.6493C100.57 83.4988 96.1699 81.0295 96.0265 81.0295C95.9998 81.0295 95.992 82.2244 96.009 83.6848ZM105.573 81.7745C104.842 82.1836 103.789 82.7611 103.233 83.0576L102.222 83.5967V86.2823V88.9679L102.482 88.8074C102.625 88.7192 103.717 88.1141 104.909 87.463L107.075 86.2789V83.6542C107.075 82.2107 107.036 81.0297 106.989 81.03C106.941 81.0302 106.304 81.3652 105.573 81.7745ZM111.928 83.6607V86.2919L114.052 87.4409C115.22 88.0727 116.312 88.6749 116.478 88.7788L116.782 88.9679V86.2882V83.6085L114.428 82.319C113.133 81.6098 112.042 81.0295 112.001 81.0295C111.961 81.0295 111.928 82.2135 111.928 83.6607ZM120.935 82.1111C119.882 82.6949 118.829 83.2822 118.595 83.4162L118.168 83.6599V86.2462C118.168 88.2447 118.201 88.8316 118.313 88.828C118.392 88.8253 119.471 88.2628 120.711 87.578L122.964 86.3328L122.995 83.6812C123.012 82.2227 122.986 81.034 122.937 81.0395C122.888 81.045 121.987 81.5272 120.935 82.1111ZM106.642 88.5285C106.181 88.781 105.804 89.0197 105.804 89.059C105.804 89.0982 106.592 89.5627 107.554 90.0911C108.902 90.8314 109.373 91.0388 109.605 90.9943C109.938 90.9304 113.2 89.183 113.198 89.0691C113.197 89.0008 111.536 88.0634 111.416 88.0634C111.385 88.0634 110.973 88.2859 110.502 88.5579C110.031 88.8299 109.594 89.0525 109.529 89.0525C109.465 89.0525 109.004 88.8303 108.504 88.5587C108.004 88.2872 107.569 88.0659 107.537 88.0671C107.506 88.0682 107.103 88.2759 106.642 88.5285Z" fill="#9FAFCC"/>
<path fill-rule="evenodd" clip-rule="evenodd" d="M33.993 69.8131C33.1835 70.2583 32.5288 70.6463 32.5381 70.6753C32.5474 70.7043 33.2097 71.0888 34.01 71.5299L35.4648 72.3318L35.865 72.1299C36.6556 71.731 38.4842 70.7085 38.4829 70.6661C38.4816 70.6253 35.5503 68.9925 35.4919 69C35.477 69.0019 34.8025 69.3678 33.993 69.8131ZM32.0258 73.0897L32.0453 74.7726L33.5004 75.5812C34.3007 76.0259 34.9807 76.3922 35.0114 76.3953C35.0421 76.3983 35.0585 75.6488 35.0478 74.7297L35.0283 73.0585L33.9369 72.4598C33.3367 72.1305 32.6567 71.7589 32.4259 71.634L32.0063 71.4069L32.0258 73.0897ZM37.4656 72.2421L35.9741 73.0608L35.9546 74.7308C35.9439 75.6493 35.9517 76.4008 35.9719 76.4008C35.9921 76.4008 36.361 76.2035 36.7917 75.9624C37.2224 75.7213 37.8801 75.3595 38.2533 75.1584C38.6266 74.9572 38.9464 74.7568 38.9641 74.713C38.9817 74.6692 38.9874 73.9111 38.9767 73.0283L38.9571 71.4232L37.4656 72.2421ZM29.7556 73.6709C29.1765 73.9924 28.6448 74.3105 28.574 74.3779C28.4606 74.4858 28.4447 74.6516 28.4403 75.7695C28.4376 76.4674 28.4498 77.0522 28.4674 77.069C28.4851 77.0858 28.7407 76.9643 29.0355 76.7991L29.5716 76.4987L29.5921 75.7697L29.6126 75.0407L30.2287 74.7021L30.8448 74.3635V73.7213C30.8448 73.3682 30.8366 73.0808 30.8266 73.0828C30.8167 73.0848 30.3347 73.3494 29.7556 73.6709ZM40.1575 73.7145V74.3635L40.7736 74.7021L41.3897 75.0407L41.4103 75.7698L41.4308 76.4989L41.9401 76.7908C42.2202 76.9512 42.4739 77.0849 42.5039 77.0877C42.534 77.0905 42.5585 76.5065 42.5585 75.79C42.5585 74.2607 42.6549 74.4372 41.4672 73.7913C41.047 73.5628 40.5805 73.306 40.4304 73.2207L40.1575 73.0655V73.7145ZM28.9543 78.0971C28.1745 78.5308 27.5282 78.9105 27.5178 78.9407C27.5074 78.9709 28.1659 79.3627 28.981 79.8114L30.463 80.627L31.8726 79.8556C32.6479 79.4312 33.3247 79.046 33.3766 78.9994C33.4525 78.9316 33.178 78.7548 31.992 78.1075C31.1783 77.6636 30.481 77.3022 30.4423 77.3044C30.4036 77.3067 29.734 77.6634 28.9543 78.0971ZM39.5737 77.8029C39.0745 78.0792 38.4116 78.4434 38.1005 78.6119C37.6524 78.8547 37.5543 78.9356 37.6276 79.0012C37.6785 79.0468 38.354 79.431 39.1287 79.8549L40.5372 80.6258L42.0208 79.8125C42.8367 79.3652 43.5043 78.9783 43.5043 78.9527C43.5043 78.9015 40.63 77.3003 40.5381 77.3003C40.5069 77.3003 40.0729 77.5265 39.5737 77.8029ZM27.0056 81.3941L27.0251 83.066L28.4439 83.8474C29.2242 84.2773 29.9014 84.6304 29.9487 84.6321C30.0775 84.637 30.0842 81.5269 29.9556 81.3718C29.8772 81.277 27.107 79.7223 27.0167 79.7223C26.9999 79.7223 26.995 80.4746 27.0056 81.3941ZM33.0275 80.1913C32.5673 80.4489 31.9044 80.8125 31.5542 80.9992L30.9176 81.3386V83.0296V84.7205L31.0813 84.6195C31.1713 84.5639 31.8589 84.183 32.6091 83.773L33.9733 83.0274V81.3749C33.9733 80.466 33.9488 79.7224 33.9187 79.7226C33.8887 79.7227 33.4877 79.9336 33.0275 80.1913ZM37.0291 81.379V83.0357L38.3659 83.7591C39.1012 84.1569 39.7888 84.536 39.8938 84.6015L40.0848 84.7205V83.0333V81.3461L38.6028 80.5342C37.7878 80.0877 37.1002 79.7223 37.075 79.7223C37.0497 79.7223 37.0291 80.4678 37.0291 81.379ZM42.6996 80.4033C42.037 80.7709 41.374 81.1407 41.2263 81.225L40.9579 81.3784V83.0069C40.9579 84.2652 40.9785 84.6347 41.0488 84.6324C41.0989 84.6308 41.7782 84.2766 42.5585 83.8454L43.9772 83.0614L43.9967 81.3918C44.0074 80.4736 43.991 79.7251 43.9603 79.7286C43.9296 79.732 43.3623 80.0356 42.6996 80.4033ZM33.7005 84.4439C33.4103 84.6029 33.173 84.7532 33.173 84.7779C33.173 84.8026 33.6688 85.095 34.2747 85.4277C35.1234 85.8938 35.4198 86.0244 35.5661 85.9964C35.7761 85.9562 37.8298 84.8559 37.8286 84.7842C37.8278 84.7413 36.782 84.151 36.7066 84.151C36.6867 84.151 36.4277 84.2911 36.1312 84.4624C35.8346 84.6337 35.5589 84.7738 35.5185 84.7738C35.4782 84.7738 35.1877 84.6339 34.8729 84.4629C34.5582 84.292 34.2843 84.1526 34.2643 84.1534C34.2443 84.1541 33.9906 84.2848 33.7005 84.4439Z" fill="#4E5A71"/>
<path fill-rule="evenodd" clip-rule="evenodd" d="M382.993 69.8131C382.183 70.2583 381.529 70.6463 381.538 70.6753C381.547 70.7043 382.21 71.0888 383.01 71.5299L384.465 72.3318L384.865 72.1299C385.656 71.731 387.484 70.7085 387.483 70.6661C387.482 70.6253 384.55 68.9925 384.492 69C384.477 69.0019 383.803 69.3678 382.993 69.8131ZM381.026 73.0897L381.045 74.7726L382.5 75.5812C383.301 76.0259 383.981 76.3922 384.011 76.3953C384.042 76.3983 384.058 75.6488 384.048 74.7297L384.028 73.0585L382.937 72.4598C382.337 72.1305 381.657 71.7589 381.426 71.634L381.006 71.4069L381.026 73.0897ZM386.466 72.2421L384.974 73.0608L384.955 74.7308C384.944 75.6493 384.952 76.4008 384.972 76.4008C384.992 76.4008 385.361 76.2035 385.792 75.9624C386.222 75.7213 386.88 75.3595 387.253 75.1584C387.627 74.9572 387.946 74.7568 387.964 74.713C387.982 74.6692 387.987 73.9111 387.977 73.0283L387.957 71.4232L386.466 72.2421ZM378.756 73.6709C378.177 73.9924 377.645 74.3105 377.574 74.3779C377.461 74.4858 377.445 74.6516 377.44 75.7695C377.438 76.4674 377.45 77.0522 377.467 77.069C377.485 77.0858 377.741 76.9643 378.036 76.7991L378.572 76.4987L378.592 75.7697L378.613 75.0407L379.229 74.7021L379.845 74.3635V73.7213C379.845 73.3682 379.837 73.0808 379.827 73.0828C379.817 73.0848 379.335 73.3494 378.756 73.6709ZM389.158 73.7145V74.3635L389.774 74.7021L390.39 75.0407L390.41 75.7698L390.431 76.4989L390.94 76.7908C391.22 76.9512 391.474 77.0849 391.504 77.0877C391.534 77.0905 391.558 76.5065 391.558 75.79C391.558 74.2607 391.655 74.4372 390.467 73.7913C390.047 73.5628 389.58 73.306 389.43 73.2207L389.158 73.0655V73.7145ZM377.954 78.0971C377.175 78.5308 376.528 78.9105 376.518 78.9407C376.507 78.9709 377.166 79.3627 377.981 79.8114L379.463 80.627L380.873 79.8556C381.648 79.4312 382.325 79.046 382.377 78.9994C382.452 78.9316 382.178 78.7548 380.992 78.1075C380.178 77.6636 379.481 77.3022 379.442 77.3044C379.404 77.3067 378.734 77.6634 377.954 78.0971ZM388.574 77.8029C388.075 78.0792 387.412 78.4434 387.101 78.6119C386.652 78.8547 386.554 78.9356 386.628 79.0012C386.679 79.0468 387.354 79.431 388.129 79.8549L389.537 80.6258L391.021 79.8125C391.837 79.3652 392.504 78.9783 392.504 78.9527C392.504 78.9015 389.63 77.3003 389.538 77.3003C389.507 77.3003 389.073 77.5265 388.574 77.8029ZM376.006 81.3941L376.025 83.066L377.444 83.8474C378.224 84.2773 378.901 84.6304 378.949 84.6321C379.078 84.637 379.084 81.5269 378.956 81.3718C378.877 81.277 376.107 79.7223 376.017 79.7223C376 79.7223 375.995 80.4746 376.006 81.3941ZM382.027 80.1913C381.567 80.4489 380.904 80.8125 380.554 80.9992L379.918 81.3386V83.0296V84.7205L380.081 84.6195C380.171 84.5639 380.859 84.183 381.609 83.773L382.973 83.0274V81.3749C382.973 80.466 382.949 79.7224 382.919 79.7226C382.889 79.7227 382.488 79.9336 382.027 80.1913ZM386.029 81.379V83.0357L387.366 83.7591C388.101 84.1569 388.789 84.536 388.894 84.6015L389.085 84.7205V83.0333V81.3461L387.603 80.5342C386.788 80.0877 386.1 79.7223 386.075 79.7223C386.05 79.7223 386.029 80.4678 386.029 81.379ZM391.7 80.4033C391.037 80.7709 390.374 81.1407 390.226 81.225L389.958 81.3784V83.0069C389.958 84.2652 389.979 84.6347 390.049 84.6324C390.099 84.6308 390.778 84.2766 391.558 83.8454L392.977 83.0614L392.997 81.3918C393.007 80.4736 392.991 79.7251 392.96 79.7286C392.93 79.732 392.362 80.0356 391.7 80.4033ZM382.7 84.4439C382.41 84.6029 382.173 84.7532 382.173 84.7779C382.173 84.8026 382.669 85.095 383.275 85.4277C384.123 85.8938 384.42 86.0244 384.566 85.9964C384.776 85.9562 386.83 84.8559 386.829 84.7842C386.828 84.7413 385.782 84.151 385.707 84.151C385.687 84.151 385.428 84.2911 385.131 84.4624C384.835 84.6337 384.559 84.7738 384.519 84.7738C384.478 84.7738 384.188 84.6339 383.873 84.4629C383.558 84.292 383.284 84.1526 383.264 84.1534C383.244 84.1541 382.991 84.2848 382.7 84.4439Z" fill="#4E5A71"/>
</g>
<defs>
<radialGradient id="paint0_radial_98_1167" cx="0" cy="0" r="1" gradientUnits="userSpaceOnUse" gradientTransform="translate(-0.180511 272.82) rotate(90) scale(190)">
<stop stop-color="#737A99"/>
<stop offset="1" stop-color="#262933"/>
</radialGradient>
<radialGradient id="paint1_radial_98_1167" cx="0" cy="0" r="1" gradientUnits="userSpaceOnUse" gradientTransform="translate(394.819 -134.18) rotate(90) scale(190)">
<stop stop-color="#737A99"/>
<stop offset="1" stop-color="#262933"/>
</radialGradient>
<linearGradient id="paint2_linear_98_1167" x1="209" y1="78" x2="209" y2="159" gradientUnits="userSpaceOnUse">
<stop stop-color="#1E2028" stop-opacity="0"/>
<stop offset="1" stop-color="#1E2028"/>
</linearGradient>
<linearGradient id="paint3_linear_98_1167" x1="209.5" y1="32" x2="209.5" y2="125" gradientUnits="userSpaceOnUse">
<stop stop-color="#393D4B"/>
<stop offset="1" stop-color="#212530"/>
</linearGradient>
<linearGradient id="paint4_linear_98_1167" x1="245.257" y1="48.5473" x2="179.487" y2="114.318" gradientUnits="userSpaceOnUse">
<stop stop-color="#FF6048"/>
<stop offset="1" stop-color="#FF9802"/>
</linearGradient>
<linearGradient id="paint5_linear_98_1167" x1="220.929" y1="67.1231" x2="198.102" y2="89.9505" gradientUnits="userSpaceOnUse">
<stop stop-color="#FF6048"/>
<stop offset="1" stop-color="#FF9802"/>
</linearGradient>
<linearGradient id="paint6_linear_98_1167" x1="309.5" y1="48" x2="309.5" y2="109" gradientUnits="userSpaceOnUse">
<stop stop-color="#393D4B"/>
<stop offset="1" stop-color="#212530"/>
</linearGradient>
<linearGradient id="paint7_linear_98_1167" x1="109.5" y1="48" x2="109.5" y2="109" gradientUnits="userSpaceOnUse">
<stop stop-color="#393D4B"/>
<stop offset="1" stop-color="#212530"/>
</linearGradient>
<linearGradient id="paint8_linear_98_1167" x1="35" y1="57" x2="35" y2="99" gradientUnits="userSpaceOnUse">
<stop stop-color="#393D4B"/>
<stop offset="1" stop-color="#212530"/>
</linearGradient>
<linearGradient id="paint9_linear_98_1167" x1="384" y1="57" x2="384" y2="99" gradientUnits="userSpaceOnUse">
<stop stop-color="#393D4B"/>
<stop offset="1" stop-color="#212530"/>
</linearGradient>
<linearGradient id="paint10_linear_98_1167" x1="139.5" y1="0" x2="139.5" y2="60" gradientUnits="userSpaceOnUse">
<stop stop-color="#1E2028" stop-opacity="0"/>
<stop offset="1" stop-color="#1E2028"/>
</linearGradient>
<linearGradient id="paint11_linear_98_1167" x1="437.5" y1="159" x2="437.5" y2="219" gradientUnits="userSpaceOnUse">
<stop stop-color="#1E2028" stop-opacity="0"/>
<stop offset="1" stop-color="#1E2028"/>
</linearGradient>
<clipPath id="clip0_98_1167">
<path d="M0 12C0 5.37258 5.37258 0 12 0H406C412.627 0 418 5.37258 418 12V159H0V12Z" fill="white"/>
</clipPath>
<clipPath id="clip1_98_1167">
<rect width="43.0377" height="43.0377" fill="white" transform="translate(187 56)"/>
</clipPath>
</defs>
</svg>
